G04 #@! TF.GenerationSoftware,KiCad,Pcbnew,(5.0.0)*
G04 #@! TF.CreationDate,2020-07-13T01:16:36+09:00*
G04 #@! TF.ProjectId,WioTerminal_TangNano,57696F5465726D696E616C5F54616E67,rev?*
G04 #@! TF.SameCoordinates,Original*
G04 #@! TF.FileFunction,Paste,Top*
G04 #@! TF.FilePolarity,Positive*
%FSLAX46Y46*%
G04 Gerber Fmt 4.6, Leading zero omitted, Abs format (unit mm)*
G04 Created by KiCad (PCBNEW (5.0.0)) date 07/13/20 01:16:36*
%MOMM*%
%LPD*%
G01*
G04 APERTURE LIST*
%ADD10R,1.000000X3.000000*%
%ADD11C,0.100000*%
%ADD12C,0.875000*%
%ADD13R,0.220000X1.200000*%
%ADD14R,1.000000X3.400000*%
%ADD15R,1.500000X3.600000*%
G04 APERTURE END LIST*
D10*
G04 #@! TO.C,J1*
X58130000Y44125000D03*
X58130000Y38875000D03*
X55590000Y44125000D03*
X55590000Y38875000D03*
X53050000Y44125000D03*
X53050000Y38875000D03*
X50510000Y44125000D03*
X50510000Y38875000D03*
X47970000Y44125000D03*
X47970000Y38875000D03*
X45430000Y44125000D03*
X45430000Y38875000D03*
X42890000Y44125000D03*
X42890000Y38875000D03*
X40350000Y44125000D03*
X40350000Y38875000D03*
X37810000Y44125000D03*
X37810000Y38875000D03*
X35270000Y44125000D03*
X35270000Y38875000D03*
X32730000Y44125000D03*
X32730000Y38875000D03*
X30190000Y44125000D03*
X30190000Y38875000D03*
X27650000Y44125000D03*
X27650000Y38875000D03*
X25110000Y44125000D03*
X25110000Y38875000D03*
X22570000Y44125000D03*
X22570000Y38875000D03*
X20030000Y44125000D03*
X20030000Y38875000D03*
X17490000Y44125000D03*
X17490000Y38875000D03*
X14950000Y44125000D03*
X14950000Y38875000D03*
X12410000Y44125000D03*
X12410000Y38875000D03*
X9870000Y44125000D03*
X9870000Y38875000D03*
G04 #@! TD*
D11*
G04 #@! TO.C,R5*
G36*
X30987691Y14673947D02*
X31008926Y14670797D01*
X31029750Y14665581D01*
X31049962Y14658349D01*
X31069368Y14649170D01*
X31087781Y14638134D01*
X31105024Y14625346D01*
X31120930Y14610930D01*
X31135346Y14595024D01*
X31148134Y14577781D01*
X31159170Y14559368D01*
X31168349Y14539962D01*
X31175581Y14519750D01*
X31180797Y14498926D01*
X31183947Y14477691D01*
X31185000Y14456250D01*
X31185000Y14018750D01*
X31183947Y13997309D01*
X31180797Y13976074D01*
X31175581Y13955250D01*
X31168349Y13935038D01*
X31159170Y13915632D01*
X31148134Y13897219D01*
X31135346Y13879976D01*
X31120930Y13864070D01*
X31105024Y13849654D01*
X31087781Y13836866D01*
X31069368Y13825830D01*
X31049962Y13816651D01*
X31029750Y13809419D01*
X31008926Y13804203D01*
X30987691Y13801053D01*
X30966250Y13800000D01*
X30453750Y13800000D01*
X30432309Y13801053D01*
X30411074Y13804203D01*
X30390250Y13809419D01*
X30370038Y13816651D01*
X30350632Y13825830D01*
X30332219Y13836866D01*
X30314976Y13849654D01*
X30299070Y13864070D01*
X30284654Y13879976D01*
X30271866Y13897219D01*
X30260830Y13915632D01*
X30251651Y13935038D01*
X30244419Y13955250D01*
X30239203Y13976074D01*
X30236053Y13997309D01*
X30235000Y14018750D01*
X30235000Y14456250D01*
X30236053Y14477691D01*
X30239203Y14498926D01*
X30244419Y14519750D01*
X30251651Y14539962D01*
X30260830Y14559368D01*
X30271866Y14577781D01*
X30284654Y14595024D01*
X30299070Y14610930D01*
X30314976Y14625346D01*
X30332219Y14638134D01*
X30350632Y14649170D01*
X30370038Y14658349D01*
X30390250Y14665581D01*
X30411074Y14670797D01*
X30432309Y14673947D01*
X30453750Y14675000D01*
X30966250Y14675000D01*
X30987691Y14673947D01*
X30987691Y14673947D01*
G37*
D12*
X30710000Y14237500D03*
D11*
G36*
X30987691Y13098947D02*
X31008926Y13095797D01*
X31029750Y13090581D01*
X31049962Y13083349D01*
X31069368Y13074170D01*
X31087781Y13063134D01*
X31105024Y13050346D01*
X31120930Y13035930D01*
X31135346Y13020024D01*
X31148134Y13002781D01*
X31159170Y12984368D01*
X31168349Y12964962D01*
X31175581Y12944750D01*
X31180797Y12923926D01*
X31183947Y12902691D01*
X31185000Y12881250D01*
X31185000Y12443750D01*
X31183947Y12422309D01*
X31180797Y12401074D01*
X31175581Y12380250D01*
X31168349Y12360038D01*
X31159170Y12340632D01*
X31148134Y12322219D01*
X31135346Y12304976D01*
X31120930Y12289070D01*
X31105024Y12274654D01*
X31087781Y12261866D01*
X31069368Y12250830D01*
X31049962Y12241651D01*
X31029750Y12234419D01*
X31008926Y12229203D01*
X30987691Y12226053D01*
X30966250Y12225000D01*
X30453750Y12225000D01*
X30432309Y12226053D01*
X30411074Y12229203D01*
X30390250Y12234419D01*
X30370038Y12241651D01*
X30350632Y12250830D01*
X30332219Y12261866D01*
X30314976Y12274654D01*
X30299070Y12289070D01*
X30284654Y12304976D01*
X30271866Y12322219D01*
X30260830Y12340632D01*
X30251651Y12360038D01*
X30244419Y12380250D01*
X30239203Y12401074D01*
X30236053Y12422309D01*
X30235000Y12443750D01*
X30235000Y12881250D01*
X30236053Y12902691D01*
X30239203Y12923926D01*
X30244419Y12944750D01*
X30251651Y12964962D01*
X30260830Y12984368D01*
X30271866Y13002781D01*
X30284654Y13020024D01*
X30299070Y13035930D01*
X30314976Y13050346D01*
X30332219Y13063134D01*
X30350632Y13074170D01*
X30370038Y13083349D01*
X30390250Y13090581D01*
X30411074Y13095797D01*
X30432309Y13098947D01*
X30453750Y13100000D01*
X30966250Y13100000D01*
X30987691Y13098947D01*
X30987691Y13098947D01*
G37*
D12*
X30710000Y12662500D03*
G04 #@! TD*
D11*
G04 #@! TO.C,R6*
G36*
X29787691Y14673947D02*
X29808926Y14670797D01*
X29829750Y14665581D01*
X29849962Y14658349D01*
X29869368Y14649170D01*
X29887781Y14638134D01*
X29905024Y14625346D01*
X29920930Y14610930D01*
X29935346Y14595024D01*
X29948134Y14577781D01*
X29959170Y14559368D01*
X29968349Y14539962D01*
X29975581Y14519750D01*
X29980797Y14498926D01*
X29983947Y14477691D01*
X29985000Y14456250D01*
X29985000Y14018750D01*
X29983947Y13997309D01*
X29980797Y13976074D01*
X29975581Y13955250D01*
X29968349Y13935038D01*
X29959170Y13915632D01*
X29948134Y13897219D01*
X29935346Y13879976D01*
X29920930Y13864070D01*
X29905024Y13849654D01*
X29887781Y13836866D01*
X29869368Y13825830D01*
X29849962Y13816651D01*
X29829750Y13809419D01*
X29808926Y13804203D01*
X29787691Y13801053D01*
X29766250Y13800000D01*
X29253750Y13800000D01*
X29232309Y13801053D01*
X29211074Y13804203D01*
X29190250Y13809419D01*
X29170038Y13816651D01*
X29150632Y13825830D01*
X29132219Y13836866D01*
X29114976Y13849654D01*
X29099070Y13864070D01*
X29084654Y13879976D01*
X29071866Y13897219D01*
X29060830Y13915632D01*
X29051651Y13935038D01*
X29044419Y13955250D01*
X29039203Y13976074D01*
X29036053Y13997309D01*
X29035000Y14018750D01*
X29035000Y14456250D01*
X29036053Y14477691D01*
X29039203Y14498926D01*
X29044419Y14519750D01*
X29051651Y14539962D01*
X29060830Y14559368D01*
X29071866Y14577781D01*
X29084654Y14595024D01*
X29099070Y14610930D01*
X29114976Y14625346D01*
X29132219Y14638134D01*
X29150632Y14649170D01*
X29170038Y14658349D01*
X29190250Y14665581D01*
X29211074Y14670797D01*
X29232309Y14673947D01*
X29253750Y14675000D01*
X29766250Y14675000D01*
X29787691Y14673947D01*
X29787691Y14673947D01*
G37*
D12*
X29510000Y14237500D03*
D11*
G36*
X29787691Y13098947D02*
X29808926Y13095797D01*
X29829750Y13090581D01*
X29849962Y13083349D01*
X29869368Y13074170D01*
X29887781Y13063134D01*
X29905024Y13050346D01*
X29920930Y13035930D01*
X29935346Y13020024D01*
X29948134Y13002781D01*
X29959170Y12984368D01*
X29968349Y12964962D01*
X29975581Y12944750D01*
X29980797Y12923926D01*
X29983947Y12902691D01*
X29985000Y12881250D01*
X29985000Y12443750D01*
X29983947Y12422309D01*
X29980797Y12401074D01*
X29975581Y12380250D01*
X29968349Y12360038D01*
X29959170Y12340632D01*
X29948134Y12322219D01*
X29935346Y12304976D01*
X29920930Y12289070D01*
X29905024Y12274654D01*
X29887781Y12261866D01*
X29869368Y12250830D01*
X29849962Y12241651D01*
X29829750Y12234419D01*
X29808926Y12229203D01*
X29787691Y12226053D01*
X29766250Y12225000D01*
X29253750Y12225000D01*
X29232309Y12226053D01*
X29211074Y12229203D01*
X29190250Y12234419D01*
X29170038Y12241651D01*
X29150632Y12250830D01*
X29132219Y12261866D01*
X29114976Y12274654D01*
X29099070Y12289070D01*
X29084654Y12304976D01*
X29071866Y12322219D01*
X29060830Y12340632D01*
X29051651Y12360038D01*
X29044419Y12380250D01*
X29039203Y12401074D01*
X29036053Y12422309D01*
X29035000Y12443750D01*
X29035000Y12881250D01*
X29036053Y12902691D01*
X29039203Y12923926D01*
X29044419Y12944750D01*
X29051651Y12964962D01*
X29060830Y12984368D01*
X29071866Y13002781D01*
X29084654Y13020024D01*
X29099070Y13035930D01*
X29114976Y13050346D01*
X29132219Y13063134D01*
X29150632Y13074170D01*
X29170038Y13083349D01*
X29190250Y13090581D01*
X29211074Y13095797D01*
X29232309Y13098947D01*
X29253750Y13100000D01*
X29766250Y13100000D01*
X29787691Y13098947D01*
X29787691Y13098947D01*
G37*
D12*
X29510000Y12662500D03*
G04 #@! TD*
D11*
G04 #@! TO.C,R7*
G36*
X25907691Y14673947D02*
X25928926Y14670797D01*
X25949750Y14665581D01*
X25969962Y14658349D01*
X25989368Y14649170D01*
X26007781Y14638134D01*
X26025024Y14625346D01*
X26040930Y14610930D01*
X26055346Y14595024D01*
X26068134Y14577781D01*
X26079170Y14559368D01*
X26088349Y14539962D01*
X26095581Y14519750D01*
X26100797Y14498926D01*
X26103947Y14477691D01*
X26105000Y14456250D01*
X26105000Y14018750D01*
X26103947Y13997309D01*
X26100797Y13976074D01*
X26095581Y13955250D01*
X26088349Y13935038D01*
X26079170Y13915632D01*
X26068134Y13897219D01*
X26055346Y13879976D01*
X26040930Y13864070D01*
X26025024Y13849654D01*
X26007781Y13836866D01*
X25989368Y13825830D01*
X25969962Y13816651D01*
X25949750Y13809419D01*
X25928926Y13804203D01*
X25907691Y13801053D01*
X25886250Y13800000D01*
X25373750Y13800000D01*
X25352309Y13801053D01*
X25331074Y13804203D01*
X25310250Y13809419D01*
X25290038Y13816651D01*
X25270632Y13825830D01*
X25252219Y13836866D01*
X25234976Y13849654D01*
X25219070Y13864070D01*
X25204654Y13879976D01*
X25191866Y13897219D01*
X25180830Y13915632D01*
X25171651Y13935038D01*
X25164419Y13955250D01*
X25159203Y13976074D01*
X25156053Y13997309D01*
X25155000Y14018750D01*
X25155000Y14456250D01*
X25156053Y14477691D01*
X25159203Y14498926D01*
X25164419Y14519750D01*
X25171651Y14539962D01*
X25180830Y14559368D01*
X25191866Y14577781D01*
X25204654Y14595024D01*
X25219070Y14610930D01*
X25234976Y14625346D01*
X25252219Y14638134D01*
X25270632Y14649170D01*
X25290038Y14658349D01*
X25310250Y14665581D01*
X25331074Y14670797D01*
X25352309Y14673947D01*
X25373750Y14675000D01*
X25886250Y14675000D01*
X25907691Y14673947D01*
X25907691Y14673947D01*
G37*
D12*
X25630000Y14237500D03*
D11*
G36*
X25907691Y13098947D02*
X25928926Y13095797D01*
X25949750Y13090581D01*
X25969962Y13083349D01*
X25989368Y13074170D01*
X26007781Y13063134D01*
X26025024Y13050346D01*
X26040930Y13035930D01*
X26055346Y13020024D01*
X26068134Y13002781D01*
X26079170Y12984368D01*
X26088349Y12964962D01*
X26095581Y12944750D01*
X26100797Y12923926D01*
X26103947Y12902691D01*
X26105000Y12881250D01*
X26105000Y12443750D01*
X26103947Y12422309D01*
X26100797Y12401074D01*
X26095581Y12380250D01*
X26088349Y12360038D01*
X26079170Y12340632D01*
X26068134Y12322219D01*
X26055346Y12304976D01*
X26040930Y12289070D01*
X26025024Y12274654D01*
X26007781Y12261866D01*
X25989368Y12250830D01*
X25969962Y12241651D01*
X25949750Y12234419D01*
X25928926Y12229203D01*
X25907691Y12226053D01*
X25886250Y12225000D01*
X25373750Y12225000D01*
X25352309Y12226053D01*
X25331074Y12229203D01*
X25310250Y12234419D01*
X25290038Y12241651D01*
X25270632Y12250830D01*
X25252219Y12261866D01*
X25234976Y12274654D01*
X25219070Y12289070D01*
X25204654Y12304976D01*
X25191866Y12322219D01*
X25180830Y12340632D01*
X25171651Y12360038D01*
X25164419Y12380250D01*
X25159203Y12401074D01*
X25156053Y12422309D01*
X25155000Y12443750D01*
X25155000Y12881250D01*
X25156053Y12902691D01*
X25159203Y12923926D01*
X25164419Y12944750D01*
X25171651Y12964962D01*
X25180830Y12984368D01*
X25191866Y13002781D01*
X25204654Y13020024D01*
X25219070Y13035930D01*
X25234976Y13050346D01*
X25252219Y13063134D01*
X25270632Y13074170D01*
X25290038Y13083349D01*
X25310250Y13090581D01*
X25331074Y13095797D01*
X25352309Y13098947D01*
X25373750Y13100000D01*
X25886250Y13100000D01*
X25907691Y13098947D01*
X25907691Y13098947D01*
G37*
D12*
X25630000Y12662500D03*
G04 #@! TD*
D11*
G04 #@! TO.C,R8*
G36*
X24707691Y14673947D02*
X24728926Y14670797D01*
X24749750Y14665581D01*
X24769962Y14658349D01*
X24789368Y14649170D01*
X24807781Y14638134D01*
X24825024Y14625346D01*
X24840930Y14610930D01*
X24855346Y14595024D01*
X24868134Y14577781D01*
X24879170Y14559368D01*
X24888349Y14539962D01*
X24895581Y14519750D01*
X24900797Y14498926D01*
X24903947Y14477691D01*
X24905000Y14456250D01*
X24905000Y14018750D01*
X24903947Y13997309D01*
X24900797Y13976074D01*
X24895581Y13955250D01*
X24888349Y13935038D01*
X24879170Y13915632D01*
X24868134Y13897219D01*
X24855346Y13879976D01*
X24840930Y13864070D01*
X24825024Y13849654D01*
X24807781Y13836866D01*
X24789368Y13825830D01*
X24769962Y13816651D01*
X24749750Y13809419D01*
X24728926Y13804203D01*
X24707691Y13801053D01*
X24686250Y13800000D01*
X24173750Y13800000D01*
X24152309Y13801053D01*
X24131074Y13804203D01*
X24110250Y13809419D01*
X24090038Y13816651D01*
X24070632Y13825830D01*
X24052219Y13836866D01*
X24034976Y13849654D01*
X24019070Y13864070D01*
X24004654Y13879976D01*
X23991866Y13897219D01*
X23980830Y13915632D01*
X23971651Y13935038D01*
X23964419Y13955250D01*
X23959203Y13976074D01*
X23956053Y13997309D01*
X23955000Y14018750D01*
X23955000Y14456250D01*
X23956053Y14477691D01*
X23959203Y14498926D01*
X23964419Y14519750D01*
X23971651Y14539962D01*
X23980830Y14559368D01*
X23991866Y14577781D01*
X24004654Y14595024D01*
X24019070Y14610930D01*
X24034976Y14625346D01*
X24052219Y14638134D01*
X24070632Y14649170D01*
X24090038Y14658349D01*
X24110250Y14665581D01*
X24131074Y14670797D01*
X24152309Y14673947D01*
X24173750Y14675000D01*
X24686250Y14675000D01*
X24707691Y14673947D01*
X24707691Y14673947D01*
G37*
D12*
X24430000Y14237500D03*
D11*
G36*
X24707691Y13098947D02*
X24728926Y13095797D01*
X24749750Y13090581D01*
X24769962Y13083349D01*
X24789368Y13074170D01*
X24807781Y13063134D01*
X24825024Y13050346D01*
X24840930Y13035930D01*
X24855346Y13020024D01*
X24868134Y13002781D01*
X24879170Y12984368D01*
X24888349Y12964962D01*
X24895581Y12944750D01*
X24900797Y12923926D01*
X24903947Y12902691D01*
X24905000Y12881250D01*
X24905000Y12443750D01*
X24903947Y12422309D01*
X24900797Y12401074D01*
X24895581Y12380250D01*
X24888349Y12360038D01*
X24879170Y12340632D01*
X24868134Y12322219D01*
X24855346Y12304976D01*
X24840930Y12289070D01*
X24825024Y12274654D01*
X24807781Y12261866D01*
X24789368Y12250830D01*
X24769962Y12241651D01*
X24749750Y12234419D01*
X24728926Y12229203D01*
X24707691Y12226053D01*
X24686250Y12225000D01*
X24173750Y12225000D01*
X24152309Y12226053D01*
X24131074Y12229203D01*
X24110250Y12234419D01*
X24090038Y12241651D01*
X24070632Y12250830D01*
X24052219Y12261866D01*
X24034976Y12274654D01*
X24019070Y12289070D01*
X24004654Y12304976D01*
X23991866Y12322219D01*
X23980830Y12340632D01*
X23971651Y12360038D01*
X23964419Y12380250D01*
X23959203Y12401074D01*
X23956053Y12422309D01*
X23955000Y12443750D01*
X23955000Y12881250D01*
X23956053Y12902691D01*
X23959203Y12923926D01*
X23964419Y12944750D01*
X23971651Y12964962D01*
X23980830Y12984368D01*
X23991866Y13002781D01*
X24004654Y13020024D01*
X24019070Y13035930D01*
X24034976Y13050346D01*
X24052219Y13063134D01*
X24070632Y13074170D01*
X24090038Y13083349D01*
X24110250Y13090581D01*
X24131074Y13095797D01*
X24152309Y13098947D01*
X24173750Y13100000D01*
X24686250Y13100000D01*
X24707691Y13098947D01*
X24707691Y13098947D01*
G37*
D12*
X24430000Y12662500D03*
G04 #@! TD*
D11*
G04 #@! TO.C,R9*
G36*
X20827691Y14673947D02*
X20848926Y14670797D01*
X20869750Y14665581D01*
X20889962Y14658349D01*
X20909368Y14649170D01*
X20927781Y14638134D01*
X20945024Y14625346D01*
X20960930Y14610930D01*
X20975346Y14595024D01*
X20988134Y14577781D01*
X20999170Y14559368D01*
X21008349Y14539962D01*
X21015581Y14519750D01*
X21020797Y14498926D01*
X21023947Y14477691D01*
X21025000Y14456250D01*
X21025000Y14018750D01*
X21023947Y13997309D01*
X21020797Y13976074D01*
X21015581Y13955250D01*
X21008349Y13935038D01*
X20999170Y13915632D01*
X20988134Y13897219D01*
X20975346Y13879976D01*
X20960930Y13864070D01*
X20945024Y13849654D01*
X20927781Y13836866D01*
X20909368Y13825830D01*
X20889962Y13816651D01*
X20869750Y13809419D01*
X20848926Y13804203D01*
X20827691Y13801053D01*
X20806250Y13800000D01*
X20293750Y13800000D01*
X20272309Y13801053D01*
X20251074Y13804203D01*
X20230250Y13809419D01*
X20210038Y13816651D01*
X20190632Y13825830D01*
X20172219Y13836866D01*
X20154976Y13849654D01*
X20139070Y13864070D01*
X20124654Y13879976D01*
X20111866Y13897219D01*
X20100830Y13915632D01*
X20091651Y13935038D01*
X20084419Y13955250D01*
X20079203Y13976074D01*
X20076053Y13997309D01*
X20075000Y14018750D01*
X20075000Y14456250D01*
X20076053Y14477691D01*
X20079203Y14498926D01*
X20084419Y14519750D01*
X20091651Y14539962D01*
X20100830Y14559368D01*
X20111866Y14577781D01*
X20124654Y14595024D01*
X20139070Y14610930D01*
X20154976Y14625346D01*
X20172219Y14638134D01*
X20190632Y14649170D01*
X20210038Y14658349D01*
X20230250Y14665581D01*
X20251074Y14670797D01*
X20272309Y14673947D01*
X20293750Y14675000D01*
X20806250Y14675000D01*
X20827691Y14673947D01*
X20827691Y14673947D01*
G37*
D12*
X20550000Y14237500D03*
D11*
G36*
X20827691Y13098947D02*
X20848926Y13095797D01*
X20869750Y13090581D01*
X20889962Y13083349D01*
X20909368Y13074170D01*
X20927781Y13063134D01*
X20945024Y13050346D01*
X20960930Y13035930D01*
X20975346Y13020024D01*
X20988134Y13002781D01*
X20999170Y12984368D01*
X21008349Y12964962D01*
X21015581Y12944750D01*
X21020797Y12923926D01*
X21023947Y12902691D01*
X21025000Y12881250D01*
X21025000Y12443750D01*
X21023947Y12422309D01*
X21020797Y12401074D01*
X21015581Y12380250D01*
X21008349Y12360038D01*
X20999170Y12340632D01*
X20988134Y12322219D01*
X20975346Y12304976D01*
X20960930Y12289070D01*
X20945024Y12274654D01*
X20927781Y12261866D01*
X20909368Y12250830D01*
X20889962Y12241651D01*
X20869750Y12234419D01*
X20848926Y12229203D01*
X20827691Y12226053D01*
X20806250Y12225000D01*
X20293750Y12225000D01*
X20272309Y12226053D01*
X20251074Y12229203D01*
X20230250Y12234419D01*
X20210038Y12241651D01*
X20190632Y12250830D01*
X20172219Y12261866D01*
X20154976Y12274654D01*
X20139070Y12289070D01*
X20124654Y12304976D01*
X20111866Y12322219D01*
X20100830Y12340632D01*
X20091651Y12360038D01*
X20084419Y12380250D01*
X20079203Y12401074D01*
X20076053Y12422309D01*
X20075000Y12443750D01*
X20075000Y12881250D01*
X20076053Y12902691D01*
X20079203Y12923926D01*
X20084419Y12944750D01*
X20091651Y12964962D01*
X20100830Y12984368D01*
X20111866Y13002781D01*
X20124654Y13020024D01*
X20139070Y13035930D01*
X20154976Y13050346D01*
X20172219Y13063134D01*
X20190632Y13074170D01*
X20210038Y13083349D01*
X20230250Y13090581D01*
X20251074Y13095797D01*
X20272309Y13098947D01*
X20293750Y13100000D01*
X20806250Y13100000D01*
X20827691Y13098947D01*
X20827691Y13098947D01*
G37*
D12*
X20550000Y12662500D03*
G04 #@! TD*
D11*
G04 #@! TO.C,R10*
G36*
X19627691Y14673947D02*
X19648926Y14670797D01*
X19669750Y14665581D01*
X19689962Y14658349D01*
X19709368Y14649170D01*
X19727781Y14638134D01*
X19745024Y14625346D01*
X19760930Y14610930D01*
X19775346Y14595024D01*
X19788134Y14577781D01*
X19799170Y14559368D01*
X19808349Y14539962D01*
X19815581Y14519750D01*
X19820797Y14498926D01*
X19823947Y14477691D01*
X19825000Y14456250D01*
X19825000Y14018750D01*
X19823947Y13997309D01*
X19820797Y13976074D01*
X19815581Y13955250D01*
X19808349Y13935038D01*
X19799170Y13915632D01*
X19788134Y13897219D01*
X19775346Y13879976D01*
X19760930Y13864070D01*
X19745024Y13849654D01*
X19727781Y13836866D01*
X19709368Y13825830D01*
X19689962Y13816651D01*
X19669750Y13809419D01*
X19648926Y13804203D01*
X19627691Y13801053D01*
X19606250Y13800000D01*
X19093750Y13800000D01*
X19072309Y13801053D01*
X19051074Y13804203D01*
X19030250Y13809419D01*
X19010038Y13816651D01*
X18990632Y13825830D01*
X18972219Y13836866D01*
X18954976Y13849654D01*
X18939070Y13864070D01*
X18924654Y13879976D01*
X18911866Y13897219D01*
X18900830Y13915632D01*
X18891651Y13935038D01*
X18884419Y13955250D01*
X18879203Y13976074D01*
X18876053Y13997309D01*
X18875000Y14018750D01*
X18875000Y14456250D01*
X18876053Y14477691D01*
X18879203Y14498926D01*
X18884419Y14519750D01*
X18891651Y14539962D01*
X18900830Y14559368D01*
X18911866Y14577781D01*
X18924654Y14595024D01*
X18939070Y14610930D01*
X18954976Y14625346D01*
X18972219Y14638134D01*
X18990632Y14649170D01*
X19010038Y14658349D01*
X19030250Y14665581D01*
X19051074Y14670797D01*
X19072309Y14673947D01*
X19093750Y14675000D01*
X19606250Y14675000D01*
X19627691Y14673947D01*
X19627691Y14673947D01*
G37*
D12*
X19350000Y14237500D03*
D11*
G36*
X19627691Y13098947D02*
X19648926Y13095797D01*
X19669750Y13090581D01*
X19689962Y13083349D01*
X19709368Y13074170D01*
X19727781Y13063134D01*
X19745024Y13050346D01*
X19760930Y13035930D01*
X19775346Y13020024D01*
X19788134Y13002781D01*
X19799170Y12984368D01*
X19808349Y12964962D01*
X19815581Y12944750D01*
X19820797Y12923926D01*
X19823947Y12902691D01*
X19825000Y12881250D01*
X19825000Y12443750D01*
X19823947Y12422309D01*
X19820797Y12401074D01*
X19815581Y12380250D01*
X19808349Y12360038D01*
X19799170Y12340632D01*
X19788134Y12322219D01*
X19775346Y12304976D01*
X19760930Y12289070D01*
X19745024Y12274654D01*
X19727781Y12261866D01*
X19709368Y12250830D01*
X19689962Y12241651D01*
X19669750Y12234419D01*
X19648926Y12229203D01*
X19627691Y12226053D01*
X19606250Y12225000D01*
X19093750Y12225000D01*
X19072309Y12226053D01*
X19051074Y12229203D01*
X19030250Y12234419D01*
X19010038Y12241651D01*
X18990632Y12250830D01*
X18972219Y12261866D01*
X18954976Y12274654D01*
X18939070Y12289070D01*
X18924654Y12304976D01*
X18911866Y12322219D01*
X18900830Y12340632D01*
X18891651Y12360038D01*
X18884419Y12380250D01*
X18879203Y12401074D01*
X18876053Y12422309D01*
X18875000Y12443750D01*
X18875000Y12881250D01*
X18876053Y12902691D01*
X18879203Y12923926D01*
X18884419Y12944750D01*
X18891651Y12964962D01*
X18900830Y12984368D01*
X18911866Y13002781D01*
X18924654Y13020024D01*
X18939070Y13035930D01*
X18954976Y13050346D01*
X18972219Y13063134D01*
X18990632Y13074170D01*
X19010038Y13083349D01*
X19030250Y13090581D01*
X19051074Y13095797D01*
X19072309Y13098947D01*
X19093750Y13100000D01*
X19606250Y13100000D01*
X19627691Y13098947D01*
X19627691Y13098947D01*
G37*
D12*
X19350000Y12662500D03*
G04 #@! TD*
D11*
G04 #@! TO.C,R15*
G36*
X15747691Y14673947D02*
X15768926Y14670797D01*
X15789750Y14665581D01*
X15809962Y14658349D01*
X15829368Y14649170D01*
X15847781Y14638134D01*
X15865024Y14625346D01*
X15880930Y14610930D01*
X15895346Y14595024D01*
X15908134Y14577781D01*
X15919170Y14559368D01*
X15928349Y14539962D01*
X15935581Y14519750D01*
X15940797Y14498926D01*
X15943947Y14477691D01*
X15945000Y14456250D01*
X15945000Y14018750D01*
X15943947Y13997309D01*
X15940797Y13976074D01*
X15935581Y13955250D01*
X15928349Y13935038D01*
X15919170Y13915632D01*
X15908134Y13897219D01*
X15895346Y13879976D01*
X15880930Y13864070D01*
X15865024Y13849654D01*
X15847781Y13836866D01*
X15829368Y13825830D01*
X15809962Y13816651D01*
X15789750Y13809419D01*
X15768926Y13804203D01*
X15747691Y13801053D01*
X15726250Y13800000D01*
X15213750Y13800000D01*
X15192309Y13801053D01*
X15171074Y13804203D01*
X15150250Y13809419D01*
X15130038Y13816651D01*
X15110632Y13825830D01*
X15092219Y13836866D01*
X15074976Y13849654D01*
X15059070Y13864070D01*
X15044654Y13879976D01*
X15031866Y13897219D01*
X15020830Y13915632D01*
X15011651Y13935038D01*
X15004419Y13955250D01*
X14999203Y13976074D01*
X14996053Y13997309D01*
X14995000Y14018750D01*
X14995000Y14456250D01*
X14996053Y14477691D01*
X14999203Y14498926D01*
X15004419Y14519750D01*
X15011651Y14539962D01*
X15020830Y14559368D01*
X15031866Y14577781D01*
X15044654Y14595024D01*
X15059070Y14610930D01*
X15074976Y14625346D01*
X15092219Y14638134D01*
X15110632Y14649170D01*
X15130038Y14658349D01*
X15150250Y14665581D01*
X15171074Y14670797D01*
X15192309Y14673947D01*
X15213750Y14675000D01*
X15726250Y14675000D01*
X15747691Y14673947D01*
X15747691Y14673947D01*
G37*
D12*
X15470000Y14237500D03*
D11*
G36*
X15747691Y13098947D02*
X15768926Y13095797D01*
X15789750Y13090581D01*
X15809962Y13083349D01*
X15829368Y13074170D01*
X15847781Y13063134D01*
X15865024Y13050346D01*
X15880930Y13035930D01*
X15895346Y13020024D01*
X15908134Y13002781D01*
X15919170Y12984368D01*
X15928349Y12964962D01*
X15935581Y12944750D01*
X15940797Y12923926D01*
X15943947Y12902691D01*
X15945000Y12881250D01*
X15945000Y12443750D01*
X15943947Y12422309D01*
X15940797Y12401074D01*
X15935581Y12380250D01*
X15928349Y12360038D01*
X15919170Y12340632D01*
X15908134Y12322219D01*
X15895346Y12304976D01*
X15880930Y12289070D01*
X15865024Y12274654D01*
X15847781Y12261866D01*
X15829368Y12250830D01*
X15809962Y12241651D01*
X15789750Y12234419D01*
X15768926Y12229203D01*
X15747691Y12226053D01*
X15726250Y12225000D01*
X15213750Y12225000D01*
X15192309Y12226053D01*
X15171074Y12229203D01*
X15150250Y12234419D01*
X15130038Y12241651D01*
X15110632Y12250830D01*
X15092219Y12261866D01*
X15074976Y12274654D01*
X15059070Y12289070D01*
X15044654Y12304976D01*
X15031866Y12322219D01*
X15020830Y12340632D01*
X15011651Y12360038D01*
X15004419Y12380250D01*
X14999203Y12401074D01*
X14996053Y12422309D01*
X14995000Y12443750D01*
X14995000Y12881250D01*
X14996053Y12902691D01*
X14999203Y12923926D01*
X15004419Y12944750D01*
X15011651Y12964962D01*
X15020830Y12984368D01*
X15031866Y13002781D01*
X15044654Y13020024D01*
X15059070Y13035930D01*
X15074976Y13050346D01*
X15092219Y13063134D01*
X15110632Y13074170D01*
X15130038Y13083349D01*
X15150250Y13090581D01*
X15171074Y13095797D01*
X15192309Y13098947D01*
X15213750Y13100000D01*
X15726250Y13100000D01*
X15747691Y13098947D01*
X15747691Y13098947D01*
G37*
D12*
X15470000Y12662500D03*
G04 #@! TD*
D11*
G04 #@! TO.C,R16*
G36*
X14547691Y14673947D02*
X14568926Y14670797D01*
X14589750Y14665581D01*
X14609962Y14658349D01*
X14629368Y14649170D01*
X14647781Y14638134D01*
X14665024Y14625346D01*
X14680930Y14610930D01*
X14695346Y14595024D01*
X14708134Y14577781D01*
X14719170Y14559368D01*
X14728349Y14539962D01*
X14735581Y14519750D01*
X14740797Y14498926D01*
X14743947Y14477691D01*
X14745000Y14456250D01*
X14745000Y14018750D01*
X14743947Y13997309D01*
X14740797Y13976074D01*
X14735581Y13955250D01*
X14728349Y13935038D01*
X14719170Y13915632D01*
X14708134Y13897219D01*
X14695346Y13879976D01*
X14680930Y13864070D01*
X14665024Y13849654D01*
X14647781Y13836866D01*
X14629368Y13825830D01*
X14609962Y13816651D01*
X14589750Y13809419D01*
X14568926Y13804203D01*
X14547691Y13801053D01*
X14526250Y13800000D01*
X14013750Y13800000D01*
X13992309Y13801053D01*
X13971074Y13804203D01*
X13950250Y13809419D01*
X13930038Y13816651D01*
X13910632Y13825830D01*
X13892219Y13836866D01*
X13874976Y13849654D01*
X13859070Y13864070D01*
X13844654Y13879976D01*
X13831866Y13897219D01*
X13820830Y13915632D01*
X13811651Y13935038D01*
X13804419Y13955250D01*
X13799203Y13976074D01*
X13796053Y13997309D01*
X13795000Y14018750D01*
X13795000Y14456250D01*
X13796053Y14477691D01*
X13799203Y14498926D01*
X13804419Y14519750D01*
X13811651Y14539962D01*
X13820830Y14559368D01*
X13831866Y14577781D01*
X13844654Y14595024D01*
X13859070Y14610930D01*
X13874976Y14625346D01*
X13892219Y14638134D01*
X13910632Y14649170D01*
X13930038Y14658349D01*
X13950250Y14665581D01*
X13971074Y14670797D01*
X13992309Y14673947D01*
X14013750Y14675000D01*
X14526250Y14675000D01*
X14547691Y14673947D01*
X14547691Y14673947D01*
G37*
D12*
X14270000Y14237500D03*
D11*
G36*
X14547691Y13098947D02*
X14568926Y13095797D01*
X14589750Y13090581D01*
X14609962Y13083349D01*
X14629368Y13074170D01*
X14647781Y13063134D01*
X14665024Y13050346D01*
X14680930Y13035930D01*
X14695346Y13020024D01*
X14708134Y13002781D01*
X14719170Y12984368D01*
X14728349Y12964962D01*
X14735581Y12944750D01*
X14740797Y12923926D01*
X14743947Y12902691D01*
X14745000Y12881250D01*
X14745000Y12443750D01*
X14743947Y12422309D01*
X14740797Y12401074D01*
X14735581Y12380250D01*
X14728349Y12360038D01*
X14719170Y12340632D01*
X14708134Y12322219D01*
X14695346Y12304976D01*
X14680930Y12289070D01*
X14665024Y12274654D01*
X14647781Y12261866D01*
X14629368Y12250830D01*
X14609962Y12241651D01*
X14589750Y12234419D01*
X14568926Y12229203D01*
X14547691Y12226053D01*
X14526250Y12225000D01*
X14013750Y12225000D01*
X13992309Y12226053D01*
X13971074Y12229203D01*
X13950250Y12234419D01*
X13930038Y12241651D01*
X13910632Y12250830D01*
X13892219Y12261866D01*
X13874976Y12274654D01*
X13859070Y12289070D01*
X13844654Y12304976D01*
X13831866Y12322219D01*
X13820830Y12340632D01*
X13811651Y12360038D01*
X13804419Y12380250D01*
X13799203Y12401074D01*
X13796053Y12422309D01*
X13795000Y12443750D01*
X13795000Y12881250D01*
X13796053Y12902691D01*
X13799203Y12923926D01*
X13804419Y12944750D01*
X13811651Y12964962D01*
X13820830Y12984368D01*
X13831866Y13002781D01*
X13844654Y13020024D01*
X13859070Y13035930D01*
X13874976Y13050346D01*
X13892219Y13063134D01*
X13910632Y13074170D01*
X13930038Y13083349D01*
X13950250Y13090581D01*
X13971074Y13095797D01*
X13992309Y13098947D01*
X14013750Y13100000D01*
X14526250Y13100000D01*
X14547691Y13098947D01*
X14547691Y13098947D01*
G37*
D12*
X14270000Y12662500D03*
G04 #@! TD*
D11*
G04 #@! TO.C,R17*
G36*
X42577691Y7298947D02*
X42598926Y7295797D01*
X42619750Y7290581D01*
X42639962Y7283349D01*
X42659368Y7274170D01*
X42677781Y7263134D01*
X42695024Y7250346D01*
X42710930Y7235930D01*
X42725346Y7220024D01*
X42738134Y7202781D01*
X42749170Y7184368D01*
X42758349Y7164962D01*
X42765581Y7144750D01*
X42770797Y7123926D01*
X42773947Y7102691D01*
X42775000Y7081250D01*
X42775000Y6643750D01*
X42773947Y6622309D01*
X42770797Y6601074D01*
X42765581Y6580250D01*
X42758349Y6560038D01*
X42749170Y6540632D01*
X42738134Y6522219D01*
X42725346Y6504976D01*
X42710930Y6489070D01*
X42695024Y6474654D01*
X42677781Y6461866D01*
X42659368Y6450830D01*
X42639962Y6441651D01*
X42619750Y6434419D01*
X42598926Y6429203D01*
X42577691Y6426053D01*
X42556250Y6425000D01*
X42043750Y6425000D01*
X42022309Y6426053D01*
X42001074Y6429203D01*
X41980250Y6434419D01*
X41960038Y6441651D01*
X41940632Y6450830D01*
X41922219Y6461866D01*
X41904976Y6474654D01*
X41889070Y6489070D01*
X41874654Y6504976D01*
X41861866Y6522219D01*
X41850830Y6540632D01*
X41841651Y6560038D01*
X41834419Y6580250D01*
X41829203Y6601074D01*
X41826053Y6622309D01*
X41825000Y6643750D01*
X41825000Y7081250D01*
X41826053Y7102691D01*
X41829203Y7123926D01*
X41834419Y7144750D01*
X41841651Y7164962D01*
X41850830Y7184368D01*
X41861866Y7202781D01*
X41874654Y7220024D01*
X41889070Y7235930D01*
X41904976Y7250346D01*
X41922219Y7263134D01*
X41940632Y7274170D01*
X41960038Y7283349D01*
X41980250Y7290581D01*
X42001074Y7295797D01*
X42022309Y7298947D01*
X42043750Y7300000D01*
X42556250Y7300000D01*
X42577691Y7298947D01*
X42577691Y7298947D01*
G37*
D12*
X42300000Y6862500D03*
D11*
G36*
X42577691Y8873947D02*
X42598926Y8870797D01*
X42619750Y8865581D01*
X42639962Y8858349D01*
X42659368Y8849170D01*
X42677781Y8838134D01*
X42695024Y8825346D01*
X42710930Y8810930D01*
X42725346Y8795024D01*
X42738134Y8777781D01*
X42749170Y8759368D01*
X42758349Y8739962D01*
X42765581Y8719750D01*
X42770797Y8698926D01*
X42773947Y8677691D01*
X42775000Y8656250D01*
X42775000Y8218750D01*
X42773947Y8197309D01*
X42770797Y8176074D01*
X42765581Y8155250D01*
X42758349Y8135038D01*
X42749170Y8115632D01*
X42738134Y8097219D01*
X42725346Y8079976D01*
X42710930Y8064070D01*
X42695024Y8049654D01*
X42677781Y8036866D01*
X42659368Y8025830D01*
X42639962Y8016651D01*
X42619750Y8009419D01*
X42598926Y8004203D01*
X42577691Y8001053D01*
X42556250Y8000000D01*
X42043750Y8000000D01*
X42022309Y8001053D01*
X42001074Y8004203D01*
X41980250Y8009419D01*
X41960038Y8016651D01*
X41940632Y8025830D01*
X41922219Y8036866D01*
X41904976Y8049654D01*
X41889070Y8064070D01*
X41874654Y8079976D01*
X41861866Y8097219D01*
X41850830Y8115632D01*
X41841651Y8135038D01*
X41834419Y8155250D01*
X41829203Y8176074D01*
X41826053Y8197309D01*
X41825000Y8218750D01*
X41825000Y8656250D01*
X41826053Y8677691D01*
X41829203Y8698926D01*
X41834419Y8719750D01*
X41841651Y8739962D01*
X41850830Y8759368D01*
X41861866Y8777781D01*
X41874654Y8795024D01*
X41889070Y8810930D01*
X41904976Y8825346D01*
X41922219Y8838134D01*
X41940632Y8849170D01*
X41960038Y8858349D01*
X41980250Y8865581D01*
X42001074Y8870797D01*
X42022309Y8873947D01*
X42043750Y8875000D01*
X42556250Y8875000D01*
X42577691Y8873947D01*
X42577691Y8873947D01*
G37*
D12*
X42300000Y8437500D03*
G04 #@! TD*
D13*
G04 #@! TO.C,J8*
X30400000Y7600000D03*
X30800000Y7600000D03*
X31200000Y7600000D03*
X31600000Y7600000D03*
X32000000Y7600000D03*
X32400000Y7600000D03*
X32800000Y7600000D03*
X33200000Y7600000D03*
X33600000Y7600000D03*
X34000000Y7600000D03*
X34400000Y7600000D03*
X34800000Y7600000D03*
X35200000Y7600000D03*
X35600000Y7600000D03*
X36000000Y7600000D03*
X36400000Y7600000D03*
X36800000Y7600000D03*
X37200000Y7600000D03*
X37600000Y7600000D03*
G04 #@! TD*
D14*
G04 #@! TO.C,J3*
X55800000Y9450000D03*
X53800000Y9450000D03*
X51800000Y9450000D03*
X49800000Y9450000D03*
D15*
X47500000Y1950000D03*
X58100000Y1950000D03*
G04 #@! TD*
D11*
G04 #@! TO.C,C12*
G36*
X50252691Y12923947D02*
X50273926Y12920797D01*
X50294750Y12915581D01*
X50314962Y12908349D01*
X50334368Y12899170D01*
X50352781Y12888134D01*
X50370024Y12875346D01*
X50385930Y12860930D01*
X50400346Y12845024D01*
X50413134Y12827781D01*
X50424170Y12809368D01*
X50433349Y12789962D01*
X50440581Y12769750D01*
X50445797Y12748926D01*
X50448947Y12727691D01*
X50450000Y12706250D01*
X50450000Y12193750D01*
X50448947Y12172309D01*
X50445797Y12151074D01*
X50440581Y12130250D01*
X50433349Y12110038D01*
X50424170Y12090632D01*
X50413134Y12072219D01*
X50400346Y12054976D01*
X50385930Y12039070D01*
X50370024Y12024654D01*
X50352781Y12011866D01*
X50334368Y12000830D01*
X50314962Y11991651D01*
X50294750Y11984419D01*
X50273926Y11979203D01*
X50252691Y11976053D01*
X50231250Y11975000D01*
X49793750Y11975000D01*
X49772309Y11976053D01*
X49751074Y11979203D01*
X49730250Y11984419D01*
X49710038Y11991651D01*
X49690632Y12000830D01*
X49672219Y12011866D01*
X49654976Y12024654D01*
X49639070Y12039070D01*
X49624654Y12054976D01*
X49611866Y12072219D01*
X49600830Y12090632D01*
X49591651Y12110038D01*
X49584419Y12130250D01*
X49579203Y12151074D01*
X49576053Y12172309D01*
X49575000Y12193750D01*
X49575000Y12706250D01*
X49576053Y12727691D01*
X49579203Y12748926D01*
X49584419Y12769750D01*
X49591651Y12789962D01*
X49600830Y12809368D01*
X49611866Y12827781D01*
X49624654Y12845024D01*
X49639070Y12860930D01*
X49654976Y12875346D01*
X49672219Y12888134D01*
X49690632Y12899170D01*
X49710038Y12908349D01*
X49730250Y12915581D01*
X49751074Y12920797D01*
X49772309Y12923947D01*
X49793750Y12925000D01*
X50231250Y12925000D01*
X50252691Y12923947D01*
X50252691Y12923947D01*
G37*
D12*
X50012500Y12450000D03*
D11*
G36*
X51827691Y12923947D02*
X51848926Y12920797D01*
X51869750Y12915581D01*
X51889962Y12908349D01*
X51909368Y12899170D01*
X51927781Y12888134D01*
X51945024Y12875346D01*
X51960930Y12860930D01*
X51975346Y12845024D01*
X51988134Y12827781D01*
X51999170Y12809368D01*
X52008349Y12789962D01*
X52015581Y12769750D01*
X52020797Y12748926D01*
X52023947Y12727691D01*
X52025000Y12706250D01*
X52025000Y12193750D01*
X52023947Y12172309D01*
X52020797Y12151074D01*
X52015581Y12130250D01*
X52008349Y12110038D01*
X51999170Y12090632D01*
X51988134Y12072219D01*
X51975346Y12054976D01*
X51960930Y12039070D01*
X51945024Y12024654D01*
X51927781Y12011866D01*
X51909368Y12000830D01*
X51889962Y11991651D01*
X51869750Y11984419D01*
X51848926Y11979203D01*
X51827691Y11976053D01*
X51806250Y11975000D01*
X51368750Y11975000D01*
X51347309Y11976053D01*
X51326074Y11979203D01*
X51305250Y11984419D01*
X51285038Y11991651D01*
X51265632Y12000830D01*
X51247219Y12011866D01*
X51229976Y12024654D01*
X51214070Y12039070D01*
X51199654Y12054976D01*
X51186866Y12072219D01*
X51175830Y12090632D01*
X51166651Y12110038D01*
X51159419Y12130250D01*
X51154203Y12151074D01*
X51151053Y12172309D01*
X51150000Y12193750D01*
X51150000Y12706250D01*
X51151053Y12727691D01*
X51154203Y12748926D01*
X51159419Y12769750D01*
X51166651Y12789962D01*
X51175830Y12809368D01*
X51186866Y12827781D01*
X51199654Y12845024D01*
X51214070Y12860930D01*
X51229976Y12875346D01*
X51247219Y12888134D01*
X51265632Y12899170D01*
X51285038Y12908349D01*
X51305250Y12915581D01*
X51326074Y12920797D01*
X51347309Y12923947D01*
X51368750Y12925000D01*
X51806250Y12925000D01*
X51827691Y12923947D01*
X51827691Y12923947D01*
G37*
D12*
X51587500Y12450000D03*
G04 #@! TD*
M02*
