G04 #@! TF.GenerationSoftware,KiCad,Pcbnew,(5.0.0)*
G04 #@! TF.CreationDate,2020-07-13T01:16:36+09:00*
G04 #@! TF.ProjectId,WioTerminal_TangNano,57696F5465726D696E616C5F54616E67,rev?*
G04 #@! TF.SameCoordinates,Original*
G04 #@! TF.FileFunction,Legend,Top*
G04 #@! TF.FilePolarity,Positive*
%FSLAX46Y46*%
G04 Gerber Fmt 4.6, Leading zero omitted, Abs format (unit mm)*
G04 Created by KiCad (PCBNEW (5.0.0)) date 07/13/20 01:16:36*
%MOMM*%
%LPD*%
G01*
G04 APERTURE LIST*
%ADD10C,0.120000*%
%ADD11C,0.150000*%
G04 APERTURE END LIST*
D10*
G04 #@! TO.C,J1*
X56350000Y44100000D02*
X57370000Y44100000D01*
X56350000Y38900000D02*
X57370000Y38900000D01*
X53810000Y44100000D02*
X54830000Y44100000D01*
X53810000Y38900000D02*
X54830000Y38900000D01*
X51270000Y44100000D02*
X52290000Y44100000D01*
X51270000Y38900000D02*
X52290000Y38900000D01*
X48730000Y44100000D02*
X49750000Y44100000D01*
X48730000Y38900000D02*
X49750000Y38900000D01*
X46190000Y44100000D02*
X47210000Y44100000D01*
X46190000Y38900000D02*
X47210000Y38900000D01*
X43650000Y44100000D02*
X44670000Y44100000D01*
X43650000Y38900000D02*
X44670000Y38900000D01*
X41110000Y44100000D02*
X42130000Y44100000D01*
X41110000Y38900000D02*
X42130000Y38900000D01*
X38570000Y44100000D02*
X39590000Y44100000D01*
X38570000Y38900000D02*
X39590000Y38900000D01*
X36030000Y44100000D02*
X37050000Y44100000D01*
X36030000Y38900000D02*
X37050000Y38900000D01*
X33490000Y44100000D02*
X34510000Y44100000D01*
X33490000Y38900000D02*
X34510000Y38900000D01*
X30950000Y44100000D02*
X31970000Y44100000D01*
X30950000Y38900000D02*
X31970000Y38900000D01*
X28410000Y44100000D02*
X29430000Y44100000D01*
X28410000Y38900000D02*
X29430000Y38900000D01*
X25870000Y44100000D02*
X26890000Y44100000D01*
X25870000Y38900000D02*
X26890000Y38900000D01*
X23330000Y44100000D02*
X24350000Y44100000D01*
X23330000Y38900000D02*
X24350000Y38900000D01*
X20790000Y44100000D02*
X21810000Y44100000D01*
X20790000Y38900000D02*
X21810000Y38900000D01*
X18250000Y44100000D02*
X19270000Y44100000D01*
X18250000Y38900000D02*
X19270000Y38900000D01*
X15710000Y44100000D02*
X16730000Y44100000D01*
X15710000Y38900000D02*
X16730000Y38900000D01*
X13170000Y44100000D02*
X14190000Y44100000D01*
X13170000Y38900000D02*
X14190000Y38900000D01*
X10630000Y44100000D02*
X11650000Y44100000D01*
X10630000Y38900000D02*
X11650000Y38900000D01*
X58890000Y44100000D02*
X59460000Y44100000D01*
X58890000Y38900000D02*
X59460000Y38900000D01*
X8540000Y44100000D02*
X9110000Y44100000D01*
X8540000Y38900000D02*
X9110000Y38900000D01*
X9110000Y37460000D02*
X9110000Y38900000D01*
X59460000Y38900000D02*
X59460000Y44100000D01*
X8540000Y38900000D02*
X8540000Y44100000D01*
G04 #@! TO.C,R5*
X31220000Y13287221D02*
X31220000Y13612779D01*
X30200000Y13287221D02*
X30200000Y13612779D01*
G04 #@! TO.C,R6*
X30020000Y13287221D02*
X30020000Y13612779D01*
X29000000Y13287221D02*
X29000000Y13612779D01*
G04 #@! TO.C,R7*
X26140000Y13287221D02*
X26140000Y13612779D01*
X25120000Y13287221D02*
X25120000Y13612779D01*
G04 #@! TO.C,R8*
X24940000Y13287221D02*
X24940000Y13612779D01*
X23920000Y13287221D02*
X23920000Y13612779D01*
G04 #@! TO.C,R9*
X21060000Y13287221D02*
X21060000Y13612779D01*
X20040000Y13287221D02*
X20040000Y13612779D01*
G04 #@! TO.C,R10*
X19860000Y13287221D02*
X19860000Y13612779D01*
X18840000Y13287221D02*
X18840000Y13612779D01*
G04 #@! TO.C,R15*
X15980000Y13287221D02*
X15980000Y13612779D01*
X14960000Y13287221D02*
X14960000Y13612779D01*
G04 #@! TO.C,R16*
X14780000Y13287221D02*
X14780000Y13612779D01*
X13760000Y13287221D02*
X13760000Y13612779D01*
G04 #@! TO.C,R17*
X41790000Y7812779D02*
X41790000Y7487221D01*
X42810000Y7812779D02*
X42810000Y7487221D01*
D11*
G04 #@! TO.C,J8*
X37400000Y9000000D02*
X37800000Y9000000D01*
X37800000Y9000000D02*
X37600000Y8600000D01*
X37600000Y8600000D02*
X37400000Y9000000D01*
X37400000Y9000000D02*
X37500000Y8900000D01*
X37500000Y8900000D02*
X37600000Y8900000D01*
X37600000Y8900000D02*
X37600000Y8800000D01*
G04 #@! TO.C,J3*
X55800000Y11750000D02*
X56300000Y12750000D01*
X56300000Y12750000D02*
X55300000Y12750000D01*
X55300000Y12750000D02*
X55800000Y11750000D01*
X55700000Y11950000D02*
X55900000Y11950000D01*
X55900000Y11950000D02*
X55700000Y12050000D01*
X55700000Y12050000D02*
X55900000Y12050000D01*
X55900000Y12050000D02*
X55600000Y12150000D01*
X55600000Y12150000D02*
X56000000Y12150000D01*
X56000000Y12150000D02*
X55600000Y12250000D01*
X55600000Y12250000D02*
X56000000Y12250000D01*
X56000000Y12250000D02*
X55500000Y12350000D01*
X55500000Y12350000D02*
X56100000Y12350000D01*
X56100000Y12350000D02*
X55500000Y12450000D01*
X55500000Y12450000D02*
X56100000Y12450000D01*
X56100000Y12450000D02*
X55400000Y12550000D01*
X55400000Y12550000D02*
X56200000Y12550000D01*
X56200000Y12550000D02*
X55400000Y12650000D01*
X55400000Y12650000D02*
X56200000Y12650000D01*
D10*
G04 #@! TO.C,C12*
X50962779Y12960000D02*
X50637221Y12960000D01*
X50962779Y11940000D02*
X50637221Y11940000D01*
G04 #@! TO.C,J2*
X12268753Y34067358D02*
X12268753Y35397358D01*
X12268753Y35397358D02*
X13598753Y35397358D01*
X14868753Y35397358D02*
X63188753Y35397358D01*
X63188753Y32737358D02*
X63188753Y35397358D01*
X14868753Y32737358D02*
X63188753Y32737358D01*
X14868753Y32737358D02*
X14868753Y35397358D01*
G04 #@! TO.C,J6*
X14868753Y14957358D02*
X14868753Y17617358D01*
X14868753Y14957358D02*
X63188753Y14957358D01*
X63188753Y14957358D02*
X63188753Y17617358D01*
X14868753Y17617358D02*
X63188753Y17617358D01*
X12268753Y17617358D02*
X13598753Y17617358D01*
X12268753Y16287358D02*
X12268753Y17617358D01*
G04 #@! TO.C,J4*
X5460000Y11160000D02*
X5460000Y34140000D01*
X5460000Y34140000D02*
X2800000Y34140000D01*
X2800000Y34140000D02*
X2800000Y11160000D01*
X2800000Y11160000D02*
X5460000Y11160000D01*
X2800000Y12110000D02*
X-3200000Y12110000D01*
X-3200000Y12110000D02*
X-3200000Y12870000D01*
X-3200000Y12870000D02*
X2800000Y12870000D01*
X2800000Y12170000D02*
X-3200000Y12170000D01*
X2800000Y12290000D02*
X-3200000Y12290000D01*
X2800000Y12410000D02*
X-3200000Y12410000D01*
X2800000Y12530000D02*
X-3200000Y12530000D01*
X2800000Y12650000D02*
X-3200000Y12650000D01*
X2800000Y12770000D02*
X-3200000Y12770000D01*
X5857071Y12110000D02*
X5460000Y12110000D01*
X5857071Y12870000D02*
X5460000Y12870000D01*
X8330000Y12110000D02*
X7942929Y12110000D01*
X8330000Y12870000D02*
X7942929Y12870000D01*
X5460000Y13760000D02*
X2800000Y13760000D01*
X2800000Y14650000D02*
X-3200000Y14650000D01*
X-3200000Y14650000D02*
X-3200000Y15410000D01*
X-3200000Y15410000D02*
X2800000Y15410000D01*
X5857071Y14650000D02*
X5460000Y14650000D01*
X5857071Y15410000D02*
X5460000Y15410000D01*
X8397071Y14650000D02*
X7942929Y14650000D01*
X8397071Y15410000D02*
X7942929Y15410000D01*
X5460000Y16300000D02*
X2800000Y16300000D01*
X2800000Y17190000D02*
X-3200000Y17190000D01*
X-3200000Y17190000D02*
X-3200000Y17950000D01*
X-3200000Y17950000D02*
X2800000Y17950000D01*
X5857071Y17190000D02*
X5460000Y17190000D01*
X5857071Y17950000D02*
X5460000Y17950000D01*
X8397071Y17190000D02*
X7942929Y17190000D01*
X8397071Y17950000D02*
X7942929Y17950000D01*
X5460000Y18840000D02*
X2800000Y18840000D01*
X2800000Y19730000D02*
X-3200000Y19730000D01*
X-3200000Y19730000D02*
X-3200000Y20490000D01*
X-3200000Y20490000D02*
X2800000Y20490000D01*
X5857071Y19730000D02*
X5460000Y19730000D01*
X5857071Y20490000D02*
X5460000Y20490000D01*
X8397071Y19730000D02*
X7942929Y19730000D01*
X8397071Y20490000D02*
X7942929Y20490000D01*
X5460000Y21380000D02*
X2800000Y21380000D01*
X2800000Y22270000D02*
X-3200000Y22270000D01*
X-3200000Y22270000D02*
X-3200000Y23030000D01*
X-3200000Y23030000D02*
X2800000Y23030000D01*
X5857071Y22270000D02*
X5460000Y22270000D01*
X5857071Y23030000D02*
X5460000Y23030000D01*
X8397071Y22270000D02*
X7942929Y22270000D01*
X8397071Y23030000D02*
X7942929Y23030000D01*
X5460000Y23920000D02*
X2800000Y23920000D01*
X2800000Y24810000D02*
X-3200000Y24810000D01*
X-3200000Y24810000D02*
X-3200000Y25570000D01*
X-3200000Y25570000D02*
X2800000Y25570000D01*
X5857071Y24810000D02*
X5460000Y24810000D01*
X5857071Y25570000D02*
X5460000Y25570000D01*
X8397071Y24810000D02*
X7942929Y24810000D01*
X8397071Y25570000D02*
X7942929Y25570000D01*
X5460000Y26460000D02*
X2800000Y26460000D01*
X2800000Y27350000D02*
X-3200000Y27350000D01*
X-3200000Y27350000D02*
X-3200000Y28110000D01*
X-3200000Y28110000D02*
X2800000Y28110000D01*
X5857071Y27350000D02*
X5460000Y27350000D01*
X5857071Y28110000D02*
X5460000Y28110000D01*
X8397071Y27350000D02*
X7942929Y27350000D01*
X8397071Y28110000D02*
X7942929Y28110000D01*
X5460000Y29000000D02*
X2800000Y29000000D01*
X2800000Y29890000D02*
X-3200000Y29890000D01*
X-3200000Y29890000D02*
X-3200000Y30650000D01*
X-3200000Y30650000D02*
X2800000Y30650000D01*
X5857071Y29890000D02*
X5460000Y29890000D01*
X5857071Y30650000D02*
X5460000Y30650000D01*
X8397071Y29890000D02*
X7942929Y29890000D01*
X8397071Y30650000D02*
X7942929Y30650000D01*
X5460000Y31540000D02*
X2800000Y31540000D01*
X2800000Y32430000D02*
X-3200000Y32430000D01*
X-3200000Y32430000D02*
X-3200000Y33190000D01*
X-3200000Y33190000D02*
X2800000Y33190000D01*
X5857071Y32430000D02*
X5460000Y32430000D01*
X5857071Y33190000D02*
X5460000Y33190000D01*
X8397071Y32430000D02*
X7942929Y32430000D01*
X8397071Y33190000D02*
X7942929Y33190000D01*
X10710000Y12490000D02*
X10710000Y11220000D01*
X10710000Y11220000D02*
X9440000Y11220000D01*
G04 #@! TO.C,J5*
X64398753Y30197358D02*
X63068753Y30197358D01*
X63068753Y30197358D02*
X63068753Y31527358D01*
X63068753Y32797358D02*
X63068753Y35397358D01*
X65728753Y35397358D02*
X63068753Y35397358D01*
X65728753Y32797358D02*
X65728753Y35397358D01*
X65728753Y32797358D02*
X63068753Y32797358D01*
G04 #@! TO.C,J7*
X65728753Y17557358D02*
X63068753Y17557358D01*
X65728753Y17557358D02*
X65728753Y20157358D01*
X65728753Y20157358D02*
X63068753Y20157358D01*
X63068753Y17557358D02*
X63068753Y20157358D01*
X63068753Y14957358D02*
X63068753Y16287358D01*
X64398753Y14957358D02*
X63068753Y14957358D01*
G04 #@! TO.C,J1*
D11*
X6992380Y41166666D02*
X7706666Y41166666D01*
X7849523Y41119047D01*
X7944761Y41023809D01*
X7992380Y40880952D01*
X7992380Y40785714D01*
X7992380Y42166666D02*
X7992380Y41595238D01*
X7992380Y41880952D02*
X6992380Y41880952D01*
X7135238Y41785714D01*
X7230476Y41690476D01*
X7278095Y41595238D01*
G04 #@! TO.C,R5*
X29732380Y13283333D02*
X29256190Y12950000D01*
X29732380Y12711904D02*
X28732380Y12711904D01*
X28732380Y13092857D01*
X28780000Y13188095D01*
X28827619Y13235714D01*
X28922857Y13283333D01*
X29065714Y13283333D01*
X29160952Y13235714D01*
X29208571Y13188095D01*
X29256190Y13092857D01*
X29256190Y12711904D01*
X28732380Y14188095D02*
X28732380Y13711904D01*
X29208571Y13664285D01*
X29160952Y13711904D01*
X29113333Y13807142D01*
X29113333Y14045238D01*
X29160952Y14140476D01*
X29208571Y14188095D01*
X29303809Y14235714D01*
X29541904Y14235714D01*
X29637142Y14188095D01*
X29684761Y14140476D01*
X29732380Y14045238D01*
X29732380Y13807142D01*
X29684761Y13711904D01*
X29637142Y13664285D01*
G04 #@! TO.C,R6*
X28532380Y13283333D02*
X28056190Y12950000D01*
X28532380Y12711904D02*
X27532380Y12711904D01*
X27532380Y13092857D01*
X27580000Y13188095D01*
X27627619Y13235714D01*
X27722857Y13283333D01*
X27865714Y13283333D01*
X27960952Y13235714D01*
X28008571Y13188095D01*
X28056190Y13092857D01*
X28056190Y12711904D01*
X27532380Y14140476D02*
X27532380Y13950000D01*
X27580000Y13854761D01*
X27627619Y13807142D01*
X27770476Y13711904D01*
X27960952Y13664285D01*
X28341904Y13664285D01*
X28437142Y13711904D01*
X28484761Y13759523D01*
X28532380Y13854761D01*
X28532380Y14045238D01*
X28484761Y14140476D01*
X28437142Y14188095D01*
X28341904Y14235714D01*
X28103809Y14235714D01*
X28008571Y14188095D01*
X27960952Y14140476D01*
X27913333Y14045238D01*
X27913333Y13854761D01*
X27960952Y13759523D01*
X28008571Y13711904D01*
X28103809Y13664285D01*
G04 #@! TO.C,R7*
X24652380Y13283333D02*
X24176190Y12950000D01*
X24652380Y12711904D02*
X23652380Y12711904D01*
X23652380Y13092857D01*
X23700000Y13188095D01*
X23747619Y13235714D01*
X23842857Y13283333D01*
X23985714Y13283333D01*
X24080952Y13235714D01*
X24128571Y13188095D01*
X24176190Y13092857D01*
X24176190Y12711904D01*
X23652380Y13616666D02*
X23652380Y14283333D01*
X24652380Y13854761D01*
G04 #@! TO.C,R8*
X23452380Y13283333D02*
X22976190Y12950000D01*
X23452380Y12711904D02*
X22452380Y12711904D01*
X22452380Y13092857D01*
X22500000Y13188095D01*
X22547619Y13235714D01*
X22642857Y13283333D01*
X22785714Y13283333D01*
X22880952Y13235714D01*
X22928571Y13188095D01*
X22976190Y13092857D01*
X22976190Y12711904D01*
X22880952Y13854761D02*
X22833333Y13759523D01*
X22785714Y13711904D01*
X22690476Y13664285D01*
X22642857Y13664285D01*
X22547619Y13711904D01*
X22500000Y13759523D01*
X22452380Y13854761D01*
X22452380Y14045238D01*
X22500000Y14140476D01*
X22547619Y14188095D01*
X22642857Y14235714D01*
X22690476Y14235714D01*
X22785714Y14188095D01*
X22833333Y14140476D01*
X22880952Y14045238D01*
X22880952Y13854761D01*
X22928571Y13759523D01*
X22976190Y13711904D01*
X23071428Y13664285D01*
X23261904Y13664285D01*
X23357142Y13711904D01*
X23404761Y13759523D01*
X23452380Y13854761D01*
X23452380Y14045238D01*
X23404761Y14140476D01*
X23357142Y14188095D01*
X23261904Y14235714D01*
X23071428Y14235714D01*
X22976190Y14188095D01*
X22928571Y14140476D01*
X22880952Y14045238D01*
G04 #@! TO.C,R9*
X19572380Y13283333D02*
X19096190Y12950000D01*
X19572380Y12711904D02*
X18572380Y12711904D01*
X18572380Y13092857D01*
X18620000Y13188095D01*
X18667619Y13235714D01*
X18762857Y13283333D01*
X18905714Y13283333D01*
X19000952Y13235714D01*
X19048571Y13188095D01*
X19096190Y13092857D01*
X19096190Y12711904D01*
X19572380Y13759523D02*
X19572380Y13950000D01*
X19524761Y14045238D01*
X19477142Y14092857D01*
X19334285Y14188095D01*
X19143809Y14235714D01*
X18762857Y14235714D01*
X18667619Y14188095D01*
X18620000Y14140476D01*
X18572380Y14045238D01*
X18572380Y13854761D01*
X18620000Y13759523D01*
X18667619Y13711904D01*
X18762857Y13664285D01*
X19000952Y13664285D01*
X19096190Y13711904D01*
X19143809Y13759523D01*
X19191428Y13854761D01*
X19191428Y14045238D01*
X19143809Y14140476D01*
X19096190Y14188095D01*
X19000952Y14235714D01*
G04 #@! TO.C,R10*
X18372380Y12807142D02*
X17896190Y12473809D01*
X18372380Y12235714D02*
X17372380Y12235714D01*
X17372380Y12616666D01*
X17420000Y12711904D01*
X17467619Y12759523D01*
X17562857Y12807142D01*
X17705714Y12807142D01*
X17800952Y12759523D01*
X17848571Y12711904D01*
X17896190Y12616666D01*
X17896190Y12235714D01*
X18372380Y13759523D02*
X18372380Y13188095D01*
X18372380Y13473809D02*
X17372380Y13473809D01*
X17515238Y13378571D01*
X17610476Y13283333D01*
X17658095Y13188095D01*
X17372380Y14378571D02*
X17372380Y14473809D01*
X17420000Y14569047D01*
X17467619Y14616666D01*
X17562857Y14664285D01*
X17753333Y14711904D01*
X17991428Y14711904D01*
X18181904Y14664285D01*
X18277142Y14616666D01*
X18324761Y14569047D01*
X18372380Y14473809D01*
X18372380Y14378571D01*
X18324761Y14283333D01*
X18277142Y14235714D01*
X18181904Y14188095D01*
X17991428Y14140476D01*
X17753333Y14140476D01*
X17562857Y14188095D01*
X17467619Y14235714D01*
X17420000Y14283333D01*
X17372380Y14378571D01*
G04 #@! TO.C,R15*
X14492380Y12807142D02*
X14016190Y12473809D01*
X14492380Y12235714D02*
X13492380Y12235714D01*
X13492380Y12616666D01*
X13540000Y12711904D01*
X13587619Y12759523D01*
X13682857Y12807142D01*
X13825714Y12807142D01*
X13920952Y12759523D01*
X13968571Y12711904D01*
X14016190Y12616666D01*
X14016190Y12235714D01*
X14492380Y13759523D02*
X14492380Y13188095D01*
X14492380Y13473809D02*
X13492380Y13473809D01*
X13635238Y13378571D01*
X13730476Y13283333D01*
X13778095Y13188095D01*
X13492380Y14664285D02*
X13492380Y14188095D01*
X13968571Y14140476D01*
X13920952Y14188095D01*
X13873333Y14283333D01*
X13873333Y14521428D01*
X13920952Y14616666D01*
X13968571Y14664285D01*
X14063809Y14711904D01*
X14301904Y14711904D01*
X14397142Y14664285D01*
X14444761Y14616666D01*
X14492380Y14521428D01*
X14492380Y14283333D01*
X14444761Y14188095D01*
X14397142Y14140476D01*
G04 #@! TO.C,R16*
X13292380Y12807142D02*
X12816190Y12473809D01*
X13292380Y12235714D02*
X12292380Y12235714D01*
X12292380Y12616666D01*
X12340000Y12711904D01*
X12387619Y12759523D01*
X12482857Y12807142D01*
X12625714Y12807142D01*
X12720952Y12759523D01*
X12768571Y12711904D01*
X12816190Y12616666D01*
X12816190Y12235714D01*
X13292380Y13759523D02*
X13292380Y13188095D01*
X13292380Y13473809D02*
X12292380Y13473809D01*
X12435238Y13378571D01*
X12530476Y13283333D01*
X12578095Y13188095D01*
X12292380Y14616666D02*
X12292380Y14426190D01*
X12340000Y14330952D01*
X12387619Y14283333D01*
X12530476Y14188095D01*
X12720952Y14140476D01*
X13101904Y14140476D01*
X13197142Y14188095D01*
X13244761Y14235714D01*
X13292380Y14330952D01*
X13292380Y14521428D01*
X13244761Y14616666D01*
X13197142Y14664285D01*
X13101904Y14711904D01*
X12863809Y14711904D01*
X12768571Y14664285D01*
X12720952Y14616666D01*
X12673333Y14521428D01*
X12673333Y14330952D01*
X12720952Y14235714D01*
X12768571Y14188095D01*
X12863809Y14140476D01*
G04 #@! TO.C,R17*
X44182380Y7007142D02*
X43706190Y6673809D01*
X44182380Y6435714D02*
X43182380Y6435714D01*
X43182380Y6816666D01*
X43230000Y6911904D01*
X43277619Y6959523D01*
X43372857Y7007142D01*
X43515714Y7007142D01*
X43610952Y6959523D01*
X43658571Y6911904D01*
X43706190Y6816666D01*
X43706190Y6435714D01*
X44182380Y7959523D02*
X44182380Y7388095D01*
X44182380Y7673809D02*
X43182380Y7673809D01*
X43325238Y7578571D01*
X43420476Y7483333D01*
X43468095Y7388095D01*
X43182380Y8292857D02*
X43182380Y8959523D01*
X44182380Y8530952D01*
G04 #@! TO.C,J8*
X37866666Y10397619D02*
X37866666Y9683333D01*
X37819047Y9540476D01*
X37723809Y9445238D01*
X37580952Y9397619D01*
X37485714Y9397619D01*
X38485714Y9969047D02*
X38390476Y10016666D01*
X38342857Y10064285D01*
X38295238Y10159523D01*
X38295238Y10207142D01*
X38342857Y10302380D01*
X38390476Y10350000D01*
X38485714Y10397619D01*
X38676190Y10397619D01*
X38771428Y10350000D01*
X38819047Y10302380D01*
X38866666Y10207142D01*
X38866666Y10159523D01*
X38819047Y10064285D01*
X38771428Y10016666D01*
X38676190Y9969047D01*
X38485714Y9969047D01*
X38390476Y9921428D01*
X38342857Y9873809D01*
X38295238Y9778571D01*
X38295238Y9588095D01*
X38342857Y9492857D01*
X38390476Y9445238D01*
X38485714Y9397619D01*
X38676190Y9397619D01*
X38771428Y9445238D01*
X38819047Y9492857D01*
X38866666Y9588095D01*
X38866666Y9778571D01*
X38819047Y9873809D01*
X38771428Y9921428D01*
X38676190Y9969047D01*
G04 #@! TO.C,J3*
X56966666Y12797619D02*
X56966666Y12083333D01*
X56919047Y11940476D01*
X56823809Y11845238D01*
X56680952Y11797619D01*
X56585714Y11797619D01*
X57347619Y12797619D02*
X57966666Y12797619D01*
X57633333Y12416666D01*
X57776190Y12416666D01*
X57871428Y12369047D01*
X57919047Y12321428D01*
X57966666Y12226190D01*
X57966666Y11988095D01*
X57919047Y11892857D01*
X57871428Y11845238D01*
X57776190Y11797619D01*
X57490476Y11797619D01*
X57395238Y11845238D01*
X57347619Y11892857D01*
G04 #@! TO.C,C12*
X50157142Y13592857D02*
X50109523Y13545238D01*
X49966666Y13497619D01*
X49871428Y13497619D01*
X49728571Y13545238D01*
X49633333Y13640476D01*
X49585714Y13735714D01*
X49538095Y13926190D01*
X49538095Y14069047D01*
X49585714Y14259523D01*
X49633333Y14354761D01*
X49728571Y14450000D01*
X49871428Y14497619D01*
X49966666Y14497619D01*
X50109523Y14450000D01*
X50157142Y14402380D01*
X51109523Y13497619D02*
X50538095Y13497619D01*
X50823809Y13497619D02*
X50823809Y14497619D01*
X50728571Y14354761D01*
X50633333Y14259523D01*
X50538095Y14211904D01*
X51490476Y14402380D02*
X51538095Y14450000D01*
X51633333Y14497619D01*
X51871428Y14497619D01*
X51966666Y14450000D01*
X52014285Y14402380D01*
X52061904Y14307142D01*
X52061904Y14211904D01*
X52014285Y14069047D01*
X51442857Y13497619D01*
X52061904Y13497619D01*
G04 #@! TO.C,J2*
X10281133Y33734024D02*
X10995419Y33734024D01*
X11138276Y33686405D01*
X11233514Y33591167D01*
X11281133Y33448310D01*
X11281133Y33353072D01*
X10376372Y34162596D02*
X10328753Y34210215D01*
X10281133Y34305453D01*
X10281133Y34543548D01*
X10328753Y34638786D01*
X10376372Y34686405D01*
X10471610Y34734024D01*
X10566848Y34734024D01*
X10709705Y34686405D01*
X11281133Y34114977D01*
X11281133Y34734024D01*
G04 #@! TO.C,J6*
X10281133Y15954024D02*
X10995419Y15954024D01*
X11138276Y15906405D01*
X11233514Y15811167D01*
X11281133Y15668310D01*
X11281133Y15573072D01*
X10281133Y16858786D02*
X10281133Y16668310D01*
X10328753Y16573072D01*
X10376372Y16525453D01*
X10519229Y16430215D01*
X10709705Y16382596D01*
X11090657Y16382596D01*
X11185895Y16430215D01*
X11233514Y16477834D01*
X11281133Y16573072D01*
X11281133Y16763548D01*
X11233514Y16858786D01*
X11185895Y16906405D01*
X11090657Y16954024D01*
X10852562Y16954024D01*
X10757324Y16906405D01*
X10709705Y16858786D01*
X10662086Y16763548D01*
X10662086Y16573072D01*
X10709705Y16477834D01*
X10757324Y16430215D01*
X10852562Y16382596D01*
G04 #@! TO.C,J4*
X3451666Y10767619D02*
X3451666Y10053333D01*
X3404047Y9910476D01*
X3308809Y9815238D01*
X3165952Y9767619D01*
X3070714Y9767619D01*
X4356428Y10434285D02*
X4356428Y9767619D01*
X4118333Y10815238D02*
X3880238Y10100952D01*
X4499285Y10100952D01*
G04 #@! TO.C,J5*
X64065419Y29304977D02*
X64065419Y28590691D01*
X64017800Y28447834D01*
X63922562Y28352596D01*
X63779705Y28304977D01*
X63684467Y28304977D01*
X65017800Y29304977D02*
X64541610Y29304977D01*
X64493991Y28828786D01*
X64541610Y28876405D01*
X64636848Y28924024D01*
X64874943Y28924024D01*
X64970181Y28876405D01*
X65017800Y28828786D01*
X65065419Y28733548D01*
X65065419Y28495453D01*
X65017800Y28400215D01*
X64970181Y28352596D01*
X64874943Y28304977D01*
X64636848Y28304977D01*
X64541610Y28352596D01*
X64493991Y28400215D01*
G04 #@! TO.C,J7*
X64065419Y14064977D02*
X64065419Y13350691D01*
X64017800Y13207834D01*
X63922562Y13112596D01*
X63779705Y13064977D01*
X63684467Y13064977D01*
X64446372Y14064977D02*
X65113038Y14064977D01*
X64684467Y13064977D01*
G04 #@! TD*
M02*
