G04 #@! TF.GenerationSoftware,KiCad,Pcbnew,(5.0.0)*
G04 #@! TF.CreationDate,2020-06-15T03:47:07+09:00*
G04 #@! TF.ProjectId,WioTerminal_TangNano,57696F5465726D696E616C5F54616E67,rev?*
G04 #@! TF.SameCoordinates,Original*
G04 #@! TF.FileFunction,Soldermask,Top*
G04 #@! TF.FilePolarity,Negative*
%FSLAX46Y46*%
G04 Gerber Fmt 4.6, Leading zero omitted, Abs format (unit mm)*
G04 Created by KiCad (PCBNEW (5.0.0)) date 06/15/20 03:47:07*
%MOMM*%
%LPD*%
G01*
G04 APERTURE LIST*
%ADD10R,1.400000X3.800000*%
%ADD11R,1.900000X4.000000*%
%ADD12C,0.100000*%
%ADD13C,1.275000*%
%ADD14R,0.620000X1.600000*%
%ADD15C,1.400000*%
%ADD16O,1.650000X2.400000*%
%ADD17C,0.990000*%
%ADD18C,2.600000*%
%ADD19R,1.400000X3.550000*%
%ADD20O,2.100000X2.100000*%
%ADD21O,1.800000X2.100000*%
%ADD22R,2.100000X2.100000*%
G04 APERTURE END LIST*
D10*
G04 #@! TO.C,J3*
X55800000Y9450000D03*
X53800000Y9450000D03*
X51800000Y9450000D03*
X49800000Y9450000D03*
D11*
X47500000Y1950000D03*
X58100000Y1950000D03*
G04 #@! TD*
D12*
G04 #@! TO.C,C12*
G36*
X50362493Y13123465D02*
X50393435Y13118875D01*
X50423778Y13111275D01*
X50453230Y13100737D01*
X50481508Y13087362D01*
X50508338Y13071281D01*
X50533463Y13052647D01*
X50556640Y13031640D01*
X50577647Y13008463D01*
X50596281Y12983338D01*
X50612362Y12956508D01*
X50625737Y12928230D01*
X50636275Y12898778D01*
X50643875Y12868435D01*
X50648465Y12837493D01*
X50650000Y12806250D01*
X50650000Y12093750D01*
X50648465Y12062507D01*
X50643875Y12031565D01*
X50636275Y12001222D01*
X50625737Y11971770D01*
X50612362Y11943492D01*
X50596281Y11916662D01*
X50577647Y11891537D01*
X50556640Y11868360D01*
X50533463Y11847353D01*
X50508338Y11828719D01*
X50481508Y11812638D01*
X50453230Y11799263D01*
X50423778Y11788725D01*
X50393435Y11781125D01*
X50362493Y11776535D01*
X50331250Y11775000D01*
X49693750Y11775000D01*
X49662507Y11776535D01*
X49631565Y11781125D01*
X49601222Y11788725D01*
X49571770Y11799263D01*
X49543492Y11812638D01*
X49516662Y11828719D01*
X49491537Y11847353D01*
X49468360Y11868360D01*
X49447353Y11891537D01*
X49428719Y11916662D01*
X49412638Y11943492D01*
X49399263Y11971770D01*
X49388725Y12001222D01*
X49381125Y12031565D01*
X49376535Y12062507D01*
X49375000Y12093750D01*
X49375000Y12806250D01*
X49376535Y12837493D01*
X49381125Y12868435D01*
X49388725Y12898778D01*
X49399263Y12928230D01*
X49412638Y12956508D01*
X49428719Y12983338D01*
X49447353Y13008463D01*
X49468360Y13031640D01*
X49491537Y13052647D01*
X49516662Y13071281D01*
X49543492Y13087362D01*
X49571770Y13100737D01*
X49601222Y13111275D01*
X49631565Y13118875D01*
X49662507Y13123465D01*
X49693750Y13125000D01*
X50331250Y13125000D01*
X50362493Y13123465D01*
X50362493Y13123465D01*
G37*
D13*
X50012500Y12450000D03*
D12*
G36*
X51937493Y13123465D02*
X51968435Y13118875D01*
X51998778Y13111275D01*
X52028230Y13100737D01*
X52056508Y13087362D01*
X52083338Y13071281D01*
X52108463Y13052647D01*
X52131640Y13031640D01*
X52152647Y13008463D01*
X52171281Y12983338D01*
X52187362Y12956508D01*
X52200737Y12928230D01*
X52211275Y12898778D01*
X52218875Y12868435D01*
X52223465Y12837493D01*
X52225000Y12806250D01*
X52225000Y12093750D01*
X52223465Y12062507D01*
X52218875Y12031565D01*
X52211275Y12001222D01*
X52200737Y11971770D01*
X52187362Y11943492D01*
X52171281Y11916662D01*
X52152647Y11891537D01*
X52131640Y11868360D01*
X52108463Y11847353D01*
X52083338Y11828719D01*
X52056508Y11812638D01*
X52028230Y11799263D01*
X51998778Y11788725D01*
X51968435Y11781125D01*
X51937493Y11776535D01*
X51906250Y11775000D01*
X51268750Y11775000D01*
X51237507Y11776535D01*
X51206565Y11781125D01*
X51176222Y11788725D01*
X51146770Y11799263D01*
X51118492Y11812638D01*
X51091662Y11828719D01*
X51066537Y11847353D01*
X51043360Y11868360D01*
X51022353Y11891537D01*
X51003719Y11916662D01*
X50987638Y11943492D01*
X50974263Y11971770D01*
X50963725Y12001222D01*
X50956125Y12031565D01*
X50951535Y12062507D01*
X50950000Y12093750D01*
X50950000Y12806250D01*
X50951535Y12837493D01*
X50956125Y12868435D01*
X50963725Y12898778D01*
X50974263Y12928230D01*
X50987638Y12956508D01*
X51003719Y12983338D01*
X51022353Y13008463D01*
X51043360Y13031640D01*
X51066537Y13052647D01*
X51091662Y13071281D01*
X51118492Y13087362D01*
X51146770Y13100737D01*
X51176222Y13111275D01*
X51206565Y13118875D01*
X51237507Y13123465D01*
X51268750Y13125000D01*
X51906250Y13125000D01*
X51937493Y13123465D01*
X51937493Y13123465D01*
G37*
D13*
X51587500Y12450000D03*
G04 #@! TD*
D14*
G04 #@! TO.C,J8*
X30400000Y7600000D03*
X30800000Y7600000D03*
X31200000Y7600000D03*
X31600000Y7600000D03*
X32000000Y7600000D03*
X32400000Y7600000D03*
X32800000Y7600000D03*
X33200000Y7600000D03*
X33600000Y7600000D03*
X34000000Y7600000D03*
X34400000Y7600000D03*
X34800000Y7600000D03*
X35200000Y7600000D03*
X35600000Y7600000D03*
X36000000Y7600000D03*
X36400000Y7600000D03*
X36800000Y7600000D03*
X37200000Y7600000D03*
X37600000Y7600000D03*
D15*
X37750000Y5500000D03*
X30250000Y5500000D03*
D16*
X28575000Y6300000D03*
X39425000Y6300000D03*
X28575000Y1800000D03*
X39425000Y1800000D03*
G04 #@! TD*
D12*
G04 #@! TO.C,R5*
G36*
X31006759Y13458808D02*
X31030785Y13455244D01*
X31054345Y13449343D01*
X31077214Y13441160D01*
X31099171Y13430776D01*
X31120004Y13418289D01*
X31139512Y13403820D01*
X31157509Y13387509D01*
X31173820Y13369512D01*
X31188289Y13350004D01*
X31200776Y13329171D01*
X31211160Y13307214D01*
X31219343Y13284345D01*
X31225244Y13260785D01*
X31228808Y13236759D01*
X31230000Y13212500D01*
X31230000Y12717500D01*
X31228808Y12693241D01*
X31225244Y12669215D01*
X31219343Y12645655D01*
X31211160Y12622786D01*
X31200776Y12600829D01*
X31188289Y12579996D01*
X31173820Y12560488D01*
X31157509Y12542491D01*
X31139512Y12526180D01*
X31120004Y12511711D01*
X31099171Y12499224D01*
X31077214Y12488840D01*
X31054345Y12480657D01*
X31030785Y12474756D01*
X31006759Y12471192D01*
X30982500Y12470000D01*
X30437500Y12470000D01*
X30413241Y12471192D01*
X30389215Y12474756D01*
X30365655Y12480657D01*
X30342786Y12488840D01*
X30320829Y12499224D01*
X30299996Y12511711D01*
X30280488Y12526180D01*
X30262491Y12542491D01*
X30246180Y12560488D01*
X30231711Y12579996D01*
X30219224Y12600829D01*
X30208840Y12622786D01*
X30200657Y12645655D01*
X30194756Y12669215D01*
X30191192Y12693241D01*
X30190000Y12717500D01*
X30190000Y13212500D01*
X30191192Y13236759D01*
X30194756Y13260785D01*
X30200657Y13284345D01*
X30208840Y13307214D01*
X30219224Y13329171D01*
X30231711Y13350004D01*
X30246180Y13369512D01*
X30262491Y13387509D01*
X30280488Y13403820D01*
X30299996Y13418289D01*
X30320829Y13430776D01*
X30342786Y13441160D01*
X30365655Y13449343D01*
X30389215Y13455244D01*
X30413241Y13458808D01*
X30437500Y13460000D01*
X30982500Y13460000D01*
X31006759Y13458808D01*
X31006759Y13458808D01*
G37*
D17*
X30710000Y12965000D03*
D12*
G36*
X31006759Y14428808D02*
X31030785Y14425244D01*
X31054345Y14419343D01*
X31077214Y14411160D01*
X31099171Y14400776D01*
X31120004Y14388289D01*
X31139512Y14373820D01*
X31157509Y14357509D01*
X31173820Y14339512D01*
X31188289Y14320004D01*
X31200776Y14299171D01*
X31211160Y14277214D01*
X31219343Y14254345D01*
X31225244Y14230785D01*
X31228808Y14206759D01*
X31230000Y14182500D01*
X31230000Y13687500D01*
X31228808Y13663241D01*
X31225244Y13639215D01*
X31219343Y13615655D01*
X31211160Y13592786D01*
X31200776Y13570829D01*
X31188289Y13549996D01*
X31173820Y13530488D01*
X31157509Y13512491D01*
X31139512Y13496180D01*
X31120004Y13481711D01*
X31099171Y13469224D01*
X31077214Y13458840D01*
X31054345Y13450657D01*
X31030785Y13444756D01*
X31006759Y13441192D01*
X30982500Y13440000D01*
X30437500Y13440000D01*
X30413241Y13441192D01*
X30389215Y13444756D01*
X30365655Y13450657D01*
X30342786Y13458840D01*
X30320829Y13469224D01*
X30299996Y13481711D01*
X30280488Y13496180D01*
X30262491Y13512491D01*
X30246180Y13530488D01*
X30231711Y13549996D01*
X30219224Y13570829D01*
X30208840Y13592786D01*
X30200657Y13615655D01*
X30194756Y13639215D01*
X30191192Y13663241D01*
X30190000Y13687500D01*
X30190000Y14182500D01*
X30191192Y14206759D01*
X30194756Y14230785D01*
X30200657Y14254345D01*
X30208840Y14277214D01*
X30219224Y14299171D01*
X30231711Y14320004D01*
X30246180Y14339512D01*
X30262491Y14357509D01*
X30280488Y14373820D01*
X30299996Y14388289D01*
X30320829Y14400776D01*
X30342786Y14411160D01*
X30365655Y14419343D01*
X30389215Y14425244D01*
X30413241Y14428808D01*
X30437500Y14430000D01*
X30982500Y14430000D01*
X31006759Y14428808D01*
X31006759Y14428808D01*
G37*
D17*
X30710000Y13935000D03*
G04 #@! TD*
D12*
G04 #@! TO.C,R6*
G36*
X29806759Y14428808D02*
X29830785Y14425244D01*
X29854345Y14419343D01*
X29877214Y14411160D01*
X29899171Y14400776D01*
X29920004Y14388289D01*
X29939512Y14373820D01*
X29957509Y14357509D01*
X29973820Y14339512D01*
X29988289Y14320004D01*
X30000776Y14299171D01*
X30011160Y14277214D01*
X30019343Y14254345D01*
X30025244Y14230785D01*
X30028808Y14206759D01*
X30030000Y14182500D01*
X30030000Y13687500D01*
X30028808Y13663241D01*
X30025244Y13639215D01*
X30019343Y13615655D01*
X30011160Y13592786D01*
X30000776Y13570829D01*
X29988289Y13549996D01*
X29973820Y13530488D01*
X29957509Y13512491D01*
X29939512Y13496180D01*
X29920004Y13481711D01*
X29899171Y13469224D01*
X29877214Y13458840D01*
X29854345Y13450657D01*
X29830785Y13444756D01*
X29806759Y13441192D01*
X29782500Y13440000D01*
X29237500Y13440000D01*
X29213241Y13441192D01*
X29189215Y13444756D01*
X29165655Y13450657D01*
X29142786Y13458840D01*
X29120829Y13469224D01*
X29099996Y13481711D01*
X29080488Y13496180D01*
X29062491Y13512491D01*
X29046180Y13530488D01*
X29031711Y13549996D01*
X29019224Y13570829D01*
X29008840Y13592786D01*
X29000657Y13615655D01*
X28994756Y13639215D01*
X28991192Y13663241D01*
X28990000Y13687500D01*
X28990000Y14182500D01*
X28991192Y14206759D01*
X28994756Y14230785D01*
X29000657Y14254345D01*
X29008840Y14277214D01*
X29019224Y14299171D01*
X29031711Y14320004D01*
X29046180Y14339512D01*
X29062491Y14357509D01*
X29080488Y14373820D01*
X29099996Y14388289D01*
X29120829Y14400776D01*
X29142786Y14411160D01*
X29165655Y14419343D01*
X29189215Y14425244D01*
X29213241Y14428808D01*
X29237500Y14430000D01*
X29782500Y14430000D01*
X29806759Y14428808D01*
X29806759Y14428808D01*
G37*
D17*
X29510000Y13935000D03*
D12*
G36*
X29806759Y13458808D02*
X29830785Y13455244D01*
X29854345Y13449343D01*
X29877214Y13441160D01*
X29899171Y13430776D01*
X29920004Y13418289D01*
X29939512Y13403820D01*
X29957509Y13387509D01*
X29973820Y13369512D01*
X29988289Y13350004D01*
X30000776Y13329171D01*
X30011160Y13307214D01*
X30019343Y13284345D01*
X30025244Y13260785D01*
X30028808Y13236759D01*
X30030000Y13212500D01*
X30030000Y12717500D01*
X30028808Y12693241D01*
X30025244Y12669215D01*
X30019343Y12645655D01*
X30011160Y12622786D01*
X30000776Y12600829D01*
X29988289Y12579996D01*
X29973820Y12560488D01*
X29957509Y12542491D01*
X29939512Y12526180D01*
X29920004Y12511711D01*
X29899171Y12499224D01*
X29877214Y12488840D01*
X29854345Y12480657D01*
X29830785Y12474756D01*
X29806759Y12471192D01*
X29782500Y12470000D01*
X29237500Y12470000D01*
X29213241Y12471192D01*
X29189215Y12474756D01*
X29165655Y12480657D01*
X29142786Y12488840D01*
X29120829Y12499224D01*
X29099996Y12511711D01*
X29080488Y12526180D01*
X29062491Y12542491D01*
X29046180Y12560488D01*
X29031711Y12579996D01*
X29019224Y12600829D01*
X29008840Y12622786D01*
X29000657Y12645655D01*
X28994756Y12669215D01*
X28991192Y12693241D01*
X28990000Y12717500D01*
X28990000Y13212500D01*
X28991192Y13236759D01*
X28994756Y13260785D01*
X29000657Y13284345D01*
X29008840Y13307214D01*
X29019224Y13329171D01*
X29031711Y13350004D01*
X29046180Y13369512D01*
X29062491Y13387509D01*
X29080488Y13403820D01*
X29099996Y13418289D01*
X29120829Y13430776D01*
X29142786Y13441160D01*
X29165655Y13449343D01*
X29189215Y13455244D01*
X29213241Y13458808D01*
X29237500Y13460000D01*
X29782500Y13460000D01*
X29806759Y13458808D01*
X29806759Y13458808D01*
G37*
D17*
X29510000Y12965000D03*
G04 #@! TD*
D12*
G04 #@! TO.C,R7*
G36*
X25926759Y14428808D02*
X25950785Y14425244D01*
X25974345Y14419343D01*
X25997214Y14411160D01*
X26019171Y14400776D01*
X26040004Y14388289D01*
X26059512Y14373820D01*
X26077509Y14357509D01*
X26093820Y14339512D01*
X26108289Y14320004D01*
X26120776Y14299171D01*
X26131160Y14277214D01*
X26139343Y14254345D01*
X26145244Y14230785D01*
X26148808Y14206759D01*
X26150000Y14182500D01*
X26150000Y13687500D01*
X26148808Y13663241D01*
X26145244Y13639215D01*
X26139343Y13615655D01*
X26131160Y13592786D01*
X26120776Y13570829D01*
X26108289Y13549996D01*
X26093820Y13530488D01*
X26077509Y13512491D01*
X26059512Y13496180D01*
X26040004Y13481711D01*
X26019171Y13469224D01*
X25997214Y13458840D01*
X25974345Y13450657D01*
X25950785Y13444756D01*
X25926759Y13441192D01*
X25902500Y13440000D01*
X25357500Y13440000D01*
X25333241Y13441192D01*
X25309215Y13444756D01*
X25285655Y13450657D01*
X25262786Y13458840D01*
X25240829Y13469224D01*
X25219996Y13481711D01*
X25200488Y13496180D01*
X25182491Y13512491D01*
X25166180Y13530488D01*
X25151711Y13549996D01*
X25139224Y13570829D01*
X25128840Y13592786D01*
X25120657Y13615655D01*
X25114756Y13639215D01*
X25111192Y13663241D01*
X25110000Y13687500D01*
X25110000Y14182500D01*
X25111192Y14206759D01*
X25114756Y14230785D01*
X25120657Y14254345D01*
X25128840Y14277214D01*
X25139224Y14299171D01*
X25151711Y14320004D01*
X25166180Y14339512D01*
X25182491Y14357509D01*
X25200488Y14373820D01*
X25219996Y14388289D01*
X25240829Y14400776D01*
X25262786Y14411160D01*
X25285655Y14419343D01*
X25309215Y14425244D01*
X25333241Y14428808D01*
X25357500Y14430000D01*
X25902500Y14430000D01*
X25926759Y14428808D01*
X25926759Y14428808D01*
G37*
D17*
X25630000Y13935000D03*
D12*
G36*
X25926759Y13458808D02*
X25950785Y13455244D01*
X25974345Y13449343D01*
X25997214Y13441160D01*
X26019171Y13430776D01*
X26040004Y13418289D01*
X26059512Y13403820D01*
X26077509Y13387509D01*
X26093820Y13369512D01*
X26108289Y13350004D01*
X26120776Y13329171D01*
X26131160Y13307214D01*
X26139343Y13284345D01*
X26145244Y13260785D01*
X26148808Y13236759D01*
X26150000Y13212500D01*
X26150000Y12717500D01*
X26148808Y12693241D01*
X26145244Y12669215D01*
X26139343Y12645655D01*
X26131160Y12622786D01*
X26120776Y12600829D01*
X26108289Y12579996D01*
X26093820Y12560488D01*
X26077509Y12542491D01*
X26059512Y12526180D01*
X26040004Y12511711D01*
X26019171Y12499224D01*
X25997214Y12488840D01*
X25974345Y12480657D01*
X25950785Y12474756D01*
X25926759Y12471192D01*
X25902500Y12470000D01*
X25357500Y12470000D01*
X25333241Y12471192D01*
X25309215Y12474756D01*
X25285655Y12480657D01*
X25262786Y12488840D01*
X25240829Y12499224D01*
X25219996Y12511711D01*
X25200488Y12526180D01*
X25182491Y12542491D01*
X25166180Y12560488D01*
X25151711Y12579996D01*
X25139224Y12600829D01*
X25128840Y12622786D01*
X25120657Y12645655D01*
X25114756Y12669215D01*
X25111192Y12693241D01*
X25110000Y12717500D01*
X25110000Y13212500D01*
X25111192Y13236759D01*
X25114756Y13260785D01*
X25120657Y13284345D01*
X25128840Y13307214D01*
X25139224Y13329171D01*
X25151711Y13350004D01*
X25166180Y13369512D01*
X25182491Y13387509D01*
X25200488Y13403820D01*
X25219996Y13418289D01*
X25240829Y13430776D01*
X25262786Y13441160D01*
X25285655Y13449343D01*
X25309215Y13455244D01*
X25333241Y13458808D01*
X25357500Y13460000D01*
X25902500Y13460000D01*
X25926759Y13458808D01*
X25926759Y13458808D01*
G37*
D17*
X25630000Y12965000D03*
G04 #@! TD*
D12*
G04 #@! TO.C,R8*
G36*
X24726759Y13458808D02*
X24750785Y13455244D01*
X24774345Y13449343D01*
X24797214Y13441160D01*
X24819171Y13430776D01*
X24840004Y13418289D01*
X24859512Y13403820D01*
X24877509Y13387509D01*
X24893820Y13369512D01*
X24908289Y13350004D01*
X24920776Y13329171D01*
X24931160Y13307214D01*
X24939343Y13284345D01*
X24945244Y13260785D01*
X24948808Y13236759D01*
X24950000Y13212500D01*
X24950000Y12717500D01*
X24948808Y12693241D01*
X24945244Y12669215D01*
X24939343Y12645655D01*
X24931160Y12622786D01*
X24920776Y12600829D01*
X24908289Y12579996D01*
X24893820Y12560488D01*
X24877509Y12542491D01*
X24859512Y12526180D01*
X24840004Y12511711D01*
X24819171Y12499224D01*
X24797214Y12488840D01*
X24774345Y12480657D01*
X24750785Y12474756D01*
X24726759Y12471192D01*
X24702500Y12470000D01*
X24157500Y12470000D01*
X24133241Y12471192D01*
X24109215Y12474756D01*
X24085655Y12480657D01*
X24062786Y12488840D01*
X24040829Y12499224D01*
X24019996Y12511711D01*
X24000488Y12526180D01*
X23982491Y12542491D01*
X23966180Y12560488D01*
X23951711Y12579996D01*
X23939224Y12600829D01*
X23928840Y12622786D01*
X23920657Y12645655D01*
X23914756Y12669215D01*
X23911192Y12693241D01*
X23910000Y12717500D01*
X23910000Y13212500D01*
X23911192Y13236759D01*
X23914756Y13260785D01*
X23920657Y13284345D01*
X23928840Y13307214D01*
X23939224Y13329171D01*
X23951711Y13350004D01*
X23966180Y13369512D01*
X23982491Y13387509D01*
X24000488Y13403820D01*
X24019996Y13418289D01*
X24040829Y13430776D01*
X24062786Y13441160D01*
X24085655Y13449343D01*
X24109215Y13455244D01*
X24133241Y13458808D01*
X24157500Y13460000D01*
X24702500Y13460000D01*
X24726759Y13458808D01*
X24726759Y13458808D01*
G37*
D17*
X24430000Y12965000D03*
D12*
G36*
X24726759Y14428808D02*
X24750785Y14425244D01*
X24774345Y14419343D01*
X24797214Y14411160D01*
X24819171Y14400776D01*
X24840004Y14388289D01*
X24859512Y14373820D01*
X24877509Y14357509D01*
X24893820Y14339512D01*
X24908289Y14320004D01*
X24920776Y14299171D01*
X24931160Y14277214D01*
X24939343Y14254345D01*
X24945244Y14230785D01*
X24948808Y14206759D01*
X24950000Y14182500D01*
X24950000Y13687500D01*
X24948808Y13663241D01*
X24945244Y13639215D01*
X24939343Y13615655D01*
X24931160Y13592786D01*
X24920776Y13570829D01*
X24908289Y13549996D01*
X24893820Y13530488D01*
X24877509Y13512491D01*
X24859512Y13496180D01*
X24840004Y13481711D01*
X24819171Y13469224D01*
X24797214Y13458840D01*
X24774345Y13450657D01*
X24750785Y13444756D01*
X24726759Y13441192D01*
X24702500Y13440000D01*
X24157500Y13440000D01*
X24133241Y13441192D01*
X24109215Y13444756D01*
X24085655Y13450657D01*
X24062786Y13458840D01*
X24040829Y13469224D01*
X24019996Y13481711D01*
X24000488Y13496180D01*
X23982491Y13512491D01*
X23966180Y13530488D01*
X23951711Y13549996D01*
X23939224Y13570829D01*
X23928840Y13592786D01*
X23920657Y13615655D01*
X23914756Y13639215D01*
X23911192Y13663241D01*
X23910000Y13687500D01*
X23910000Y14182500D01*
X23911192Y14206759D01*
X23914756Y14230785D01*
X23920657Y14254345D01*
X23928840Y14277214D01*
X23939224Y14299171D01*
X23951711Y14320004D01*
X23966180Y14339512D01*
X23982491Y14357509D01*
X24000488Y14373820D01*
X24019996Y14388289D01*
X24040829Y14400776D01*
X24062786Y14411160D01*
X24085655Y14419343D01*
X24109215Y14425244D01*
X24133241Y14428808D01*
X24157500Y14430000D01*
X24702500Y14430000D01*
X24726759Y14428808D01*
X24726759Y14428808D01*
G37*
D17*
X24430000Y13935000D03*
G04 #@! TD*
D12*
G04 #@! TO.C,R9*
G36*
X20846759Y14428808D02*
X20870785Y14425244D01*
X20894345Y14419343D01*
X20917214Y14411160D01*
X20939171Y14400776D01*
X20960004Y14388289D01*
X20979512Y14373820D01*
X20997509Y14357509D01*
X21013820Y14339512D01*
X21028289Y14320004D01*
X21040776Y14299171D01*
X21051160Y14277214D01*
X21059343Y14254345D01*
X21065244Y14230785D01*
X21068808Y14206759D01*
X21070000Y14182500D01*
X21070000Y13687500D01*
X21068808Y13663241D01*
X21065244Y13639215D01*
X21059343Y13615655D01*
X21051160Y13592786D01*
X21040776Y13570829D01*
X21028289Y13549996D01*
X21013820Y13530488D01*
X20997509Y13512491D01*
X20979512Y13496180D01*
X20960004Y13481711D01*
X20939171Y13469224D01*
X20917214Y13458840D01*
X20894345Y13450657D01*
X20870785Y13444756D01*
X20846759Y13441192D01*
X20822500Y13440000D01*
X20277500Y13440000D01*
X20253241Y13441192D01*
X20229215Y13444756D01*
X20205655Y13450657D01*
X20182786Y13458840D01*
X20160829Y13469224D01*
X20139996Y13481711D01*
X20120488Y13496180D01*
X20102491Y13512491D01*
X20086180Y13530488D01*
X20071711Y13549996D01*
X20059224Y13570829D01*
X20048840Y13592786D01*
X20040657Y13615655D01*
X20034756Y13639215D01*
X20031192Y13663241D01*
X20030000Y13687500D01*
X20030000Y14182500D01*
X20031192Y14206759D01*
X20034756Y14230785D01*
X20040657Y14254345D01*
X20048840Y14277214D01*
X20059224Y14299171D01*
X20071711Y14320004D01*
X20086180Y14339512D01*
X20102491Y14357509D01*
X20120488Y14373820D01*
X20139996Y14388289D01*
X20160829Y14400776D01*
X20182786Y14411160D01*
X20205655Y14419343D01*
X20229215Y14425244D01*
X20253241Y14428808D01*
X20277500Y14430000D01*
X20822500Y14430000D01*
X20846759Y14428808D01*
X20846759Y14428808D01*
G37*
D17*
X20550000Y13935000D03*
D12*
G36*
X20846759Y13458808D02*
X20870785Y13455244D01*
X20894345Y13449343D01*
X20917214Y13441160D01*
X20939171Y13430776D01*
X20960004Y13418289D01*
X20979512Y13403820D01*
X20997509Y13387509D01*
X21013820Y13369512D01*
X21028289Y13350004D01*
X21040776Y13329171D01*
X21051160Y13307214D01*
X21059343Y13284345D01*
X21065244Y13260785D01*
X21068808Y13236759D01*
X21070000Y13212500D01*
X21070000Y12717500D01*
X21068808Y12693241D01*
X21065244Y12669215D01*
X21059343Y12645655D01*
X21051160Y12622786D01*
X21040776Y12600829D01*
X21028289Y12579996D01*
X21013820Y12560488D01*
X20997509Y12542491D01*
X20979512Y12526180D01*
X20960004Y12511711D01*
X20939171Y12499224D01*
X20917214Y12488840D01*
X20894345Y12480657D01*
X20870785Y12474756D01*
X20846759Y12471192D01*
X20822500Y12470000D01*
X20277500Y12470000D01*
X20253241Y12471192D01*
X20229215Y12474756D01*
X20205655Y12480657D01*
X20182786Y12488840D01*
X20160829Y12499224D01*
X20139996Y12511711D01*
X20120488Y12526180D01*
X20102491Y12542491D01*
X20086180Y12560488D01*
X20071711Y12579996D01*
X20059224Y12600829D01*
X20048840Y12622786D01*
X20040657Y12645655D01*
X20034756Y12669215D01*
X20031192Y12693241D01*
X20030000Y12717500D01*
X20030000Y13212500D01*
X20031192Y13236759D01*
X20034756Y13260785D01*
X20040657Y13284345D01*
X20048840Y13307214D01*
X20059224Y13329171D01*
X20071711Y13350004D01*
X20086180Y13369512D01*
X20102491Y13387509D01*
X20120488Y13403820D01*
X20139996Y13418289D01*
X20160829Y13430776D01*
X20182786Y13441160D01*
X20205655Y13449343D01*
X20229215Y13455244D01*
X20253241Y13458808D01*
X20277500Y13460000D01*
X20822500Y13460000D01*
X20846759Y13458808D01*
X20846759Y13458808D01*
G37*
D17*
X20550000Y12965000D03*
G04 #@! TD*
D12*
G04 #@! TO.C,R10*
G36*
X19646759Y13458808D02*
X19670785Y13455244D01*
X19694345Y13449343D01*
X19717214Y13441160D01*
X19739171Y13430776D01*
X19760004Y13418289D01*
X19779512Y13403820D01*
X19797509Y13387509D01*
X19813820Y13369512D01*
X19828289Y13350004D01*
X19840776Y13329171D01*
X19851160Y13307214D01*
X19859343Y13284345D01*
X19865244Y13260785D01*
X19868808Y13236759D01*
X19870000Y13212500D01*
X19870000Y12717500D01*
X19868808Y12693241D01*
X19865244Y12669215D01*
X19859343Y12645655D01*
X19851160Y12622786D01*
X19840776Y12600829D01*
X19828289Y12579996D01*
X19813820Y12560488D01*
X19797509Y12542491D01*
X19779512Y12526180D01*
X19760004Y12511711D01*
X19739171Y12499224D01*
X19717214Y12488840D01*
X19694345Y12480657D01*
X19670785Y12474756D01*
X19646759Y12471192D01*
X19622500Y12470000D01*
X19077500Y12470000D01*
X19053241Y12471192D01*
X19029215Y12474756D01*
X19005655Y12480657D01*
X18982786Y12488840D01*
X18960829Y12499224D01*
X18939996Y12511711D01*
X18920488Y12526180D01*
X18902491Y12542491D01*
X18886180Y12560488D01*
X18871711Y12579996D01*
X18859224Y12600829D01*
X18848840Y12622786D01*
X18840657Y12645655D01*
X18834756Y12669215D01*
X18831192Y12693241D01*
X18830000Y12717500D01*
X18830000Y13212500D01*
X18831192Y13236759D01*
X18834756Y13260785D01*
X18840657Y13284345D01*
X18848840Y13307214D01*
X18859224Y13329171D01*
X18871711Y13350004D01*
X18886180Y13369512D01*
X18902491Y13387509D01*
X18920488Y13403820D01*
X18939996Y13418289D01*
X18960829Y13430776D01*
X18982786Y13441160D01*
X19005655Y13449343D01*
X19029215Y13455244D01*
X19053241Y13458808D01*
X19077500Y13460000D01*
X19622500Y13460000D01*
X19646759Y13458808D01*
X19646759Y13458808D01*
G37*
D17*
X19350000Y12965000D03*
D12*
G36*
X19646759Y14428808D02*
X19670785Y14425244D01*
X19694345Y14419343D01*
X19717214Y14411160D01*
X19739171Y14400776D01*
X19760004Y14388289D01*
X19779512Y14373820D01*
X19797509Y14357509D01*
X19813820Y14339512D01*
X19828289Y14320004D01*
X19840776Y14299171D01*
X19851160Y14277214D01*
X19859343Y14254345D01*
X19865244Y14230785D01*
X19868808Y14206759D01*
X19870000Y14182500D01*
X19870000Y13687500D01*
X19868808Y13663241D01*
X19865244Y13639215D01*
X19859343Y13615655D01*
X19851160Y13592786D01*
X19840776Y13570829D01*
X19828289Y13549996D01*
X19813820Y13530488D01*
X19797509Y13512491D01*
X19779512Y13496180D01*
X19760004Y13481711D01*
X19739171Y13469224D01*
X19717214Y13458840D01*
X19694345Y13450657D01*
X19670785Y13444756D01*
X19646759Y13441192D01*
X19622500Y13440000D01*
X19077500Y13440000D01*
X19053241Y13441192D01*
X19029215Y13444756D01*
X19005655Y13450657D01*
X18982786Y13458840D01*
X18960829Y13469224D01*
X18939996Y13481711D01*
X18920488Y13496180D01*
X18902491Y13512491D01*
X18886180Y13530488D01*
X18871711Y13549996D01*
X18859224Y13570829D01*
X18848840Y13592786D01*
X18840657Y13615655D01*
X18834756Y13639215D01*
X18831192Y13663241D01*
X18830000Y13687500D01*
X18830000Y14182500D01*
X18831192Y14206759D01*
X18834756Y14230785D01*
X18840657Y14254345D01*
X18848840Y14277214D01*
X18859224Y14299171D01*
X18871711Y14320004D01*
X18886180Y14339512D01*
X18902491Y14357509D01*
X18920488Y14373820D01*
X18939996Y14388289D01*
X18960829Y14400776D01*
X18982786Y14411160D01*
X19005655Y14419343D01*
X19029215Y14425244D01*
X19053241Y14428808D01*
X19077500Y14430000D01*
X19622500Y14430000D01*
X19646759Y14428808D01*
X19646759Y14428808D01*
G37*
D17*
X19350000Y13935000D03*
G04 #@! TD*
D12*
G04 #@! TO.C,R15*
G36*
X15766759Y14428808D02*
X15790785Y14425244D01*
X15814345Y14419343D01*
X15837214Y14411160D01*
X15859171Y14400776D01*
X15880004Y14388289D01*
X15899512Y14373820D01*
X15917509Y14357509D01*
X15933820Y14339512D01*
X15948289Y14320004D01*
X15960776Y14299171D01*
X15971160Y14277214D01*
X15979343Y14254345D01*
X15985244Y14230785D01*
X15988808Y14206759D01*
X15990000Y14182500D01*
X15990000Y13687500D01*
X15988808Y13663241D01*
X15985244Y13639215D01*
X15979343Y13615655D01*
X15971160Y13592786D01*
X15960776Y13570829D01*
X15948289Y13549996D01*
X15933820Y13530488D01*
X15917509Y13512491D01*
X15899512Y13496180D01*
X15880004Y13481711D01*
X15859171Y13469224D01*
X15837214Y13458840D01*
X15814345Y13450657D01*
X15790785Y13444756D01*
X15766759Y13441192D01*
X15742500Y13440000D01*
X15197500Y13440000D01*
X15173241Y13441192D01*
X15149215Y13444756D01*
X15125655Y13450657D01*
X15102786Y13458840D01*
X15080829Y13469224D01*
X15059996Y13481711D01*
X15040488Y13496180D01*
X15022491Y13512491D01*
X15006180Y13530488D01*
X14991711Y13549996D01*
X14979224Y13570829D01*
X14968840Y13592786D01*
X14960657Y13615655D01*
X14954756Y13639215D01*
X14951192Y13663241D01*
X14950000Y13687500D01*
X14950000Y14182500D01*
X14951192Y14206759D01*
X14954756Y14230785D01*
X14960657Y14254345D01*
X14968840Y14277214D01*
X14979224Y14299171D01*
X14991711Y14320004D01*
X15006180Y14339512D01*
X15022491Y14357509D01*
X15040488Y14373820D01*
X15059996Y14388289D01*
X15080829Y14400776D01*
X15102786Y14411160D01*
X15125655Y14419343D01*
X15149215Y14425244D01*
X15173241Y14428808D01*
X15197500Y14430000D01*
X15742500Y14430000D01*
X15766759Y14428808D01*
X15766759Y14428808D01*
G37*
D17*
X15470000Y13935000D03*
D12*
G36*
X15766759Y13458808D02*
X15790785Y13455244D01*
X15814345Y13449343D01*
X15837214Y13441160D01*
X15859171Y13430776D01*
X15880004Y13418289D01*
X15899512Y13403820D01*
X15917509Y13387509D01*
X15933820Y13369512D01*
X15948289Y13350004D01*
X15960776Y13329171D01*
X15971160Y13307214D01*
X15979343Y13284345D01*
X15985244Y13260785D01*
X15988808Y13236759D01*
X15990000Y13212500D01*
X15990000Y12717500D01*
X15988808Y12693241D01*
X15985244Y12669215D01*
X15979343Y12645655D01*
X15971160Y12622786D01*
X15960776Y12600829D01*
X15948289Y12579996D01*
X15933820Y12560488D01*
X15917509Y12542491D01*
X15899512Y12526180D01*
X15880004Y12511711D01*
X15859171Y12499224D01*
X15837214Y12488840D01*
X15814345Y12480657D01*
X15790785Y12474756D01*
X15766759Y12471192D01*
X15742500Y12470000D01*
X15197500Y12470000D01*
X15173241Y12471192D01*
X15149215Y12474756D01*
X15125655Y12480657D01*
X15102786Y12488840D01*
X15080829Y12499224D01*
X15059996Y12511711D01*
X15040488Y12526180D01*
X15022491Y12542491D01*
X15006180Y12560488D01*
X14991711Y12579996D01*
X14979224Y12600829D01*
X14968840Y12622786D01*
X14960657Y12645655D01*
X14954756Y12669215D01*
X14951192Y12693241D01*
X14950000Y12717500D01*
X14950000Y13212500D01*
X14951192Y13236759D01*
X14954756Y13260785D01*
X14960657Y13284345D01*
X14968840Y13307214D01*
X14979224Y13329171D01*
X14991711Y13350004D01*
X15006180Y13369512D01*
X15022491Y13387509D01*
X15040488Y13403820D01*
X15059996Y13418289D01*
X15080829Y13430776D01*
X15102786Y13441160D01*
X15125655Y13449343D01*
X15149215Y13455244D01*
X15173241Y13458808D01*
X15197500Y13460000D01*
X15742500Y13460000D01*
X15766759Y13458808D01*
X15766759Y13458808D01*
G37*
D17*
X15470000Y12965000D03*
G04 #@! TD*
D12*
G04 #@! TO.C,R16*
G36*
X14566759Y13458808D02*
X14590785Y13455244D01*
X14614345Y13449343D01*
X14637214Y13441160D01*
X14659171Y13430776D01*
X14680004Y13418289D01*
X14699512Y13403820D01*
X14717509Y13387509D01*
X14733820Y13369512D01*
X14748289Y13350004D01*
X14760776Y13329171D01*
X14771160Y13307214D01*
X14779343Y13284345D01*
X14785244Y13260785D01*
X14788808Y13236759D01*
X14790000Y13212500D01*
X14790000Y12717500D01*
X14788808Y12693241D01*
X14785244Y12669215D01*
X14779343Y12645655D01*
X14771160Y12622786D01*
X14760776Y12600829D01*
X14748289Y12579996D01*
X14733820Y12560488D01*
X14717509Y12542491D01*
X14699512Y12526180D01*
X14680004Y12511711D01*
X14659171Y12499224D01*
X14637214Y12488840D01*
X14614345Y12480657D01*
X14590785Y12474756D01*
X14566759Y12471192D01*
X14542500Y12470000D01*
X13997500Y12470000D01*
X13973241Y12471192D01*
X13949215Y12474756D01*
X13925655Y12480657D01*
X13902786Y12488840D01*
X13880829Y12499224D01*
X13859996Y12511711D01*
X13840488Y12526180D01*
X13822491Y12542491D01*
X13806180Y12560488D01*
X13791711Y12579996D01*
X13779224Y12600829D01*
X13768840Y12622786D01*
X13760657Y12645655D01*
X13754756Y12669215D01*
X13751192Y12693241D01*
X13750000Y12717500D01*
X13750000Y13212500D01*
X13751192Y13236759D01*
X13754756Y13260785D01*
X13760657Y13284345D01*
X13768840Y13307214D01*
X13779224Y13329171D01*
X13791711Y13350004D01*
X13806180Y13369512D01*
X13822491Y13387509D01*
X13840488Y13403820D01*
X13859996Y13418289D01*
X13880829Y13430776D01*
X13902786Y13441160D01*
X13925655Y13449343D01*
X13949215Y13455244D01*
X13973241Y13458808D01*
X13997500Y13460000D01*
X14542500Y13460000D01*
X14566759Y13458808D01*
X14566759Y13458808D01*
G37*
D17*
X14270000Y12965000D03*
D12*
G36*
X14566759Y14428808D02*
X14590785Y14425244D01*
X14614345Y14419343D01*
X14637214Y14411160D01*
X14659171Y14400776D01*
X14680004Y14388289D01*
X14699512Y14373820D01*
X14717509Y14357509D01*
X14733820Y14339512D01*
X14748289Y14320004D01*
X14760776Y14299171D01*
X14771160Y14277214D01*
X14779343Y14254345D01*
X14785244Y14230785D01*
X14788808Y14206759D01*
X14790000Y14182500D01*
X14790000Y13687500D01*
X14788808Y13663241D01*
X14785244Y13639215D01*
X14779343Y13615655D01*
X14771160Y13592786D01*
X14760776Y13570829D01*
X14748289Y13549996D01*
X14733820Y13530488D01*
X14717509Y13512491D01*
X14699512Y13496180D01*
X14680004Y13481711D01*
X14659171Y13469224D01*
X14637214Y13458840D01*
X14614345Y13450657D01*
X14590785Y13444756D01*
X14566759Y13441192D01*
X14542500Y13440000D01*
X13997500Y13440000D01*
X13973241Y13441192D01*
X13949215Y13444756D01*
X13925655Y13450657D01*
X13902786Y13458840D01*
X13880829Y13469224D01*
X13859996Y13481711D01*
X13840488Y13496180D01*
X13822491Y13512491D01*
X13806180Y13530488D01*
X13791711Y13549996D01*
X13779224Y13570829D01*
X13768840Y13592786D01*
X13760657Y13615655D01*
X13754756Y13639215D01*
X13751192Y13663241D01*
X13750000Y13687500D01*
X13750000Y14182500D01*
X13751192Y14206759D01*
X13754756Y14230785D01*
X13760657Y14254345D01*
X13768840Y14277214D01*
X13779224Y14299171D01*
X13791711Y14320004D01*
X13806180Y14339512D01*
X13822491Y14357509D01*
X13840488Y14373820D01*
X13859996Y14388289D01*
X13880829Y14400776D01*
X13902786Y14411160D01*
X13925655Y14419343D01*
X13949215Y14425244D01*
X13973241Y14428808D01*
X13997500Y14430000D01*
X14542500Y14430000D01*
X14566759Y14428808D01*
X14566759Y14428808D01*
G37*
D17*
X14270000Y13935000D03*
G04 #@! TD*
D12*
G04 #@! TO.C,R17*
G36*
X42596759Y8628808D02*
X42620785Y8625244D01*
X42644345Y8619343D01*
X42667214Y8611160D01*
X42689171Y8600776D01*
X42710004Y8588289D01*
X42729512Y8573820D01*
X42747509Y8557509D01*
X42763820Y8539512D01*
X42778289Y8520004D01*
X42790776Y8499171D01*
X42801160Y8477214D01*
X42809343Y8454345D01*
X42815244Y8430785D01*
X42818808Y8406759D01*
X42820000Y8382500D01*
X42820000Y7887500D01*
X42818808Y7863241D01*
X42815244Y7839215D01*
X42809343Y7815655D01*
X42801160Y7792786D01*
X42790776Y7770829D01*
X42778289Y7749996D01*
X42763820Y7730488D01*
X42747509Y7712491D01*
X42729512Y7696180D01*
X42710004Y7681711D01*
X42689171Y7669224D01*
X42667214Y7658840D01*
X42644345Y7650657D01*
X42620785Y7644756D01*
X42596759Y7641192D01*
X42572500Y7640000D01*
X42027500Y7640000D01*
X42003241Y7641192D01*
X41979215Y7644756D01*
X41955655Y7650657D01*
X41932786Y7658840D01*
X41910829Y7669224D01*
X41889996Y7681711D01*
X41870488Y7696180D01*
X41852491Y7712491D01*
X41836180Y7730488D01*
X41821711Y7749996D01*
X41809224Y7770829D01*
X41798840Y7792786D01*
X41790657Y7815655D01*
X41784756Y7839215D01*
X41781192Y7863241D01*
X41780000Y7887500D01*
X41780000Y8382500D01*
X41781192Y8406759D01*
X41784756Y8430785D01*
X41790657Y8454345D01*
X41798840Y8477214D01*
X41809224Y8499171D01*
X41821711Y8520004D01*
X41836180Y8539512D01*
X41852491Y8557509D01*
X41870488Y8573820D01*
X41889996Y8588289D01*
X41910829Y8600776D01*
X41932786Y8611160D01*
X41955655Y8619343D01*
X41979215Y8625244D01*
X42003241Y8628808D01*
X42027500Y8630000D01*
X42572500Y8630000D01*
X42596759Y8628808D01*
X42596759Y8628808D01*
G37*
D17*
X42300000Y8135000D03*
D12*
G36*
X42596759Y7658808D02*
X42620785Y7655244D01*
X42644345Y7649343D01*
X42667214Y7641160D01*
X42689171Y7630776D01*
X42710004Y7618289D01*
X42729512Y7603820D01*
X42747509Y7587509D01*
X42763820Y7569512D01*
X42778289Y7550004D01*
X42790776Y7529171D01*
X42801160Y7507214D01*
X42809343Y7484345D01*
X42815244Y7460785D01*
X42818808Y7436759D01*
X42820000Y7412500D01*
X42820000Y6917500D01*
X42818808Y6893241D01*
X42815244Y6869215D01*
X42809343Y6845655D01*
X42801160Y6822786D01*
X42790776Y6800829D01*
X42778289Y6779996D01*
X42763820Y6760488D01*
X42747509Y6742491D01*
X42729512Y6726180D01*
X42710004Y6711711D01*
X42689171Y6699224D01*
X42667214Y6688840D01*
X42644345Y6680657D01*
X42620785Y6674756D01*
X42596759Y6671192D01*
X42572500Y6670000D01*
X42027500Y6670000D01*
X42003241Y6671192D01*
X41979215Y6674756D01*
X41955655Y6680657D01*
X41932786Y6688840D01*
X41910829Y6699224D01*
X41889996Y6711711D01*
X41870488Y6726180D01*
X41852491Y6742491D01*
X41836180Y6760488D01*
X41821711Y6779996D01*
X41809224Y6800829D01*
X41798840Y6822786D01*
X41790657Y6845655D01*
X41784756Y6869215D01*
X41781192Y6893241D01*
X41780000Y6917500D01*
X41780000Y7412500D01*
X41781192Y7436759D01*
X41784756Y7460785D01*
X41790657Y7484345D01*
X41798840Y7507214D01*
X41809224Y7529171D01*
X41821711Y7550004D01*
X41836180Y7569512D01*
X41852491Y7587509D01*
X41870488Y7603820D01*
X41889996Y7618289D01*
X41910829Y7630776D01*
X41932786Y7641160D01*
X41955655Y7649343D01*
X41979215Y7655244D01*
X42003241Y7658808D01*
X42027500Y7660000D01*
X42572500Y7660000D01*
X42596759Y7658808D01*
X42596759Y7658808D01*
G37*
D17*
X42300000Y7165000D03*
G04 #@! TD*
D18*
G04 #@! TO.C,MH1*
X3500000Y3500000D03*
G04 #@! TD*
G04 #@! TO.C,MH2*
X64500000Y3500000D03*
G04 #@! TD*
G04 #@! TO.C,MH3*
X64500000Y49000000D03*
G04 #@! TD*
G04 #@! TO.C,MH4*
X3500000Y49000000D03*
G04 #@! TD*
D19*
G04 #@! TO.C,J1*
X9870000Y38975000D03*
X9870000Y44025000D03*
X12410000Y38975000D03*
X12410000Y44025000D03*
X14950000Y38975000D03*
X14950000Y44025000D03*
X17490000Y38975000D03*
X17490000Y44025000D03*
X20030000Y38975000D03*
X20030000Y44025000D03*
X22570000Y38975000D03*
X22570000Y44025000D03*
X25110000Y38975000D03*
X25110000Y44025000D03*
X27650000Y38975000D03*
X27650000Y44025000D03*
X30190000Y38975000D03*
X30190000Y44025000D03*
X32730000Y38975000D03*
X32730000Y44025000D03*
X35270000Y38975000D03*
X35270000Y44025000D03*
X37810000Y38975000D03*
X37810000Y44025000D03*
X40350000Y38975000D03*
X40350000Y44025000D03*
X42890000Y38975000D03*
X42890000Y44025000D03*
X45430000Y38975000D03*
X45430000Y44025000D03*
X47970000Y38975000D03*
X47970000Y44025000D03*
X50510000Y38975000D03*
X50510000Y44025000D03*
X53050000Y38975000D03*
X53050000Y44025000D03*
X55590000Y38975000D03*
X55590000Y44025000D03*
X58130000Y38975000D03*
X58130000Y44025000D03*
G04 #@! TD*
D20*
G04 #@! TO.C,J2*
X61858753Y34067358D03*
X59318753Y34067358D03*
X56778753Y34067358D03*
X54238753Y34067358D03*
X51698753Y34067358D03*
X49158753Y34067358D03*
X46618753Y34067358D03*
X44078753Y34067358D03*
X41538753Y34067358D03*
X38998753Y34067358D03*
D21*
X36458753Y34067358D03*
X33918753Y34067358D03*
X31378753Y34067358D03*
D20*
X28838753Y34067358D03*
X26298753Y34067358D03*
X23758753Y34067358D03*
X21218753Y34067358D03*
X18678753Y34067358D03*
X16138753Y34067358D03*
D22*
X13598753Y34067358D03*
G04 #@! TD*
G04 #@! TO.C,J6*
X13598753Y16287358D03*
D20*
X16138753Y16287358D03*
X18678753Y16287358D03*
X21218753Y16287358D03*
X23758753Y16287358D03*
X26298753Y16287358D03*
X28838753Y16287358D03*
X31378753Y16287358D03*
X33918753Y16287358D03*
X36458753Y16287358D03*
X38998753Y16287358D03*
X41538753Y16287358D03*
X44078753Y16287358D03*
X46618753Y16287358D03*
X49158753Y16287358D03*
X51698753Y16287358D03*
X54238753Y16287358D03*
X56778753Y16287358D03*
X59318753Y16287358D03*
X61858753Y16287358D03*
G04 #@! TD*
D22*
G04 #@! TO.C,J4*
X9440000Y12490000D03*
D20*
X6900000Y12490000D03*
X9440000Y15030000D03*
X6900000Y15030000D03*
X9440000Y17570000D03*
X6900000Y17570000D03*
X9440000Y20110000D03*
X6900000Y20110000D03*
X9440000Y22650000D03*
X6900000Y22650000D03*
X9440000Y25190000D03*
X6900000Y25190000D03*
X9440000Y27730000D03*
X6900000Y27730000D03*
X9440000Y30270000D03*
X6900000Y30270000D03*
X9440000Y32810000D03*
X6900000Y32810000D03*
G04 #@! TD*
G04 #@! TO.C,J5*
X64398753Y34067358D03*
D22*
X64398753Y31527358D03*
G04 #@! TD*
G04 #@! TO.C,J7*
X64398753Y16287358D03*
D20*
X64398753Y18827358D03*
G04 #@! TD*
M02*
