G04 #@! TF.GenerationSoftware,KiCad,Pcbnew,(5.0.0)*
G04 #@! TF.CreationDate,2020-07-13T01:16:36+09:00*
G04 #@! TF.ProjectId,WioTerminal_TangNano,57696F5465726D696E616C5F54616E67,rev?*
G04 #@! TF.SameCoordinates,Original*
G04 #@! TF.FileFunction,Soldermask,Bot*
G04 #@! TF.FilePolarity,Negative*
%FSLAX46Y46*%
G04 Gerber Fmt 4.6, Leading zero omitted, Abs format (unit mm)*
G04 Created by KiCad (PCBNEW (5.0.0)) date 07/13/20 01:16:36*
%MOMM*%
%LPD*%
G01*
G04 APERTURE LIST*
%ADD10O,1.400000X1.600000*%
%ADD11C,1.400000*%
%ADD12O,1.650000X2.400000*%
%ADD13C,0.100000*%
%ADD14C,1.275000*%
%ADD15C,2.600000*%
%ADD16R,1.400000X3.400000*%
%ADD17O,2.100000X2.100000*%
%ADD18O,1.800000X2.100000*%
%ADD19R,2.100000X2.100000*%
G04 APERTURE END LIST*
D10*
G04 #@! TO.C,J1*
X58130000Y42770000D03*
X58130000Y40230000D03*
X55590000Y42770000D03*
X55590000Y40230000D03*
X53050000Y42770000D03*
X53050000Y40230000D03*
X50510000Y42770000D03*
X50510000Y40230000D03*
X47970000Y42770000D03*
X47970000Y40230000D03*
X45430000Y42770000D03*
X45430000Y40230000D03*
X42890000Y42770000D03*
X42890000Y40230000D03*
X40350000Y42770000D03*
X40350000Y40230000D03*
X37810000Y42770000D03*
X37810000Y40230000D03*
X35270000Y42770000D03*
X35270000Y40230000D03*
X32730000Y42770000D03*
X32730000Y40230000D03*
X30190000Y42770000D03*
X30190000Y40230000D03*
X27650000Y42770000D03*
X27650000Y40230000D03*
X25110000Y42770000D03*
X25110000Y40230000D03*
X22570000Y42770000D03*
X22570000Y40230000D03*
X20030000Y42770000D03*
X20030000Y40230000D03*
X17490000Y42770000D03*
X17490000Y40230000D03*
X14950000Y42770000D03*
X14950000Y40230000D03*
X12410000Y42770000D03*
X12410000Y40230000D03*
X9870000Y42770000D03*
X9870000Y40230000D03*
G04 #@! TD*
D11*
G04 #@! TO.C,J8*
X37750000Y5500000D03*
X30250000Y5500000D03*
D12*
X28575000Y6300000D03*
X39425000Y6300000D03*
X28575000Y1800000D03*
X39425000Y1800000D03*
G04 #@! TD*
D13*
G04 #@! TO.C,R1*
G36*
X54587493Y31210965D02*
X54618435Y31206375D01*
X54648778Y31198775D01*
X54678230Y31188237D01*
X54706508Y31174862D01*
X54733338Y31158781D01*
X54758463Y31140147D01*
X54781640Y31119140D01*
X54802647Y31095963D01*
X54821281Y31070838D01*
X54837362Y31044008D01*
X54850737Y31015730D01*
X54861275Y30986278D01*
X54868875Y30955935D01*
X54873465Y30924993D01*
X54875000Y30893750D01*
X54875000Y30256250D01*
X54873465Y30225007D01*
X54868875Y30194065D01*
X54861275Y30163722D01*
X54850737Y30134270D01*
X54837362Y30105992D01*
X54821281Y30079162D01*
X54802647Y30054037D01*
X54781640Y30030860D01*
X54758463Y30009853D01*
X54733338Y29991219D01*
X54706508Y29975138D01*
X54678230Y29961763D01*
X54648778Y29951225D01*
X54618435Y29943625D01*
X54587493Y29939035D01*
X54556250Y29937500D01*
X53843750Y29937500D01*
X53812507Y29939035D01*
X53781565Y29943625D01*
X53751222Y29951225D01*
X53721770Y29961763D01*
X53693492Y29975138D01*
X53666662Y29991219D01*
X53641537Y30009853D01*
X53618360Y30030860D01*
X53597353Y30054037D01*
X53578719Y30079162D01*
X53562638Y30105992D01*
X53549263Y30134270D01*
X53538725Y30163722D01*
X53531125Y30194065D01*
X53526535Y30225007D01*
X53525000Y30256250D01*
X53525000Y30893750D01*
X53526535Y30924993D01*
X53531125Y30955935D01*
X53538725Y30986278D01*
X53549263Y31015730D01*
X53562638Y31044008D01*
X53578719Y31070838D01*
X53597353Y31095963D01*
X53618360Y31119140D01*
X53641537Y31140147D01*
X53666662Y31158781D01*
X53693492Y31174862D01*
X53721770Y31188237D01*
X53751222Y31198775D01*
X53781565Y31206375D01*
X53812507Y31210965D01*
X53843750Y31212500D01*
X54556250Y31212500D01*
X54587493Y31210965D01*
X54587493Y31210965D01*
G37*
D14*
X54200000Y30575000D03*
D13*
G36*
X54587493Y32785965D02*
X54618435Y32781375D01*
X54648778Y32773775D01*
X54678230Y32763237D01*
X54706508Y32749862D01*
X54733338Y32733781D01*
X54758463Y32715147D01*
X54781640Y32694140D01*
X54802647Y32670963D01*
X54821281Y32645838D01*
X54837362Y32619008D01*
X54850737Y32590730D01*
X54861275Y32561278D01*
X54868875Y32530935D01*
X54873465Y32499993D01*
X54875000Y32468750D01*
X54875000Y31831250D01*
X54873465Y31800007D01*
X54868875Y31769065D01*
X54861275Y31738722D01*
X54850737Y31709270D01*
X54837362Y31680992D01*
X54821281Y31654162D01*
X54802647Y31629037D01*
X54781640Y31605860D01*
X54758463Y31584853D01*
X54733338Y31566219D01*
X54706508Y31550138D01*
X54678230Y31536763D01*
X54648778Y31526225D01*
X54618435Y31518625D01*
X54587493Y31514035D01*
X54556250Y31512500D01*
X53843750Y31512500D01*
X53812507Y31514035D01*
X53781565Y31518625D01*
X53751222Y31526225D01*
X53721770Y31536763D01*
X53693492Y31550138D01*
X53666662Y31566219D01*
X53641537Y31584853D01*
X53618360Y31605860D01*
X53597353Y31629037D01*
X53578719Y31654162D01*
X53562638Y31680992D01*
X53549263Y31709270D01*
X53538725Y31738722D01*
X53531125Y31769065D01*
X53526535Y31800007D01*
X53525000Y31831250D01*
X53525000Y32468750D01*
X53526535Y32499993D01*
X53531125Y32530935D01*
X53538725Y32561278D01*
X53549263Y32590730D01*
X53562638Y32619008D01*
X53578719Y32645838D01*
X53597353Y32670963D01*
X53618360Y32694140D01*
X53641537Y32715147D01*
X53666662Y32733781D01*
X53693492Y32749862D01*
X53721770Y32763237D01*
X53751222Y32773775D01*
X53781565Y32781375D01*
X53812507Y32785965D01*
X53843750Y32787500D01*
X54556250Y32787500D01*
X54587493Y32785965D01*
X54587493Y32785965D01*
G37*
D14*
X54200000Y32150000D03*
G04 #@! TD*
D13*
G04 #@! TO.C,R2*
G36*
X49587493Y32685965D02*
X49618435Y32681375D01*
X49648778Y32673775D01*
X49678230Y32663237D01*
X49706508Y32649862D01*
X49733338Y32633781D01*
X49758463Y32615147D01*
X49781640Y32594140D01*
X49802647Y32570963D01*
X49821281Y32545838D01*
X49837362Y32519008D01*
X49850737Y32490730D01*
X49861275Y32461278D01*
X49868875Y32430935D01*
X49873465Y32399993D01*
X49875000Y32368750D01*
X49875000Y31731250D01*
X49873465Y31700007D01*
X49868875Y31669065D01*
X49861275Y31638722D01*
X49850737Y31609270D01*
X49837362Y31580992D01*
X49821281Y31554162D01*
X49802647Y31529037D01*
X49781640Y31505860D01*
X49758463Y31484853D01*
X49733338Y31466219D01*
X49706508Y31450138D01*
X49678230Y31436763D01*
X49648778Y31426225D01*
X49618435Y31418625D01*
X49587493Y31414035D01*
X49556250Y31412500D01*
X48843750Y31412500D01*
X48812507Y31414035D01*
X48781565Y31418625D01*
X48751222Y31426225D01*
X48721770Y31436763D01*
X48693492Y31450138D01*
X48666662Y31466219D01*
X48641537Y31484853D01*
X48618360Y31505860D01*
X48597353Y31529037D01*
X48578719Y31554162D01*
X48562638Y31580992D01*
X48549263Y31609270D01*
X48538725Y31638722D01*
X48531125Y31669065D01*
X48526535Y31700007D01*
X48525000Y31731250D01*
X48525000Y32368750D01*
X48526535Y32399993D01*
X48531125Y32430935D01*
X48538725Y32461278D01*
X48549263Y32490730D01*
X48562638Y32519008D01*
X48578719Y32545838D01*
X48597353Y32570963D01*
X48618360Y32594140D01*
X48641537Y32615147D01*
X48666662Y32633781D01*
X48693492Y32649862D01*
X48721770Y32663237D01*
X48751222Y32673775D01*
X48781565Y32681375D01*
X48812507Y32685965D01*
X48843750Y32687500D01*
X49556250Y32687500D01*
X49587493Y32685965D01*
X49587493Y32685965D01*
G37*
D14*
X49200000Y32050000D03*
D13*
G36*
X49587493Y31110965D02*
X49618435Y31106375D01*
X49648778Y31098775D01*
X49678230Y31088237D01*
X49706508Y31074862D01*
X49733338Y31058781D01*
X49758463Y31040147D01*
X49781640Y31019140D01*
X49802647Y30995963D01*
X49821281Y30970838D01*
X49837362Y30944008D01*
X49850737Y30915730D01*
X49861275Y30886278D01*
X49868875Y30855935D01*
X49873465Y30824993D01*
X49875000Y30793750D01*
X49875000Y30156250D01*
X49873465Y30125007D01*
X49868875Y30094065D01*
X49861275Y30063722D01*
X49850737Y30034270D01*
X49837362Y30005992D01*
X49821281Y29979162D01*
X49802647Y29954037D01*
X49781640Y29930860D01*
X49758463Y29909853D01*
X49733338Y29891219D01*
X49706508Y29875138D01*
X49678230Y29861763D01*
X49648778Y29851225D01*
X49618435Y29843625D01*
X49587493Y29839035D01*
X49556250Y29837500D01*
X48843750Y29837500D01*
X48812507Y29839035D01*
X48781565Y29843625D01*
X48751222Y29851225D01*
X48721770Y29861763D01*
X48693492Y29875138D01*
X48666662Y29891219D01*
X48641537Y29909853D01*
X48618360Y29930860D01*
X48597353Y29954037D01*
X48578719Y29979162D01*
X48562638Y30005992D01*
X48549263Y30034270D01*
X48538725Y30063722D01*
X48531125Y30094065D01*
X48526535Y30125007D01*
X48525000Y30156250D01*
X48525000Y30793750D01*
X48526535Y30824993D01*
X48531125Y30855935D01*
X48538725Y30886278D01*
X48549263Y30915730D01*
X48562638Y30944008D01*
X48578719Y30970838D01*
X48597353Y30995963D01*
X48618360Y31019140D01*
X48641537Y31040147D01*
X48666662Y31058781D01*
X48693492Y31074862D01*
X48721770Y31088237D01*
X48751222Y31098775D01*
X48781565Y31106375D01*
X48812507Y31110965D01*
X48843750Y31112500D01*
X49556250Y31112500D01*
X49587493Y31110965D01*
X49587493Y31110965D01*
G37*
D14*
X49200000Y30475000D03*
G04 #@! TD*
D13*
G04 #@! TO.C,R3*
G36*
X47006246Y20885965D02*
X47037188Y20881375D01*
X47067531Y20873775D01*
X47096983Y20863237D01*
X47125261Y20849862D01*
X47152091Y20833781D01*
X47177216Y20815147D01*
X47200393Y20794140D01*
X47221400Y20770963D01*
X47240034Y20745838D01*
X47256115Y20719008D01*
X47269490Y20690730D01*
X47280028Y20661278D01*
X47287628Y20630935D01*
X47292218Y20599993D01*
X47293753Y20568750D01*
X47293753Y19931250D01*
X47292218Y19900007D01*
X47287628Y19869065D01*
X47280028Y19838722D01*
X47269490Y19809270D01*
X47256115Y19780992D01*
X47240034Y19754162D01*
X47221400Y19729037D01*
X47200393Y19705860D01*
X47177216Y19684853D01*
X47152091Y19666219D01*
X47125261Y19650138D01*
X47096983Y19636763D01*
X47067531Y19626225D01*
X47037188Y19618625D01*
X47006246Y19614035D01*
X46975003Y19612500D01*
X46262503Y19612500D01*
X46231260Y19614035D01*
X46200318Y19618625D01*
X46169975Y19626225D01*
X46140523Y19636763D01*
X46112245Y19650138D01*
X46085415Y19666219D01*
X46060290Y19684853D01*
X46037113Y19705860D01*
X46016106Y19729037D01*
X45997472Y19754162D01*
X45981391Y19780992D01*
X45968016Y19809270D01*
X45957478Y19838722D01*
X45949878Y19869065D01*
X45945288Y19900007D01*
X45943753Y19931250D01*
X45943753Y20568750D01*
X45945288Y20599993D01*
X45949878Y20630935D01*
X45957478Y20661278D01*
X45968016Y20690730D01*
X45981391Y20719008D01*
X45997472Y20745838D01*
X46016106Y20770963D01*
X46037113Y20794140D01*
X46060290Y20815147D01*
X46085415Y20833781D01*
X46112245Y20849862D01*
X46140523Y20863237D01*
X46169975Y20873775D01*
X46200318Y20881375D01*
X46231260Y20885965D01*
X46262503Y20887500D01*
X46975003Y20887500D01*
X47006246Y20885965D01*
X47006246Y20885965D01*
G37*
D14*
X46618753Y20250000D03*
D13*
G36*
X47006246Y19310965D02*
X47037188Y19306375D01*
X47067531Y19298775D01*
X47096983Y19288237D01*
X47125261Y19274862D01*
X47152091Y19258781D01*
X47177216Y19240147D01*
X47200393Y19219140D01*
X47221400Y19195963D01*
X47240034Y19170838D01*
X47256115Y19144008D01*
X47269490Y19115730D01*
X47280028Y19086278D01*
X47287628Y19055935D01*
X47292218Y19024993D01*
X47293753Y18993750D01*
X47293753Y18356250D01*
X47292218Y18325007D01*
X47287628Y18294065D01*
X47280028Y18263722D01*
X47269490Y18234270D01*
X47256115Y18205992D01*
X47240034Y18179162D01*
X47221400Y18154037D01*
X47200393Y18130860D01*
X47177216Y18109853D01*
X47152091Y18091219D01*
X47125261Y18075138D01*
X47096983Y18061763D01*
X47067531Y18051225D01*
X47037188Y18043625D01*
X47006246Y18039035D01*
X46975003Y18037500D01*
X46262503Y18037500D01*
X46231260Y18039035D01*
X46200318Y18043625D01*
X46169975Y18051225D01*
X46140523Y18061763D01*
X46112245Y18075138D01*
X46085415Y18091219D01*
X46060290Y18109853D01*
X46037113Y18130860D01*
X46016106Y18154037D01*
X45997472Y18179162D01*
X45981391Y18205992D01*
X45968016Y18234270D01*
X45957478Y18263722D01*
X45949878Y18294065D01*
X45945288Y18325007D01*
X45943753Y18356250D01*
X45943753Y18993750D01*
X45945288Y19024993D01*
X45949878Y19055935D01*
X45957478Y19086278D01*
X45968016Y19115730D01*
X45981391Y19144008D01*
X45997472Y19170838D01*
X46016106Y19195963D01*
X46037113Y19219140D01*
X46060290Y19240147D01*
X46085415Y19258781D01*
X46112245Y19274862D01*
X46140523Y19288237D01*
X46169975Y19298775D01*
X46200318Y19306375D01*
X46231260Y19310965D01*
X46262503Y19312500D01*
X46975003Y19312500D01*
X47006246Y19310965D01*
X47006246Y19310965D01*
G37*
D14*
X46618753Y18675000D03*
G04 #@! TD*
D13*
G04 #@! TO.C,R4*
G36*
X44466246Y19310965D02*
X44497188Y19306375D01*
X44527531Y19298775D01*
X44556983Y19288237D01*
X44585261Y19274862D01*
X44612091Y19258781D01*
X44637216Y19240147D01*
X44660393Y19219140D01*
X44681400Y19195963D01*
X44700034Y19170838D01*
X44716115Y19144008D01*
X44729490Y19115730D01*
X44740028Y19086278D01*
X44747628Y19055935D01*
X44752218Y19024993D01*
X44753753Y18993750D01*
X44753753Y18356250D01*
X44752218Y18325007D01*
X44747628Y18294065D01*
X44740028Y18263722D01*
X44729490Y18234270D01*
X44716115Y18205992D01*
X44700034Y18179162D01*
X44681400Y18154037D01*
X44660393Y18130860D01*
X44637216Y18109853D01*
X44612091Y18091219D01*
X44585261Y18075138D01*
X44556983Y18061763D01*
X44527531Y18051225D01*
X44497188Y18043625D01*
X44466246Y18039035D01*
X44435003Y18037500D01*
X43722503Y18037500D01*
X43691260Y18039035D01*
X43660318Y18043625D01*
X43629975Y18051225D01*
X43600523Y18061763D01*
X43572245Y18075138D01*
X43545415Y18091219D01*
X43520290Y18109853D01*
X43497113Y18130860D01*
X43476106Y18154037D01*
X43457472Y18179162D01*
X43441391Y18205992D01*
X43428016Y18234270D01*
X43417478Y18263722D01*
X43409878Y18294065D01*
X43405288Y18325007D01*
X43403753Y18356250D01*
X43403753Y18993750D01*
X43405288Y19024993D01*
X43409878Y19055935D01*
X43417478Y19086278D01*
X43428016Y19115730D01*
X43441391Y19144008D01*
X43457472Y19170838D01*
X43476106Y19195963D01*
X43497113Y19219140D01*
X43520290Y19240147D01*
X43545415Y19258781D01*
X43572245Y19274862D01*
X43600523Y19288237D01*
X43629975Y19298775D01*
X43660318Y19306375D01*
X43691260Y19310965D01*
X43722503Y19312500D01*
X44435003Y19312500D01*
X44466246Y19310965D01*
X44466246Y19310965D01*
G37*
D14*
X44078753Y18675000D03*
D13*
G36*
X44466246Y20885965D02*
X44497188Y20881375D01*
X44527531Y20873775D01*
X44556983Y20863237D01*
X44585261Y20849862D01*
X44612091Y20833781D01*
X44637216Y20815147D01*
X44660393Y20794140D01*
X44681400Y20770963D01*
X44700034Y20745838D01*
X44716115Y20719008D01*
X44729490Y20690730D01*
X44740028Y20661278D01*
X44747628Y20630935D01*
X44752218Y20599993D01*
X44753753Y20568750D01*
X44753753Y19931250D01*
X44752218Y19900007D01*
X44747628Y19869065D01*
X44740028Y19838722D01*
X44729490Y19809270D01*
X44716115Y19780992D01*
X44700034Y19754162D01*
X44681400Y19729037D01*
X44660393Y19705860D01*
X44637216Y19684853D01*
X44612091Y19666219D01*
X44585261Y19650138D01*
X44556983Y19636763D01*
X44527531Y19626225D01*
X44497188Y19618625D01*
X44466246Y19614035D01*
X44435003Y19612500D01*
X43722503Y19612500D01*
X43691260Y19614035D01*
X43660318Y19618625D01*
X43629975Y19626225D01*
X43600523Y19636763D01*
X43572245Y19650138D01*
X43545415Y19666219D01*
X43520290Y19684853D01*
X43497113Y19705860D01*
X43476106Y19729037D01*
X43457472Y19754162D01*
X43441391Y19780992D01*
X43428016Y19809270D01*
X43417478Y19838722D01*
X43409878Y19869065D01*
X43405288Y19900007D01*
X43403753Y19931250D01*
X43403753Y20568750D01*
X43405288Y20599993D01*
X43409878Y20630935D01*
X43417478Y20661278D01*
X43428016Y20690730D01*
X43441391Y20719008D01*
X43457472Y20745838D01*
X43476106Y20770963D01*
X43497113Y20794140D01*
X43520290Y20815147D01*
X43545415Y20833781D01*
X43572245Y20849862D01*
X43600523Y20863237D01*
X43629975Y20873775D01*
X43660318Y20881375D01*
X43691260Y20885965D01*
X43722503Y20887500D01*
X44435003Y20887500D01*
X44466246Y20885965D01*
X44466246Y20885965D01*
G37*
D14*
X44078753Y20250000D03*
G04 #@! TD*
D13*
G04 #@! TO.C,R11*
G36*
X41074993Y32423465D02*
X41105935Y32418875D01*
X41136278Y32411275D01*
X41165730Y32400737D01*
X41194008Y32387362D01*
X41220838Y32371281D01*
X41245963Y32352647D01*
X41269140Y32331640D01*
X41290147Y32308463D01*
X41308781Y32283338D01*
X41324862Y32256508D01*
X41338237Y32228230D01*
X41348775Y32198778D01*
X41356375Y32168435D01*
X41360965Y32137493D01*
X41362500Y32106250D01*
X41362500Y31393750D01*
X41360965Y31362507D01*
X41356375Y31331565D01*
X41348775Y31301222D01*
X41338237Y31271770D01*
X41324862Y31243492D01*
X41308781Y31216662D01*
X41290147Y31191537D01*
X41269140Y31168360D01*
X41245963Y31147353D01*
X41220838Y31128719D01*
X41194008Y31112638D01*
X41165730Y31099263D01*
X41136278Y31088725D01*
X41105935Y31081125D01*
X41074993Y31076535D01*
X41043750Y31075000D01*
X40406250Y31075000D01*
X40375007Y31076535D01*
X40344065Y31081125D01*
X40313722Y31088725D01*
X40284270Y31099263D01*
X40255992Y31112638D01*
X40229162Y31128719D01*
X40204037Y31147353D01*
X40180860Y31168360D01*
X40159853Y31191537D01*
X40141219Y31216662D01*
X40125138Y31243492D01*
X40111763Y31271770D01*
X40101225Y31301222D01*
X40093625Y31331565D01*
X40089035Y31362507D01*
X40087500Y31393750D01*
X40087500Y32106250D01*
X40089035Y32137493D01*
X40093625Y32168435D01*
X40101225Y32198778D01*
X40111763Y32228230D01*
X40125138Y32256508D01*
X40141219Y32283338D01*
X40159853Y32308463D01*
X40180860Y32331640D01*
X40204037Y32352647D01*
X40229162Y32371281D01*
X40255992Y32387362D01*
X40284270Y32400737D01*
X40313722Y32411275D01*
X40344065Y32418875D01*
X40375007Y32423465D01*
X40406250Y32425000D01*
X41043750Y32425000D01*
X41074993Y32423465D01*
X41074993Y32423465D01*
G37*
D14*
X40725000Y31750000D03*
D13*
G36*
X42649993Y32423465D02*
X42680935Y32418875D01*
X42711278Y32411275D01*
X42740730Y32400737D01*
X42769008Y32387362D01*
X42795838Y32371281D01*
X42820963Y32352647D01*
X42844140Y32331640D01*
X42865147Y32308463D01*
X42883781Y32283338D01*
X42899862Y32256508D01*
X42913237Y32228230D01*
X42923775Y32198778D01*
X42931375Y32168435D01*
X42935965Y32137493D01*
X42937500Y32106250D01*
X42937500Y31393750D01*
X42935965Y31362507D01*
X42931375Y31331565D01*
X42923775Y31301222D01*
X42913237Y31271770D01*
X42899862Y31243492D01*
X42883781Y31216662D01*
X42865147Y31191537D01*
X42844140Y31168360D01*
X42820963Y31147353D01*
X42795838Y31128719D01*
X42769008Y31112638D01*
X42740730Y31099263D01*
X42711278Y31088725D01*
X42680935Y31081125D01*
X42649993Y31076535D01*
X42618750Y31075000D01*
X41981250Y31075000D01*
X41950007Y31076535D01*
X41919065Y31081125D01*
X41888722Y31088725D01*
X41859270Y31099263D01*
X41830992Y31112638D01*
X41804162Y31128719D01*
X41779037Y31147353D01*
X41755860Y31168360D01*
X41734853Y31191537D01*
X41716219Y31216662D01*
X41700138Y31243492D01*
X41686763Y31271770D01*
X41676225Y31301222D01*
X41668625Y31331565D01*
X41664035Y31362507D01*
X41662500Y31393750D01*
X41662500Y32106250D01*
X41664035Y32137493D01*
X41668625Y32168435D01*
X41676225Y32198778D01*
X41686763Y32228230D01*
X41700138Y32256508D01*
X41716219Y32283338D01*
X41734853Y32308463D01*
X41755860Y32331640D01*
X41779037Y32352647D01*
X41804162Y32371281D01*
X41830992Y32387362D01*
X41859270Y32400737D01*
X41888722Y32411275D01*
X41919065Y32418875D01*
X41950007Y32423465D01*
X41981250Y32425000D01*
X42618750Y32425000D01*
X42649993Y32423465D01*
X42649993Y32423465D01*
G37*
D14*
X42300000Y31750000D03*
G04 #@! TD*
D13*
G04 #@! TO.C,R12*
G36*
X42637493Y30823465D02*
X42668435Y30818875D01*
X42698778Y30811275D01*
X42728230Y30800737D01*
X42756508Y30787362D01*
X42783338Y30771281D01*
X42808463Y30752647D01*
X42831640Y30731640D01*
X42852647Y30708463D01*
X42871281Y30683338D01*
X42887362Y30656508D01*
X42900737Y30628230D01*
X42911275Y30598778D01*
X42918875Y30568435D01*
X42923465Y30537493D01*
X42925000Y30506250D01*
X42925000Y29793750D01*
X42923465Y29762507D01*
X42918875Y29731565D01*
X42911275Y29701222D01*
X42900737Y29671770D01*
X42887362Y29643492D01*
X42871281Y29616662D01*
X42852647Y29591537D01*
X42831640Y29568360D01*
X42808463Y29547353D01*
X42783338Y29528719D01*
X42756508Y29512638D01*
X42728230Y29499263D01*
X42698778Y29488725D01*
X42668435Y29481125D01*
X42637493Y29476535D01*
X42606250Y29475000D01*
X41968750Y29475000D01*
X41937507Y29476535D01*
X41906565Y29481125D01*
X41876222Y29488725D01*
X41846770Y29499263D01*
X41818492Y29512638D01*
X41791662Y29528719D01*
X41766537Y29547353D01*
X41743360Y29568360D01*
X41722353Y29591537D01*
X41703719Y29616662D01*
X41687638Y29643492D01*
X41674263Y29671770D01*
X41663725Y29701222D01*
X41656125Y29731565D01*
X41651535Y29762507D01*
X41650000Y29793750D01*
X41650000Y30506250D01*
X41651535Y30537493D01*
X41656125Y30568435D01*
X41663725Y30598778D01*
X41674263Y30628230D01*
X41687638Y30656508D01*
X41703719Y30683338D01*
X41722353Y30708463D01*
X41743360Y30731640D01*
X41766537Y30752647D01*
X41791662Y30771281D01*
X41818492Y30787362D01*
X41846770Y30800737D01*
X41876222Y30811275D01*
X41906565Y30818875D01*
X41937507Y30823465D01*
X41968750Y30825000D01*
X42606250Y30825000D01*
X42637493Y30823465D01*
X42637493Y30823465D01*
G37*
D14*
X42287500Y30150000D03*
D13*
G36*
X41062493Y30823465D02*
X41093435Y30818875D01*
X41123778Y30811275D01*
X41153230Y30800737D01*
X41181508Y30787362D01*
X41208338Y30771281D01*
X41233463Y30752647D01*
X41256640Y30731640D01*
X41277647Y30708463D01*
X41296281Y30683338D01*
X41312362Y30656508D01*
X41325737Y30628230D01*
X41336275Y30598778D01*
X41343875Y30568435D01*
X41348465Y30537493D01*
X41350000Y30506250D01*
X41350000Y29793750D01*
X41348465Y29762507D01*
X41343875Y29731565D01*
X41336275Y29701222D01*
X41325737Y29671770D01*
X41312362Y29643492D01*
X41296281Y29616662D01*
X41277647Y29591537D01*
X41256640Y29568360D01*
X41233463Y29547353D01*
X41208338Y29528719D01*
X41181508Y29512638D01*
X41153230Y29499263D01*
X41123778Y29488725D01*
X41093435Y29481125D01*
X41062493Y29476535D01*
X41031250Y29475000D01*
X40393750Y29475000D01*
X40362507Y29476535D01*
X40331565Y29481125D01*
X40301222Y29488725D01*
X40271770Y29499263D01*
X40243492Y29512638D01*
X40216662Y29528719D01*
X40191537Y29547353D01*
X40168360Y29568360D01*
X40147353Y29591537D01*
X40128719Y29616662D01*
X40112638Y29643492D01*
X40099263Y29671770D01*
X40088725Y29701222D01*
X40081125Y29731565D01*
X40076535Y29762507D01*
X40075000Y29793750D01*
X40075000Y30506250D01*
X40076535Y30537493D01*
X40081125Y30568435D01*
X40088725Y30598778D01*
X40099263Y30628230D01*
X40112638Y30656508D01*
X40128719Y30683338D01*
X40147353Y30708463D01*
X40168360Y30731640D01*
X40191537Y30752647D01*
X40216662Y30771281D01*
X40243492Y30787362D01*
X40271770Y30800737D01*
X40301222Y30811275D01*
X40331565Y30818875D01*
X40362507Y30823465D01*
X40393750Y30825000D01*
X41031250Y30825000D01*
X41062493Y30823465D01*
X41062493Y30823465D01*
G37*
D14*
X40712500Y30150000D03*
G04 #@! TD*
D13*
G04 #@! TO.C,R13*
G36*
X36849993Y32423465D02*
X36880935Y32418875D01*
X36911278Y32411275D01*
X36940730Y32400737D01*
X36969008Y32387362D01*
X36995838Y32371281D01*
X37020963Y32352647D01*
X37044140Y32331640D01*
X37065147Y32308463D01*
X37083781Y32283338D01*
X37099862Y32256508D01*
X37113237Y32228230D01*
X37123775Y32198778D01*
X37131375Y32168435D01*
X37135965Y32137493D01*
X37137500Y32106250D01*
X37137500Y31393750D01*
X37135965Y31362507D01*
X37131375Y31331565D01*
X37123775Y31301222D01*
X37113237Y31271770D01*
X37099862Y31243492D01*
X37083781Y31216662D01*
X37065147Y31191537D01*
X37044140Y31168360D01*
X37020963Y31147353D01*
X36995838Y31128719D01*
X36969008Y31112638D01*
X36940730Y31099263D01*
X36911278Y31088725D01*
X36880935Y31081125D01*
X36849993Y31076535D01*
X36818750Y31075000D01*
X36181250Y31075000D01*
X36150007Y31076535D01*
X36119065Y31081125D01*
X36088722Y31088725D01*
X36059270Y31099263D01*
X36030992Y31112638D01*
X36004162Y31128719D01*
X35979037Y31147353D01*
X35955860Y31168360D01*
X35934853Y31191537D01*
X35916219Y31216662D01*
X35900138Y31243492D01*
X35886763Y31271770D01*
X35876225Y31301222D01*
X35868625Y31331565D01*
X35864035Y31362507D01*
X35862500Y31393750D01*
X35862500Y32106250D01*
X35864035Y32137493D01*
X35868625Y32168435D01*
X35876225Y32198778D01*
X35886763Y32228230D01*
X35900138Y32256508D01*
X35916219Y32283338D01*
X35934853Y32308463D01*
X35955860Y32331640D01*
X35979037Y32352647D01*
X36004162Y32371281D01*
X36030992Y32387362D01*
X36059270Y32400737D01*
X36088722Y32411275D01*
X36119065Y32418875D01*
X36150007Y32423465D01*
X36181250Y32425000D01*
X36818750Y32425000D01*
X36849993Y32423465D01*
X36849993Y32423465D01*
G37*
D14*
X36500000Y31750000D03*
D13*
G36*
X35274993Y32423465D02*
X35305935Y32418875D01*
X35336278Y32411275D01*
X35365730Y32400737D01*
X35394008Y32387362D01*
X35420838Y32371281D01*
X35445963Y32352647D01*
X35469140Y32331640D01*
X35490147Y32308463D01*
X35508781Y32283338D01*
X35524862Y32256508D01*
X35538237Y32228230D01*
X35548775Y32198778D01*
X35556375Y32168435D01*
X35560965Y32137493D01*
X35562500Y32106250D01*
X35562500Y31393750D01*
X35560965Y31362507D01*
X35556375Y31331565D01*
X35548775Y31301222D01*
X35538237Y31271770D01*
X35524862Y31243492D01*
X35508781Y31216662D01*
X35490147Y31191537D01*
X35469140Y31168360D01*
X35445963Y31147353D01*
X35420838Y31128719D01*
X35394008Y31112638D01*
X35365730Y31099263D01*
X35336278Y31088725D01*
X35305935Y31081125D01*
X35274993Y31076535D01*
X35243750Y31075000D01*
X34606250Y31075000D01*
X34575007Y31076535D01*
X34544065Y31081125D01*
X34513722Y31088725D01*
X34484270Y31099263D01*
X34455992Y31112638D01*
X34429162Y31128719D01*
X34404037Y31147353D01*
X34380860Y31168360D01*
X34359853Y31191537D01*
X34341219Y31216662D01*
X34325138Y31243492D01*
X34311763Y31271770D01*
X34301225Y31301222D01*
X34293625Y31331565D01*
X34289035Y31362507D01*
X34287500Y31393750D01*
X34287500Y32106250D01*
X34289035Y32137493D01*
X34293625Y32168435D01*
X34301225Y32198778D01*
X34311763Y32228230D01*
X34325138Y32256508D01*
X34341219Y32283338D01*
X34359853Y32308463D01*
X34380860Y32331640D01*
X34404037Y32352647D01*
X34429162Y32371281D01*
X34455992Y32387362D01*
X34484270Y32400737D01*
X34513722Y32411275D01*
X34544065Y32418875D01*
X34575007Y32423465D01*
X34606250Y32425000D01*
X35243750Y32425000D01*
X35274993Y32423465D01*
X35274993Y32423465D01*
G37*
D14*
X34925000Y31750000D03*
G04 #@! TD*
D13*
G04 #@! TO.C,R14*
G36*
X35274993Y30823465D02*
X35305935Y30818875D01*
X35336278Y30811275D01*
X35365730Y30800737D01*
X35394008Y30787362D01*
X35420838Y30771281D01*
X35445963Y30752647D01*
X35469140Y30731640D01*
X35490147Y30708463D01*
X35508781Y30683338D01*
X35524862Y30656508D01*
X35538237Y30628230D01*
X35548775Y30598778D01*
X35556375Y30568435D01*
X35560965Y30537493D01*
X35562500Y30506250D01*
X35562500Y29793750D01*
X35560965Y29762507D01*
X35556375Y29731565D01*
X35548775Y29701222D01*
X35538237Y29671770D01*
X35524862Y29643492D01*
X35508781Y29616662D01*
X35490147Y29591537D01*
X35469140Y29568360D01*
X35445963Y29547353D01*
X35420838Y29528719D01*
X35394008Y29512638D01*
X35365730Y29499263D01*
X35336278Y29488725D01*
X35305935Y29481125D01*
X35274993Y29476535D01*
X35243750Y29475000D01*
X34606250Y29475000D01*
X34575007Y29476535D01*
X34544065Y29481125D01*
X34513722Y29488725D01*
X34484270Y29499263D01*
X34455992Y29512638D01*
X34429162Y29528719D01*
X34404037Y29547353D01*
X34380860Y29568360D01*
X34359853Y29591537D01*
X34341219Y29616662D01*
X34325138Y29643492D01*
X34311763Y29671770D01*
X34301225Y29701222D01*
X34293625Y29731565D01*
X34289035Y29762507D01*
X34287500Y29793750D01*
X34287500Y30506250D01*
X34289035Y30537493D01*
X34293625Y30568435D01*
X34301225Y30598778D01*
X34311763Y30628230D01*
X34325138Y30656508D01*
X34341219Y30683338D01*
X34359853Y30708463D01*
X34380860Y30731640D01*
X34404037Y30752647D01*
X34429162Y30771281D01*
X34455992Y30787362D01*
X34484270Y30800737D01*
X34513722Y30811275D01*
X34544065Y30818875D01*
X34575007Y30823465D01*
X34606250Y30825000D01*
X35243750Y30825000D01*
X35274993Y30823465D01*
X35274993Y30823465D01*
G37*
D14*
X34925000Y30150000D03*
D13*
G36*
X36849993Y30823465D02*
X36880935Y30818875D01*
X36911278Y30811275D01*
X36940730Y30800737D01*
X36969008Y30787362D01*
X36995838Y30771281D01*
X37020963Y30752647D01*
X37044140Y30731640D01*
X37065147Y30708463D01*
X37083781Y30683338D01*
X37099862Y30656508D01*
X37113237Y30628230D01*
X37123775Y30598778D01*
X37131375Y30568435D01*
X37135965Y30537493D01*
X37137500Y30506250D01*
X37137500Y29793750D01*
X37135965Y29762507D01*
X37131375Y29731565D01*
X37123775Y29701222D01*
X37113237Y29671770D01*
X37099862Y29643492D01*
X37083781Y29616662D01*
X37065147Y29591537D01*
X37044140Y29568360D01*
X37020963Y29547353D01*
X36995838Y29528719D01*
X36969008Y29512638D01*
X36940730Y29499263D01*
X36911278Y29488725D01*
X36880935Y29481125D01*
X36849993Y29476535D01*
X36818750Y29475000D01*
X36181250Y29475000D01*
X36150007Y29476535D01*
X36119065Y29481125D01*
X36088722Y29488725D01*
X36059270Y29499263D01*
X36030992Y29512638D01*
X36004162Y29528719D01*
X35979037Y29547353D01*
X35955860Y29568360D01*
X35934853Y29591537D01*
X35916219Y29616662D01*
X35900138Y29643492D01*
X35886763Y29671770D01*
X35876225Y29701222D01*
X35868625Y29731565D01*
X35864035Y29762507D01*
X35862500Y29793750D01*
X35862500Y30506250D01*
X35864035Y30537493D01*
X35868625Y30568435D01*
X35876225Y30598778D01*
X35886763Y30628230D01*
X35900138Y30656508D01*
X35916219Y30683338D01*
X35934853Y30708463D01*
X35955860Y30731640D01*
X35979037Y30752647D01*
X36004162Y30771281D01*
X36030992Y30787362D01*
X36059270Y30800737D01*
X36088722Y30811275D01*
X36119065Y30818875D01*
X36150007Y30823465D01*
X36181250Y30825000D01*
X36818750Y30825000D01*
X36849993Y30823465D01*
X36849993Y30823465D01*
G37*
D14*
X36500000Y30150000D03*
G04 #@! TD*
D15*
G04 #@! TO.C,MH1*
X3500000Y3500000D03*
G04 #@! TD*
G04 #@! TO.C,MH2*
X64500000Y3500000D03*
G04 #@! TD*
G04 #@! TO.C,MH3*
X64500000Y49000000D03*
G04 #@! TD*
G04 #@! TO.C,MH4*
X3500000Y49000000D03*
G04 #@! TD*
D16*
G04 #@! TO.C,J9*
X9870000Y38980000D03*
X9870000Y44020000D03*
X12410000Y38980000D03*
X12410000Y44020000D03*
X14950000Y38980000D03*
X14950000Y44020000D03*
X17490000Y38980000D03*
X17490000Y44020000D03*
X20030000Y38980000D03*
X20030000Y44020000D03*
X22570000Y38980000D03*
X22570000Y44020000D03*
X25110000Y38980000D03*
X25110000Y44020000D03*
X27650000Y38980000D03*
X27650000Y44020000D03*
X30190000Y38980000D03*
X30190000Y44020000D03*
X32730000Y38980000D03*
X32730000Y44020000D03*
X35270000Y38980000D03*
X35270000Y44020000D03*
X37810000Y38980000D03*
X37810000Y44020000D03*
X40350000Y38980000D03*
X40350000Y44020000D03*
X42890000Y38980000D03*
X42890000Y44020000D03*
X45430000Y38980000D03*
X45430000Y44020000D03*
X47970000Y38980000D03*
X47970000Y44020000D03*
X50510000Y38980000D03*
X50510000Y44020000D03*
X53050000Y38980000D03*
X53050000Y44020000D03*
X55590000Y38980000D03*
X55590000Y44020000D03*
X58130000Y38980000D03*
X58130000Y44020000D03*
G04 #@! TD*
D17*
G04 #@! TO.C,J2*
X61858753Y34067358D03*
X59318753Y34067358D03*
X56778753Y34067358D03*
X54238753Y34067358D03*
X51698753Y34067358D03*
X49158753Y34067358D03*
X46618753Y34067358D03*
X44078753Y34067358D03*
X41538753Y34067358D03*
X38998753Y34067358D03*
D18*
X36458753Y34067358D03*
X33918753Y34067358D03*
X31378753Y34067358D03*
D17*
X28838753Y34067358D03*
X26298753Y34067358D03*
X23758753Y34067358D03*
X21218753Y34067358D03*
X18678753Y34067358D03*
X16138753Y34067358D03*
D19*
X13598753Y34067358D03*
G04 #@! TD*
G04 #@! TO.C,J6*
X13598753Y16287358D03*
D17*
X16138753Y16287358D03*
X18678753Y16287358D03*
X21218753Y16287358D03*
X23758753Y16287358D03*
X26298753Y16287358D03*
X28838753Y16287358D03*
X31378753Y16287358D03*
X33918753Y16287358D03*
X36458753Y16287358D03*
X38998753Y16287358D03*
X41538753Y16287358D03*
X44078753Y16287358D03*
X46618753Y16287358D03*
X49158753Y16287358D03*
X51698753Y16287358D03*
X54238753Y16287358D03*
X56778753Y16287358D03*
X59318753Y16287358D03*
X61858753Y16287358D03*
G04 #@! TD*
D19*
G04 #@! TO.C,J4*
X9440000Y12490000D03*
D17*
X6900000Y12490000D03*
X9440000Y15030000D03*
X6900000Y15030000D03*
X9440000Y17570000D03*
X6900000Y17570000D03*
X9440000Y20110000D03*
X6900000Y20110000D03*
X9440000Y22650000D03*
X6900000Y22650000D03*
X9440000Y25190000D03*
X6900000Y25190000D03*
X9440000Y27730000D03*
X6900000Y27730000D03*
X9440000Y30270000D03*
X6900000Y30270000D03*
X9440000Y32810000D03*
X6900000Y32810000D03*
G04 #@! TD*
G04 #@! TO.C,J5*
X64398753Y34067358D03*
D19*
X64398753Y31527358D03*
G04 #@! TD*
G04 #@! TO.C,J7*
X64398753Y16287358D03*
D17*
X64398753Y18827358D03*
G04 #@! TD*
M02*
