G04 #@! TF.GenerationSoftware,KiCad,Pcbnew,(5.0.0)*
G04 #@! TF.CreationDate,2020-06-15T03:47:07+09:00*
G04 #@! TF.ProjectId,WioTerminal_TangNano,57696F5465726D696E616C5F54616E67,rev?*
G04 #@! TF.SameCoordinates,Original*
G04 #@! TF.FileFunction,Legend,Top*
G04 #@! TF.FilePolarity,Positive*
%FSLAX46Y46*%
G04 Gerber Fmt 4.6, Leading zero omitted, Abs format (unit mm)*
G04 Created by KiCad (PCBNEW (5.0.0)) date 06/15/20 03:47:07*
%MOMM*%
%LPD*%
G01*
G04 APERTURE LIST*
%ADD10C,0.150000*%
%ADD11C,0.120000*%
G04 APERTURE END LIST*
D10*
G04 #@! TO.C,J3*
X55800000Y11750000D02*
X56300000Y12750000D01*
X56300000Y12750000D02*
X55300000Y12750000D01*
X55300000Y12750000D02*
X55800000Y11750000D01*
X55700000Y11950000D02*
X55900000Y11950000D01*
X55900000Y11950000D02*
X55700000Y12050000D01*
X55700000Y12050000D02*
X55900000Y12050000D01*
X55900000Y12050000D02*
X55600000Y12150000D01*
X55600000Y12150000D02*
X56000000Y12150000D01*
X56000000Y12150000D02*
X55600000Y12250000D01*
X55600000Y12250000D02*
X56000000Y12250000D01*
X56000000Y12250000D02*
X55500000Y12350000D01*
X55500000Y12350000D02*
X56100000Y12350000D01*
X56100000Y12350000D02*
X55500000Y12450000D01*
X55500000Y12450000D02*
X56100000Y12450000D01*
X56100000Y12450000D02*
X55400000Y12550000D01*
X55400000Y12550000D02*
X56200000Y12550000D01*
X56200000Y12550000D02*
X55400000Y12650000D01*
X55400000Y12650000D02*
X56200000Y12650000D01*
D11*
G04 #@! TO.C,C12*
X50962779Y12960000D02*
X50637221Y12960000D01*
X50962779Y11940000D02*
X50637221Y11940000D01*
D10*
G04 #@! TO.C,J8*
X37400000Y9000000D02*
X37800000Y9000000D01*
X37800000Y9000000D02*
X37600000Y8600000D01*
X37600000Y8600000D02*
X37400000Y9000000D01*
X37400000Y9000000D02*
X37500000Y8900000D01*
X37500000Y8900000D02*
X37600000Y8900000D01*
X37600000Y8900000D02*
X37600000Y8800000D01*
D11*
G04 #@! TO.C,J1*
X8540000Y38900000D02*
X8540000Y44100000D01*
X59460000Y38900000D02*
X59460000Y44100000D01*
X9110000Y37460000D02*
X9110000Y38900000D01*
X8540000Y38900000D02*
X9110000Y38900000D01*
X8540000Y44100000D02*
X9110000Y44100000D01*
X58890000Y38900000D02*
X59460000Y38900000D01*
X58890000Y44100000D02*
X59460000Y44100000D01*
X10630000Y38900000D02*
X11650000Y38900000D01*
X10630000Y44100000D02*
X11650000Y44100000D01*
X13170000Y38900000D02*
X14190000Y38900000D01*
X13170000Y44100000D02*
X14190000Y44100000D01*
X15710000Y38900000D02*
X16730000Y38900000D01*
X15710000Y44100000D02*
X16730000Y44100000D01*
X18250000Y38900000D02*
X19270000Y38900000D01*
X18250000Y44100000D02*
X19270000Y44100000D01*
X20790000Y38900000D02*
X21810000Y38900000D01*
X20790000Y44100000D02*
X21810000Y44100000D01*
X23330000Y38900000D02*
X24350000Y38900000D01*
X23330000Y44100000D02*
X24350000Y44100000D01*
X25870000Y38900000D02*
X26890000Y38900000D01*
X25870000Y44100000D02*
X26890000Y44100000D01*
X28410000Y38900000D02*
X29430000Y38900000D01*
X28410000Y44100000D02*
X29430000Y44100000D01*
X30950000Y38900000D02*
X31970000Y38900000D01*
X30950000Y44100000D02*
X31970000Y44100000D01*
X33490000Y38900000D02*
X34510000Y38900000D01*
X33490000Y44100000D02*
X34510000Y44100000D01*
X36030000Y38900000D02*
X37050000Y38900000D01*
X36030000Y44100000D02*
X37050000Y44100000D01*
X38570000Y38900000D02*
X39590000Y38900000D01*
X38570000Y44100000D02*
X39590000Y44100000D01*
X41110000Y38900000D02*
X42130000Y38900000D01*
X41110000Y44100000D02*
X42130000Y44100000D01*
X43650000Y38900000D02*
X44670000Y38900000D01*
X43650000Y44100000D02*
X44670000Y44100000D01*
X46190000Y38900000D02*
X47210000Y38900000D01*
X46190000Y44100000D02*
X47210000Y44100000D01*
X48730000Y38900000D02*
X49750000Y38900000D01*
X48730000Y44100000D02*
X49750000Y44100000D01*
X51270000Y38900000D02*
X52290000Y38900000D01*
X51270000Y44100000D02*
X52290000Y44100000D01*
X53810000Y38900000D02*
X54830000Y38900000D01*
X53810000Y44100000D02*
X54830000Y44100000D01*
X56350000Y38900000D02*
X57370000Y38900000D01*
X56350000Y44100000D02*
X57370000Y44100000D01*
G04 #@! TO.C,J2*
X12268753Y34067358D02*
X12268753Y35397358D01*
X12268753Y35397358D02*
X13598753Y35397358D01*
X14868753Y35397358D02*
X63188753Y35397358D01*
X63188753Y32737358D02*
X63188753Y35397358D01*
X14868753Y32737358D02*
X63188753Y32737358D01*
X14868753Y32737358D02*
X14868753Y35397358D01*
G04 #@! TO.C,J6*
X14868753Y14957358D02*
X14868753Y17617358D01*
X14868753Y14957358D02*
X63188753Y14957358D01*
X63188753Y14957358D02*
X63188753Y17617358D01*
X14868753Y17617358D02*
X63188753Y17617358D01*
X12268753Y17617358D02*
X13598753Y17617358D01*
X12268753Y16287358D02*
X12268753Y17617358D01*
G04 #@! TO.C,J4*
X5460000Y11160000D02*
X5460000Y34140000D01*
X5460000Y34140000D02*
X2800000Y34140000D01*
X2800000Y34140000D02*
X2800000Y11160000D01*
X2800000Y11160000D02*
X5460000Y11160000D01*
X2800000Y12110000D02*
X-3200000Y12110000D01*
X-3200000Y12110000D02*
X-3200000Y12870000D01*
X-3200000Y12870000D02*
X2800000Y12870000D01*
X2800000Y12170000D02*
X-3200000Y12170000D01*
X2800000Y12290000D02*
X-3200000Y12290000D01*
X2800000Y12410000D02*
X-3200000Y12410000D01*
X2800000Y12530000D02*
X-3200000Y12530000D01*
X2800000Y12650000D02*
X-3200000Y12650000D01*
X2800000Y12770000D02*
X-3200000Y12770000D01*
X5857071Y12110000D02*
X5460000Y12110000D01*
X5857071Y12870000D02*
X5460000Y12870000D01*
X8330000Y12110000D02*
X7942929Y12110000D01*
X8330000Y12870000D02*
X7942929Y12870000D01*
X5460000Y13760000D02*
X2800000Y13760000D01*
X2800000Y14650000D02*
X-3200000Y14650000D01*
X-3200000Y14650000D02*
X-3200000Y15410000D01*
X-3200000Y15410000D02*
X2800000Y15410000D01*
X5857071Y14650000D02*
X5460000Y14650000D01*
X5857071Y15410000D02*
X5460000Y15410000D01*
X8397071Y14650000D02*
X7942929Y14650000D01*
X8397071Y15410000D02*
X7942929Y15410000D01*
X5460000Y16300000D02*
X2800000Y16300000D01*
X2800000Y17190000D02*
X-3200000Y17190000D01*
X-3200000Y17190000D02*
X-3200000Y17950000D01*
X-3200000Y17950000D02*
X2800000Y17950000D01*
X5857071Y17190000D02*
X5460000Y17190000D01*
X5857071Y17950000D02*
X5460000Y17950000D01*
X8397071Y17190000D02*
X7942929Y17190000D01*
X8397071Y17950000D02*
X7942929Y17950000D01*
X5460000Y18840000D02*
X2800000Y18840000D01*
X2800000Y19730000D02*
X-3200000Y19730000D01*
X-3200000Y19730000D02*
X-3200000Y20490000D01*
X-3200000Y20490000D02*
X2800000Y20490000D01*
X5857071Y19730000D02*
X5460000Y19730000D01*
X5857071Y20490000D02*
X5460000Y20490000D01*
X8397071Y19730000D02*
X7942929Y19730000D01*
X8397071Y20490000D02*
X7942929Y20490000D01*
X5460000Y21380000D02*
X2800000Y21380000D01*
X2800000Y22270000D02*
X-3200000Y22270000D01*
X-3200000Y22270000D02*
X-3200000Y23030000D01*
X-3200000Y23030000D02*
X2800000Y23030000D01*
X5857071Y22270000D02*
X5460000Y22270000D01*
X5857071Y23030000D02*
X5460000Y23030000D01*
X8397071Y22270000D02*
X7942929Y22270000D01*
X8397071Y23030000D02*
X7942929Y23030000D01*
X5460000Y23920000D02*
X2800000Y23920000D01*
X2800000Y24810000D02*
X-3200000Y24810000D01*
X-3200000Y24810000D02*
X-3200000Y25570000D01*
X-3200000Y25570000D02*
X2800000Y25570000D01*
X5857071Y24810000D02*
X5460000Y24810000D01*
X5857071Y25570000D02*
X5460000Y25570000D01*
X8397071Y24810000D02*
X7942929Y24810000D01*
X8397071Y25570000D02*
X7942929Y25570000D01*
X5460000Y26460000D02*
X2800000Y26460000D01*
X2800000Y27350000D02*
X-3200000Y27350000D01*
X-3200000Y27350000D02*
X-3200000Y28110000D01*
X-3200000Y28110000D02*
X2800000Y28110000D01*
X5857071Y27350000D02*
X5460000Y27350000D01*
X5857071Y28110000D02*
X5460000Y28110000D01*
X8397071Y27350000D02*
X7942929Y27350000D01*
X8397071Y28110000D02*
X7942929Y28110000D01*
X5460000Y29000000D02*
X2800000Y29000000D01*
X2800000Y29890000D02*
X-3200000Y29890000D01*
X-3200000Y29890000D02*
X-3200000Y30650000D01*
X-3200000Y30650000D02*
X2800000Y30650000D01*
X5857071Y29890000D02*
X5460000Y29890000D01*
X5857071Y30650000D02*
X5460000Y30650000D01*
X8397071Y29890000D02*
X7942929Y29890000D01*
X8397071Y30650000D02*
X7942929Y30650000D01*
X5460000Y31540000D02*
X2800000Y31540000D01*
X2800000Y32430000D02*
X-3200000Y32430000D01*
X-3200000Y32430000D02*
X-3200000Y33190000D01*
X-3200000Y33190000D02*
X2800000Y33190000D01*
X5857071Y32430000D02*
X5460000Y32430000D01*
X5857071Y33190000D02*
X5460000Y33190000D01*
X8397071Y32430000D02*
X7942929Y32430000D01*
X8397071Y33190000D02*
X7942929Y33190000D01*
X10710000Y12490000D02*
X10710000Y11220000D01*
X10710000Y11220000D02*
X9440000Y11220000D01*
G04 #@! TO.C,J5*
X64398753Y30197358D02*
X63068753Y30197358D01*
X63068753Y30197358D02*
X63068753Y31527358D01*
X63068753Y32797358D02*
X63068753Y35397358D01*
X65728753Y35397358D02*
X63068753Y35397358D01*
X65728753Y32797358D02*
X65728753Y35397358D01*
X65728753Y32797358D02*
X63068753Y32797358D01*
G04 #@! TO.C,J7*
X65728753Y17557358D02*
X63068753Y17557358D01*
X65728753Y17557358D02*
X65728753Y20157358D01*
X65728753Y20157358D02*
X63068753Y20157358D01*
X63068753Y17557358D02*
X63068753Y20157358D01*
X63068753Y14957358D02*
X63068753Y16287358D01*
X64398753Y14957358D02*
X63068753Y14957358D01*
G04 #@! TO.C,J3*
D10*
X56966666Y12797619D02*
X56966666Y12083333D01*
X56919047Y11940476D01*
X56823809Y11845238D01*
X56680952Y11797619D01*
X56585714Y11797619D01*
X57347619Y12797619D02*
X57966666Y12797619D01*
X57633333Y12416666D01*
X57776190Y12416666D01*
X57871428Y12369047D01*
X57919047Y12321428D01*
X57966666Y12226190D01*
X57966666Y11988095D01*
X57919047Y11892857D01*
X57871428Y11845238D01*
X57776190Y11797619D01*
X57490476Y11797619D01*
X57395238Y11845238D01*
X57347619Y11892857D01*
G04 #@! TO.C,C12*
X50157142Y13592857D02*
X50109523Y13545238D01*
X49966666Y13497619D01*
X49871428Y13497619D01*
X49728571Y13545238D01*
X49633333Y13640476D01*
X49585714Y13735714D01*
X49538095Y13926190D01*
X49538095Y14069047D01*
X49585714Y14259523D01*
X49633333Y14354761D01*
X49728571Y14450000D01*
X49871428Y14497619D01*
X49966666Y14497619D01*
X50109523Y14450000D01*
X50157142Y14402380D01*
X51109523Y13497619D02*
X50538095Y13497619D01*
X50823809Y13497619D02*
X50823809Y14497619D01*
X50728571Y14354761D01*
X50633333Y14259523D01*
X50538095Y14211904D01*
X51490476Y14402380D02*
X51538095Y14450000D01*
X51633333Y14497619D01*
X51871428Y14497619D01*
X51966666Y14450000D01*
X52014285Y14402380D01*
X52061904Y14307142D01*
X52061904Y14211904D01*
X52014285Y14069047D01*
X51442857Y13497619D01*
X52061904Y13497619D01*
G04 #@! TO.C,J8*
X37866666Y10397619D02*
X37866666Y9683333D01*
X37819047Y9540476D01*
X37723809Y9445238D01*
X37580952Y9397619D01*
X37485714Y9397619D01*
X38485714Y9969047D02*
X38390476Y10016666D01*
X38342857Y10064285D01*
X38295238Y10159523D01*
X38295238Y10207142D01*
X38342857Y10302380D01*
X38390476Y10350000D01*
X38485714Y10397619D01*
X38676190Y10397619D01*
X38771428Y10350000D01*
X38819047Y10302380D01*
X38866666Y10207142D01*
X38866666Y10159523D01*
X38819047Y10064285D01*
X38771428Y10016666D01*
X38676190Y9969047D01*
X38485714Y9969047D01*
X38390476Y9921428D01*
X38342857Y9873809D01*
X38295238Y9778571D01*
X38295238Y9588095D01*
X38342857Y9492857D01*
X38390476Y9445238D01*
X38485714Y9397619D01*
X38676190Y9397619D01*
X38771428Y9445238D01*
X38819047Y9492857D01*
X38866666Y9588095D01*
X38866666Y9778571D01*
X38819047Y9873809D01*
X38771428Y9921428D01*
X38676190Y9969047D01*
G04 #@! TO.C,R5*
X31352380Y10983333D02*
X30876190Y10650000D01*
X31352380Y10411904D02*
X30352380Y10411904D01*
X30352380Y10792857D01*
X30400000Y10888095D01*
X30447619Y10935714D01*
X30542857Y10983333D01*
X30685714Y10983333D01*
X30780952Y10935714D01*
X30828571Y10888095D01*
X30876190Y10792857D01*
X30876190Y10411904D01*
X30352380Y11888095D02*
X30352380Y11411904D01*
X30828571Y11364285D01*
X30780952Y11411904D01*
X30733333Y11507142D01*
X30733333Y11745238D01*
X30780952Y11840476D01*
X30828571Y11888095D01*
X30923809Y11935714D01*
X31161904Y11935714D01*
X31257142Y11888095D01*
X31304761Y11840476D01*
X31352380Y11745238D01*
X31352380Y11507142D01*
X31304761Y11411904D01*
X31257142Y11364285D01*
G04 #@! TO.C,R6*
X29952380Y10983333D02*
X29476190Y10650000D01*
X29952380Y10411904D02*
X28952380Y10411904D01*
X28952380Y10792857D01*
X29000000Y10888095D01*
X29047619Y10935714D01*
X29142857Y10983333D01*
X29285714Y10983333D01*
X29380952Y10935714D01*
X29428571Y10888095D01*
X29476190Y10792857D01*
X29476190Y10411904D01*
X28952380Y11840476D02*
X28952380Y11650000D01*
X29000000Y11554761D01*
X29047619Y11507142D01*
X29190476Y11411904D01*
X29380952Y11364285D01*
X29761904Y11364285D01*
X29857142Y11411904D01*
X29904761Y11459523D01*
X29952380Y11554761D01*
X29952380Y11745238D01*
X29904761Y11840476D01*
X29857142Y11888095D01*
X29761904Y11935714D01*
X29523809Y11935714D01*
X29428571Y11888095D01*
X29380952Y11840476D01*
X29333333Y11745238D01*
X29333333Y11554761D01*
X29380952Y11459523D01*
X29428571Y11411904D01*
X29523809Y11364285D01*
G04 #@! TO.C,R7*
X26252380Y10983333D02*
X25776190Y10650000D01*
X26252380Y10411904D02*
X25252380Y10411904D01*
X25252380Y10792857D01*
X25300000Y10888095D01*
X25347619Y10935714D01*
X25442857Y10983333D01*
X25585714Y10983333D01*
X25680952Y10935714D01*
X25728571Y10888095D01*
X25776190Y10792857D01*
X25776190Y10411904D01*
X25252380Y11316666D02*
X25252380Y11983333D01*
X26252380Y11554761D01*
G04 #@! TO.C,R8*
X24952380Y10983333D02*
X24476190Y10650000D01*
X24952380Y10411904D02*
X23952380Y10411904D01*
X23952380Y10792857D01*
X24000000Y10888095D01*
X24047619Y10935714D01*
X24142857Y10983333D01*
X24285714Y10983333D01*
X24380952Y10935714D01*
X24428571Y10888095D01*
X24476190Y10792857D01*
X24476190Y10411904D01*
X24380952Y11554761D02*
X24333333Y11459523D01*
X24285714Y11411904D01*
X24190476Y11364285D01*
X24142857Y11364285D01*
X24047619Y11411904D01*
X24000000Y11459523D01*
X23952380Y11554761D01*
X23952380Y11745238D01*
X24000000Y11840476D01*
X24047619Y11888095D01*
X24142857Y11935714D01*
X24190476Y11935714D01*
X24285714Y11888095D01*
X24333333Y11840476D01*
X24380952Y11745238D01*
X24380952Y11554761D01*
X24428571Y11459523D01*
X24476190Y11411904D01*
X24571428Y11364285D01*
X24761904Y11364285D01*
X24857142Y11411904D01*
X24904761Y11459523D01*
X24952380Y11554761D01*
X24952380Y11745238D01*
X24904761Y11840476D01*
X24857142Y11888095D01*
X24761904Y11935714D01*
X24571428Y11935714D01*
X24476190Y11888095D01*
X24428571Y11840476D01*
X24380952Y11745238D01*
G04 #@! TO.C,R9*
X21152380Y10883333D02*
X20676190Y10550000D01*
X21152380Y10311904D02*
X20152380Y10311904D01*
X20152380Y10692857D01*
X20200000Y10788095D01*
X20247619Y10835714D01*
X20342857Y10883333D01*
X20485714Y10883333D01*
X20580952Y10835714D01*
X20628571Y10788095D01*
X20676190Y10692857D01*
X20676190Y10311904D01*
X21152380Y11359523D02*
X21152380Y11550000D01*
X21104761Y11645238D01*
X21057142Y11692857D01*
X20914285Y11788095D01*
X20723809Y11835714D01*
X20342857Y11835714D01*
X20247619Y11788095D01*
X20200000Y11740476D01*
X20152380Y11645238D01*
X20152380Y11454761D01*
X20200000Y11359523D01*
X20247619Y11311904D01*
X20342857Y11264285D01*
X20580952Y11264285D01*
X20676190Y11311904D01*
X20723809Y11359523D01*
X20771428Y11454761D01*
X20771428Y11645238D01*
X20723809Y11740476D01*
X20676190Y11788095D01*
X20580952Y11835714D01*
G04 #@! TO.C,R10*
X19802380Y10007142D02*
X19326190Y9673809D01*
X19802380Y9435714D02*
X18802380Y9435714D01*
X18802380Y9816666D01*
X18850000Y9911904D01*
X18897619Y9959523D01*
X18992857Y10007142D01*
X19135714Y10007142D01*
X19230952Y9959523D01*
X19278571Y9911904D01*
X19326190Y9816666D01*
X19326190Y9435714D01*
X19802380Y10959523D02*
X19802380Y10388095D01*
X19802380Y10673809D02*
X18802380Y10673809D01*
X18945238Y10578571D01*
X19040476Y10483333D01*
X19088095Y10388095D01*
X18802380Y11578571D02*
X18802380Y11673809D01*
X18850000Y11769047D01*
X18897619Y11816666D01*
X18992857Y11864285D01*
X19183333Y11911904D01*
X19421428Y11911904D01*
X19611904Y11864285D01*
X19707142Y11816666D01*
X19754761Y11769047D01*
X19802380Y11673809D01*
X19802380Y11578571D01*
X19754761Y11483333D01*
X19707142Y11435714D01*
X19611904Y11388095D01*
X19421428Y11340476D01*
X19183333Y11340476D01*
X18992857Y11388095D01*
X18897619Y11435714D01*
X18850000Y11483333D01*
X18802380Y11578571D01*
G04 #@! TO.C,R15*
X15982380Y10007142D02*
X15506190Y9673809D01*
X15982380Y9435714D02*
X14982380Y9435714D01*
X14982380Y9816666D01*
X15030000Y9911904D01*
X15077619Y9959523D01*
X15172857Y10007142D01*
X15315714Y10007142D01*
X15410952Y9959523D01*
X15458571Y9911904D01*
X15506190Y9816666D01*
X15506190Y9435714D01*
X15982380Y10959523D02*
X15982380Y10388095D01*
X15982380Y10673809D02*
X14982380Y10673809D01*
X15125238Y10578571D01*
X15220476Y10483333D01*
X15268095Y10388095D01*
X14982380Y11864285D02*
X14982380Y11388095D01*
X15458571Y11340476D01*
X15410952Y11388095D01*
X15363333Y11483333D01*
X15363333Y11721428D01*
X15410952Y11816666D01*
X15458571Y11864285D01*
X15553809Y11911904D01*
X15791904Y11911904D01*
X15887142Y11864285D01*
X15934761Y11816666D01*
X15982380Y11721428D01*
X15982380Y11483333D01*
X15934761Y11388095D01*
X15887142Y11340476D01*
G04 #@! TO.C,R16*
X14722380Y10007142D02*
X14246190Y9673809D01*
X14722380Y9435714D02*
X13722380Y9435714D01*
X13722380Y9816666D01*
X13770000Y9911904D01*
X13817619Y9959523D01*
X13912857Y10007142D01*
X14055714Y10007142D01*
X14150952Y9959523D01*
X14198571Y9911904D01*
X14246190Y9816666D01*
X14246190Y9435714D01*
X14722380Y10959523D02*
X14722380Y10388095D01*
X14722380Y10673809D02*
X13722380Y10673809D01*
X13865238Y10578571D01*
X13960476Y10483333D01*
X14008095Y10388095D01*
X13722380Y11816666D02*
X13722380Y11626190D01*
X13770000Y11530952D01*
X13817619Y11483333D01*
X13960476Y11388095D01*
X14150952Y11340476D01*
X14531904Y11340476D01*
X14627142Y11388095D01*
X14674761Y11435714D01*
X14722380Y11530952D01*
X14722380Y11721428D01*
X14674761Y11816666D01*
X14627142Y11864285D01*
X14531904Y11911904D01*
X14293809Y11911904D01*
X14198571Y11864285D01*
X14150952Y11816666D01*
X14103333Y11721428D01*
X14103333Y11530952D01*
X14150952Y11435714D01*
X14198571Y11388095D01*
X14293809Y11340476D01*
G04 #@! TO.C,R17*
X42752380Y9507142D02*
X42276190Y9173809D01*
X42752380Y8935714D02*
X41752380Y8935714D01*
X41752380Y9316666D01*
X41800000Y9411904D01*
X41847619Y9459523D01*
X41942857Y9507142D01*
X42085714Y9507142D01*
X42180952Y9459523D01*
X42228571Y9411904D01*
X42276190Y9316666D01*
X42276190Y8935714D01*
X42752380Y10459523D02*
X42752380Y9888095D01*
X42752380Y10173809D02*
X41752380Y10173809D01*
X41895238Y10078571D01*
X41990476Y9983333D01*
X42038095Y9888095D01*
X41752380Y10792857D02*
X41752380Y11459523D01*
X42752380Y11030952D01*
G04 #@! TO.C,J1*
X6992380Y41166666D02*
X7706666Y41166666D01*
X7849523Y41119047D01*
X7944761Y41023809D01*
X7992380Y40880952D01*
X7992380Y40785714D01*
X7992380Y42166666D02*
X7992380Y41595238D01*
X7992380Y41880952D02*
X6992380Y41880952D01*
X7135238Y41785714D01*
X7230476Y41690476D01*
X7278095Y41595238D01*
G04 #@! TO.C,J2*
X10281133Y33734024D02*
X10995419Y33734024D01*
X11138276Y33686405D01*
X11233514Y33591167D01*
X11281133Y33448310D01*
X11281133Y33353072D01*
X10376372Y34162596D02*
X10328753Y34210215D01*
X10281133Y34305453D01*
X10281133Y34543548D01*
X10328753Y34638786D01*
X10376372Y34686405D01*
X10471610Y34734024D01*
X10566848Y34734024D01*
X10709705Y34686405D01*
X11281133Y34114977D01*
X11281133Y34734024D01*
G04 #@! TO.C,J6*
X10281133Y15954024D02*
X10995419Y15954024D01*
X11138276Y15906405D01*
X11233514Y15811167D01*
X11281133Y15668310D01*
X11281133Y15573072D01*
X10281133Y16858786D02*
X10281133Y16668310D01*
X10328753Y16573072D01*
X10376372Y16525453D01*
X10519229Y16430215D01*
X10709705Y16382596D01*
X11090657Y16382596D01*
X11185895Y16430215D01*
X11233514Y16477834D01*
X11281133Y16573072D01*
X11281133Y16763548D01*
X11233514Y16858786D01*
X11185895Y16906405D01*
X11090657Y16954024D01*
X10852562Y16954024D01*
X10757324Y16906405D01*
X10709705Y16858786D01*
X10662086Y16763548D01*
X10662086Y16573072D01*
X10709705Y16477834D01*
X10757324Y16430215D01*
X10852562Y16382596D01*
G04 #@! TO.C,J4*
X3451666Y10767619D02*
X3451666Y10053333D01*
X3404047Y9910476D01*
X3308809Y9815238D01*
X3165952Y9767619D01*
X3070714Y9767619D01*
X4356428Y10434285D02*
X4356428Y9767619D01*
X4118333Y10815238D02*
X3880238Y10100952D01*
X4499285Y10100952D01*
G04 #@! TO.C,J5*
X64065419Y29304977D02*
X64065419Y28590691D01*
X64017800Y28447834D01*
X63922562Y28352596D01*
X63779705Y28304977D01*
X63684467Y28304977D01*
X65017800Y29304977D02*
X64541610Y29304977D01*
X64493991Y28828786D01*
X64541610Y28876405D01*
X64636848Y28924024D01*
X64874943Y28924024D01*
X64970181Y28876405D01*
X65017800Y28828786D01*
X65065419Y28733548D01*
X65065419Y28495453D01*
X65017800Y28400215D01*
X64970181Y28352596D01*
X64874943Y28304977D01*
X64636848Y28304977D01*
X64541610Y28352596D01*
X64493991Y28400215D01*
G04 #@! TO.C,J7*
X64065419Y14064977D02*
X64065419Y13350691D01*
X64017800Y13207834D01*
X63922562Y13112596D01*
X63779705Y13064977D01*
X63684467Y13064977D01*
X64446372Y14064977D02*
X65113038Y14064977D01*
X64684467Y13064977D01*
G04 #@! TD*
M02*
