M48
;DRILL file {KiCad (5.0.0)} date 07/13/20 01:16:41
;FORMAT={-:-/ absolute / metric / decimal}
FMAT,2
METRIC,TZ
T1C0.400
T2C0.650
T3C0.762
T4C1.000
%
G90
G05
M71
T1
X1.5Y46.25
X1.5Y41.25
X1.5Y36.25
X1.5Y31.25
X1.5Y26.25
X1.5Y21.25
X1.5Y16.25
X1.5Y11.25
X1.5Y6.25
X2.9Y8.75
X3.2Y33.95
X5.7Y35.25
X6.2Y10.25
X6.4Y5.15
X6.5Y51.25
X6.5Y46.25
X6.5Y1.25
X7.2Y43.85
X7.4Y37.15
X8.7Y7.65
X9.87Y46.4
X9.87Y36.68
X11.Y10.45
X11.4Y5.05
X11.5Y51.25
X11.6Y2.05
X11.6Y2.05
X11.6Y2.05
X11.6Y2.05
X11.6Y2.05
X11.7Y32.35
X12.41Y46.34
X12.41Y36.64
X12.9Y13.65
X13.1Y29.75
X14.Y11.25
X14.1Y17.85
X14.95Y46.4
X14.95Y36.7
X15.Y4.95
X15.5Y32.25
X15.6Y9.65
X15.8Y27.45
X16.5Y51.25
X16.5Y1.25
X16.7Y12.05
X17.1Y26.15
X17.3Y8.05
X17.4Y17.45
X17.4Y13.85
X17.49Y46.316
X17.49Y36.664
X17.6Y10.95
X18.1Y32.25
X19.Y25.55
X19.Y11.35
X19.Y10.25
X19.1Y8.05
X19.1Y4.95
X19.2Y2.05
X20.03Y46.316
X20.03Y36.78
X20.7Y32.35
X20.9Y11.55
X21.Y24.95
X21.5Y51.25
X21.5Y1.25
X22.5Y17.55
X22.5Y15.05
X22.5Y12.45
X22.57Y46.316
X22.57Y36.664
X22.7Y8.15
X22.7Y4.95
X23.1Y32.25
X23.1Y24.25
X23.8Y11.15
X25.11Y46.316
X25.11Y36.664
X25.7Y32.25
X26.Y26.85
X26.4Y8.05
X26.4Y5.05
X26.5Y51.25
X26.5Y24.35
X26.5Y2.05
X26.5Y2.05
X26.5Y2.05
X27.5Y17.55
X27.5Y15.15
X27.65Y46.316
X27.65Y36.664
X28.5Y32.25
X28.9Y29.65
X29.2Y4.65
X29.4Y8.05
X29.9Y24.35
X30.1Y17.55
X30.19Y46.316
X30.19Y36.664
X30.7Y31.95
X31.5Y51.25
X31.5Y1.25
X32.Y31.75
X32.73Y46.316
X32.73Y36.62
X32.8Y18.55
X32.8Y6.25
X33.4Y30.15
X33.6Y14.65
X33.8Y24.35
X34.Y6.25
X34.1Y28.35
X34.8Y19.15
X35.Y14.15
X35.2Y12.75
X35.2Y6.25
X35.27Y46.316
X35.27Y36.68
X36.4Y26.35
X36.4Y6.25
X36.5Y51.25
X36.5Y1.25
X36.7Y12.75
X36.8Y19.75
X37.6Y14.95
X37.695Y6.549
X37.8Y31.75
X37.81Y46.36
X37.81Y36.64
X37.9Y28.95
X38.Y24.35
X38.1Y8.75
X38.5Y11.25
X38.5Y9.95
X39.1Y20.65
X39.2Y28.05
X39.4Y30.15
X39.5Y25.65
X39.9Y23.65
X40.3Y14.95
X40.35Y46.316
X40.35Y36.8
X40.4Y27.25
X41.Y9.85
X41.Y7.65
X41.Y5.65
X41.5Y51.25
X42.Y25.65
X42.1Y23.05
X42.2Y28.55
X42.3Y20.65
X42.6Y18.05
X42.7Y14.15
X42.7Y11.65
X42.89Y46.36
X42.89Y36.66
X43.2Y32.35
X43.2Y26.85
X43.4Y30.65
X43.4Y4.85
X43.8Y9.05
X44.Y31.65
X44.Y1.25
X44.3Y13.05
X44.8Y25.55
X45.2Y28.85
X45.4Y30.15
X45.4Y6.45
X45.43Y46.32
X45.43Y36.62
X45.5Y10.55
X45.7Y14.25
X45.9Y3.25
X46.5Y51.25
X47.1Y12.25
X47.3Y23.15
X47.4Y6.45
X47.6Y32.45
X47.97Y46.316
X47.97Y36.664
X48.1Y31.15
X48.1Y20.35
X48.5Y9.45
X48.8Y24.55
X49.2Y22.05
X49.2Y3.95
X49.8Y6.85
X50.2Y20.35
X50.51Y46.34
X50.51Y36.664
X50.9Y30.45
X50.9Y26.75
X51.5Y51.25
X51.5Y1.25
X51.7Y18.25
X52.6Y32.35
X52.6Y28.75
X52.7Y22.75
X52.8Y6.35
X53.05Y46.316
X53.05Y36.664
X53.8Y12.15
X54.Y1.25
X54.8Y21.15
X55.4Y14.85
X55.59Y46.316
X55.59Y36.664
X55.6Y28.75
X55.6Y25.55
X55.8Y12.15
X56.Y6.35
X56.3Y3.95
X56.5Y51.25
X57.6Y10.85
X57.6Y7.95
X57.8Y4.55
X57.9Y32.05
X58.Y24.45
X58.Y18.25
X58.13Y46.316
X58.13Y36.72
X59.3Y12.55
X59.5Y6.15
X59.8Y29.15
X59.9Y21.85
X60.1Y11.25
X60.1Y7.75
X61.5Y51.25
X61.5Y6.25
X61.5Y1.25
X61.9Y31.75
X62.Y23.25
X62.5Y18.15
X62.9Y43.35
X63.8Y21.05
X65.6Y29.25
X65.6Y21.05
X66.5Y46.25
X66.5Y41.25
X66.5Y11.25
X66.5Y6.25
X66.7Y15.45
T3
X9.87Y42.77
X9.87Y40.23
X12.41Y42.77
X12.41Y40.23
X14.95Y42.77
X14.95Y40.23
X17.49Y42.77
X17.49Y40.23
X20.03Y42.77
X20.03Y40.23
X22.57Y42.77
X22.57Y40.23
X25.11Y42.77
X25.11Y40.23
X27.65Y42.77
X27.65Y40.23
X30.19Y42.77
X30.19Y40.23
X32.73Y42.77
X32.73Y40.23
X35.27Y42.77
X35.27Y40.23
X37.81Y42.77
X37.81Y40.23
X40.35Y42.77
X40.35Y40.23
X42.89Y42.77
X42.89Y40.23
X45.43Y42.77
X45.43Y40.23
X47.97Y42.77
X47.97Y40.23
X50.51Y42.77
X50.51Y40.23
X53.05Y42.77
X53.05Y40.23
X55.59Y42.77
X55.59Y40.23
X58.13Y42.77
X58.13Y40.23
T4
X13.599Y16.287
X16.139Y16.287
X18.679Y16.287
X21.219Y16.287
X23.759Y16.287
X26.299Y16.287
X28.839Y16.287
X31.379Y16.287
X33.919Y16.287
X36.459Y16.287
X38.999Y16.287
X41.539Y16.287
X44.079Y16.287
X46.619Y16.287
X49.159Y16.287
X51.699Y16.287
X54.239Y16.287
X56.779Y16.287
X59.319Y16.287
X61.859Y16.287
X64.399Y34.067
X64.399Y31.527
X6.9Y32.81
X6.9Y30.27
X6.9Y27.73
X6.9Y25.19
X6.9Y22.65
X6.9Y20.11
X6.9Y17.57
X6.9Y15.03
X6.9Y12.49
X9.44Y32.81
X9.44Y30.27
X9.44Y27.73
X9.44Y25.19
X9.44Y22.65
X9.44Y20.11
X9.44Y17.57
X9.44Y15.03
X9.44Y12.49
X13.599Y34.067
X16.139Y34.067
X18.679Y34.067
X21.219Y34.067
X23.759Y34.067
X26.299Y34.067
X28.839Y34.067
X31.379Y34.067
X33.919Y34.067
X36.459Y34.067
X38.999Y34.067
X41.539Y34.067
X44.079Y34.067
X46.619Y34.067
X49.159Y34.067
X51.699Y34.067
X54.239Y34.067
X56.779Y34.067
X59.319Y34.067
X61.859Y34.067
X64.399Y18.827
X64.399Y16.287
T2
X28.575Y6.675G85X28.575Y5.925
G05
X28.575Y2.175G85X28.575Y1.425
G05
X39.425Y6.675G85X39.425Y5.925
G05
X39.425Y2.175G85X39.425Y1.425
G05
T0
M30
